G04 #@! TF.GenerationSoftware,KiCad,Pcbnew,7.0.1*
G04 #@! TF.CreationDate,2024-06-01T20:06:03-04:00*
G04 #@! TF.ProjectId,current_sink_dev,63757272-656e-4745-9f73-696e6b5f6465,rev?*
G04 #@! TF.SameCoordinates,Original*
G04 #@! TF.FileFunction,Soldermask,Bot*
G04 #@! TF.FilePolarity,Negative*
%FSLAX46Y46*%
G04 Gerber Fmt 4.6, Leading zero omitted, Abs format (unit mm)*
G04 Created by KiCad (PCBNEW 7.0.1) date 2024-06-01 20:06:03*
%MOMM*%
%LPD*%
G01*
G04 APERTURE LIST*
G04 Aperture macros list*
%AMRoundRect*
0 Rectangle with rounded corners*
0 $1 Rounding radius*
0 $2 $3 $4 $5 $6 $7 $8 $9 X,Y pos of 4 corners*
0 Add a 4 corners polygon primitive as box body*
4,1,4,$2,$3,$4,$5,$6,$7,$8,$9,$2,$3,0*
0 Add four circle primitives for the rounded corners*
1,1,$1+$1,$2,$3*
1,1,$1+$1,$4,$5*
1,1,$1+$1,$6,$7*
1,1,$1+$1,$8,$9*
0 Add four rect primitives between the rounded corners*
20,1,$1+$1,$2,$3,$4,$5,0*
20,1,$1+$1,$4,$5,$6,$7,0*
20,1,$1+$1,$6,$7,$8,$9,0*
20,1,$1+$1,$8,$9,$2,$3,0*%
G04 Aperture macros list end*
%ADD10R,2.000000X2.000000*%
%ADD11C,2.000000*%
%ADD12R,3.200000X2.000000*%
%ADD13C,0.800000*%
%ADD14C,6.400000*%
%ADD15C,1.700000*%
%ADD16C,3.500000*%
%ADD17C,2.340000*%
%ADD18R,1.700000X1.700000*%
%ADD19O,1.700000X1.700000*%
%ADD20O,1.700000X3.500000*%
%ADD21C,0.650000*%
%ADD22O,0.950000X0.650000*%
%ADD23O,0.800000X1.400000*%
%ADD24RoundRect,0.250000X-0.450000X0.350000X-0.450000X-0.350000X0.450000X-0.350000X0.450000X0.350000X0*%
%ADD25RoundRect,0.250000X0.475000X-0.337500X0.475000X0.337500X-0.475000X0.337500X-0.475000X-0.337500X0*%
%ADD26RoundRect,0.250000X-0.337500X-0.475000X0.337500X-0.475000X0.337500X0.475000X-0.337500X0.475000X0*%
%ADD27C,2.600000*%
%ADD28RoundRect,0.075000X0.662500X0.075000X-0.662500X0.075000X-0.662500X-0.075000X0.662500X-0.075000X0*%
%ADD29RoundRect,0.250000X0.337500X0.475000X-0.337500X0.475000X-0.337500X-0.475000X0.337500X-0.475000X0*%
%ADD30RoundRect,0.250000X0.450000X-0.350000X0.450000X0.350000X-0.450000X0.350000X-0.450000X-0.350000X0*%
%ADD31RoundRect,0.100000X0.712500X0.100000X-0.712500X0.100000X-0.712500X-0.100000X0.712500X-0.100000X0*%
G04 APERTURE END LIST*
D10*
X148500000Y-102000000D03*
D11*
X148500000Y-107000000D03*
X148500000Y-104500000D03*
D12*
X156000000Y-98900000D03*
X156000000Y-110100000D03*
D11*
X163000000Y-107000000D03*
X163000000Y-102000000D03*
D13*
X132000000Y-124400000D03*
X130302944Y-123697056D03*
X133697056Y-123697056D03*
X129600000Y-122000000D03*
D14*
X132000000Y-122000000D03*
D13*
X134400000Y-122000000D03*
X130302944Y-120302944D03*
X133697056Y-120302944D03*
X132000000Y-119600000D03*
X162100000Y-130500000D03*
X162802944Y-128802944D03*
X162802944Y-132197056D03*
X164500000Y-128100000D03*
D14*
X164500000Y-130500000D03*
D13*
X164500000Y-132900000D03*
X166197056Y-128802944D03*
X166197056Y-132197056D03*
X166900000Y-130500000D03*
D15*
X114420000Y-134360000D03*
X124580000Y-134360000D03*
X114420000Y-124200000D03*
X124580000Y-124200000D03*
D16*
X119500000Y-128000000D03*
D17*
X168000000Y-65500000D03*
X163000000Y-68000000D03*
X168000000Y-70500000D03*
D13*
X97100000Y-45500000D03*
X97802944Y-43802944D03*
X97802944Y-47197056D03*
X99500000Y-43100000D03*
D14*
X99500000Y-45500000D03*
D13*
X99500000Y-47900000D03*
X101197056Y-43802944D03*
X101197056Y-47197056D03*
X101900000Y-45500000D03*
X132000000Y-134350000D03*
X130302944Y-133647056D03*
X133697056Y-133647056D03*
X129600000Y-131950000D03*
D14*
X132000000Y-131950000D03*
D13*
X134400000Y-131950000D03*
X130302944Y-130252944D03*
X133697056Y-130252944D03*
X132000000Y-129550000D03*
D18*
X157000000Y-44350000D03*
D19*
X157000000Y-41810000D03*
D20*
X110410000Y-80600000D03*
X112950000Y-80600000D03*
X115490000Y-80600000D03*
X118030000Y-80600000D03*
X120570000Y-80600000D03*
X123110000Y-80600000D03*
X125650000Y-80600000D03*
X128190000Y-80600000D03*
X130730000Y-80600000D03*
X133270000Y-80600000D03*
X135810000Y-80600000D03*
X138350000Y-80600000D03*
X140890000Y-80600000D03*
X143430000Y-80600000D03*
X145970000Y-80600000D03*
X148510000Y-80600000D03*
X151050000Y-80600000D03*
X153590000Y-80600000D03*
X153590000Y-55600000D03*
X151050000Y-55600000D03*
X148510000Y-55600000D03*
X145970000Y-55600000D03*
X143430000Y-55600000D03*
X140890000Y-55600000D03*
X138350000Y-55600000D03*
X135810000Y-55600000D03*
X133270000Y-55600000D03*
X130730000Y-55600000D03*
X128190000Y-55600000D03*
X125650000Y-55600000D03*
X123110000Y-55600000D03*
X120570000Y-55600000D03*
X118030000Y-55600000D03*
X115490000Y-55600000D03*
X112950000Y-55600000D03*
X110410000Y-55600000D03*
D13*
X162100000Y-45500000D03*
X162802944Y-43802944D03*
X162802944Y-47197056D03*
X164500000Y-43100000D03*
D14*
X164500000Y-45500000D03*
D13*
X164500000Y-47900000D03*
X166197056Y-43802944D03*
X166197056Y-47197056D03*
X166900000Y-45500000D03*
X97100000Y-130500000D03*
X97802944Y-128802944D03*
X97802944Y-132197056D03*
X99500000Y-128100000D03*
D14*
X99500000Y-130500000D03*
D13*
X99500000Y-132900000D03*
X101197056Y-128802944D03*
X101197056Y-132197056D03*
X101900000Y-130500000D03*
D21*
X151090000Y-46610000D03*
D22*
X143890000Y-46610000D03*
D23*
X151980000Y-39410000D03*
X151620000Y-45360000D03*
X143360000Y-45360000D03*
X143000000Y-39410000D03*
D18*
X110000000Y-131000000D03*
D19*
X110000000Y-133540000D03*
D15*
X139420000Y-134360000D03*
X149580000Y-134360000D03*
X139420000Y-124200000D03*
X149580000Y-124200000D03*
D16*
X144500000Y-128000000D03*
D24*
X139487500Y-86275000D03*
X139487500Y-88275000D03*
D25*
X110500000Y-46575000D03*
X110500000Y-44500000D03*
D26*
X135250000Y-110250000D03*
X137325000Y-110250000D03*
D27*
X96500000Y-100100000D03*
D16*
X96500000Y-100100000D03*
D28*
X136662500Y-62250000D03*
X136662500Y-62750000D03*
X136662500Y-63250000D03*
X136662500Y-63750000D03*
X136662500Y-64250000D03*
X136662500Y-64750000D03*
X136662500Y-65250000D03*
X136662500Y-65750000D03*
X136662500Y-66250000D03*
X136662500Y-66750000D03*
X136662500Y-67250000D03*
X136662500Y-67750000D03*
X136662500Y-68250000D03*
X136662500Y-68750000D03*
X136662500Y-69250000D03*
X136662500Y-69750000D03*
X136662500Y-70250000D03*
X136662500Y-70750000D03*
X136662500Y-71250000D03*
X136662500Y-71750000D03*
X136662500Y-72250000D03*
X136662500Y-72750000D03*
X136662500Y-73250000D03*
X136662500Y-73750000D03*
X127337500Y-73750000D03*
X127337500Y-73250000D03*
X127337500Y-72750000D03*
X127337500Y-72250000D03*
X127337500Y-71750000D03*
X127337500Y-71250000D03*
X127337500Y-70750000D03*
X127337500Y-70250000D03*
X127337500Y-69750000D03*
X127337500Y-69250000D03*
X127337500Y-68750000D03*
X127337500Y-68250000D03*
X127337500Y-67750000D03*
X127337500Y-67250000D03*
X127337500Y-66750000D03*
X127337500Y-66250000D03*
X127337500Y-65750000D03*
X127337500Y-65250000D03*
X127337500Y-64750000D03*
X127337500Y-64250000D03*
X127337500Y-63750000D03*
X127337500Y-63250000D03*
X127337500Y-62750000D03*
X127337500Y-62250000D03*
D24*
X141487500Y-90275000D03*
X141487500Y-92275000D03*
D26*
X135162500Y-99800000D03*
X137237500Y-99800000D03*
D29*
X133125000Y-86575000D03*
X131050000Y-86575000D03*
D24*
X124887500Y-90275000D03*
X124887500Y-92275000D03*
D27*
X96500000Y-123100000D03*
D16*
X96500000Y-123100000D03*
D30*
X141487500Y-88275000D03*
X141487500Y-86275000D03*
D24*
X126887500Y-86275000D03*
X126887500Y-88275000D03*
X117200000Y-44500000D03*
X117200000Y-46500000D03*
D27*
X108500000Y-123100000D03*
D16*
X108500000Y-123100000D03*
D31*
X134500000Y-88800000D03*
X134500000Y-89450000D03*
X134500000Y-90100000D03*
X134500000Y-90750000D03*
X130275000Y-90750000D03*
X130275000Y-90100000D03*
X130275000Y-89450000D03*
X130275000Y-88800000D03*
D30*
X124887500Y-88275000D03*
X124887500Y-86275000D03*
X139487500Y-92275000D03*
X139487500Y-90275000D03*
X126887500Y-92275000D03*
X126887500Y-90275000D03*
D25*
X114500000Y-46575000D03*
X114500000Y-44500000D03*
D26*
X119962500Y-45500000D03*
X122037500Y-45500000D03*
D27*
X108500000Y-100100000D03*
D16*
X108500000Y-100100000D03*
M02*
