G04 #@! TF.GenerationSoftware,KiCad,Pcbnew,7.0.1*
G04 #@! TF.CreationDate,2024-06-01T20:06:03-04:00*
G04 #@! TF.ProjectId,current_sink_dev,63757272-656e-4745-9f73-696e6b5f6465,rev?*
G04 #@! TF.SameCoordinates,Original*
G04 #@! TF.FileFunction,Soldermask,Top*
G04 #@! TF.FilePolarity,Negative*
%FSLAX46Y46*%
G04 Gerber Fmt 4.6, Leading zero omitted, Abs format (unit mm)*
G04 Created by KiCad (PCBNEW 7.0.1) date 2024-06-01 20:06:03*
%MOMM*%
%LPD*%
G01*
G04 APERTURE LIST*
G04 Aperture macros list*
%AMRoundRect*
0 Rectangle with rounded corners*
0 $1 Rounding radius*
0 $2 $3 $4 $5 $6 $7 $8 $9 X,Y pos of 4 corners*
0 Add a 4 corners polygon primitive as box body*
4,1,4,$2,$3,$4,$5,$6,$7,$8,$9,$2,$3,0*
0 Add four circle primitives for the rounded corners*
1,1,$1+$1,$2,$3*
1,1,$1+$1,$4,$5*
1,1,$1+$1,$6,$7*
1,1,$1+$1,$8,$9*
0 Add four rect primitives between the rounded corners*
20,1,$1+$1,$2,$3,$4,$5,0*
20,1,$1+$1,$4,$5,$6,$7,0*
20,1,$1+$1,$6,$7,$8,$9,0*
20,1,$1+$1,$8,$9,$2,$3,0*%
G04 Aperture macros list end*
%ADD10RoundRect,0.250000X-0.450000X0.350000X-0.450000X-0.350000X0.450000X-0.350000X0.450000X0.350000X0*%
%ADD11RoundRect,0.250000X0.850000X0.350000X-0.850000X0.350000X-0.850000X-0.350000X0.850000X-0.350000X0*%
%ADD12RoundRect,0.249997X2.950003X2.650003X-2.950003X2.650003X-2.950003X-2.650003X2.950003X-2.650003X0*%
%ADD13RoundRect,0.250000X0.350000X0.450000X-0.350000X0.450000X-0.350000X-0.450000X0.350000X-0.450000X0*%
%ADD14RoundRect,0.250000X0.475000X-0.337500X0.475000X0.337500X-0.475000X0.337500X-0.475000X-0.337500X0*%
%ADD15R,2.000000X2.000000*%
%ADD16C,2.000000*%
%ADD17R,3.200000X2.000000*%
%ADD18RoundRect,0.250000X0.450000X-0.350000X0.450000X0.350000X-0.450000X0.350000X-0.450000X-0.350000X0*%
%ADD19C,1.000000*%
%ADD20R,1.000000X2.100000*%
%ADD21C,0.800000*%
%ADD22C,6.400000*%
%ADD23RoundRect,0.250000X0.337500X0.475000X-0.337500X0.475000X-0.337500X-0.475000X0.337500X-0.475000X0*%
%ADD24R,0.400000X0.250000*%
%ADD25R,0.250000X0.400000*%
%ADD26R,1.100000X1.100000*%
%ADD27C,1.700000*%
%ADD28C,3.500000*%
%ADD29RoundRect,0.100000X-0.637500X-0.100000X0.637500X-0.100000X0.637500X0.100000X-0.637500X0.100000X0*%
%ADD30RoundRect,0.250000X-0.350000X-0.450000X0.350000X-0.450000X0.350000X0.450000X-0.350000X0.450000X0*%
%ADD31C,2.340000*%
%ADD32RoundRect,0.250000X-0.337500X-0.475000X0.337500X-0.475000X0.337500X0.475000X-0.337500X0.475000X0*%
%ADD33R,1.700000X1.700000*%
%ADD34O,1.700000X1.700000*%
%ADD35RoundRect,0.250000X0.400000X0.625000X-0.400000X0.625000X-0.400000X-0.625000X0.400000X-0.625000X0*%
%ADD36RoundRect,0.250000X-0.475000X0.337500X-0.475000X-0.337500X0.475000X-0.337500X0.475000X0.337500X0*%
%ADD37O,1.700000X3.500000*%
%ADD38C,3.000000*%
%ADD39RoundRect,0.150000X0.825000X0.150000X-0.825000X0.150000X-0.825000X-0.150000X0.825000X-0.150000X0*%
%ADD40C,0.650000*%
%ADD41O,0.950000X0.650000*%
%ADD42R,0.300000X0.700000*%
%ADD43O,0.800000X1.400000*%
%ADD44R,1.560000X0.650000*%
%ADD45R,1.400000X0.300000*%
%ADD46C,2.600000*%
G04 APERTURE END LIST*
D10*
X128750000Y-112250000D03*
X128750000Y-114250000D03*
D11*
X108625000Y-118255000D03*
D12*
X102325000Y-115975000D03*
D11*
X108625000Y-113695000D03*
D13*
X119500000Y-115900000D03*
X117500000Y-115900000D03*
D10*
X129100000Y-40600000D03*
X129100000Y-42600000D03*
D14*
X141750000Y-108787500D03*
X141750000Y-106712500D03*
D15*
X148500000Y-102000000D03*
D16*
X148500000Y-107000000D03*
X148500000Y-104500000D03*
D17*
X156000000Y-98900000D03*
X156000000Y-110100000D03*
D16*
X163000000Y-107000000D03*
X163000000Y-102000000D03*
D18*
X130750000Y-108750000D03*
X130750000Y-106750000D03*
D19*
X150100000Y-114000000D03*
D10*
X126750000Y-112250000D03*
X126750000Y-114250000D03*
D19*
X97100000Y-94800000D03*
D14*
X141750000Y-92575000D03*
X141750000Y-90500000D03*
D10*
X165400000Y-87800000D03*
X165400000Y-89800000D03*
D13*
X119500000Y-106300000D03*
X117500000Y-106300000D03*
D19*
X96520000Y-81280000D03*
D10*
X126750000Y-96000000D03*
X126750000Y-98000000D03*
D20*
X122280000Y-40450000D03*
X119740000Y-40450000D03*
X114660000Y-40450000D03*
X112120000Y-40450000D03*
X114660000Y-50550000D03*
X122280000Y-50550000D03*
D18*
X141750000Y-98000000D03*
X141750000Y-96000000D03*
D19*
X96520000Y-76200000D03*
D18*
X130750000Y-114250000D03*
X130750000Y-112250000D03*
X126775000Y-108750000D03*
X126775000Y-106750000D03*
D21*
X132000000Y-124400000D03*
X130302944Y-123697056D03*
X133697056Y-123697056D03*
X129600000Y-122000000D03*
D22*
X132000000Y-122000000D03*
D21*
X134400000Y-122000000D03*
X130302944Y-120302944D03*
X133697056Y-120302944D03*
X132000000Y-119600000D03*
D19*
X120500000Y-88000000D03*
D11*
X108625000Y-108805000D03*
D12*
X102325000Y-106525000D03*
D11*
X108625000Y-104245000D03*
D18*
X124750000Y-114250000D03*
X124750000Y-112250000D03*
D21*
X162100000Y-130500000D03*
X162802944Y-128802944D03*
X162802944Y-132197056D03*
X164500000Y-128100000D03*
D22*
X164500000Y-130500000D03*
D21*
X164500000Y-132900000D03*
X166197056Y-128802944D03*
X166197056Y-132197056D03*
X166900000Y-130500000D03*
D10*
X128775000Y-106750000D03*
X128775000Y-108750000D03*
D23*
X101337500Y-90500000D03*
X99262500Y-90500000D03*
D19*
X147900000Y-114000000D03*
D14*
X149500000Y-89837500D03*
X149500000Y-87762500D03*
D18*
X126775000Y-92500000D03*
X126775000Y-90500000D03*
D19*
X102387500Y-59650000D03*
X144500000Y-86000000D03*
X150050000Y-92650000D03*
D24*
X133600000Y-46675000D03*
X133600000Y-46225000D03*
X133600000Y-45775000D03*
X133600000Y-45325000D03*
D25*
X132725000Y-44950000D03*
X132275000Y-44950000D03*
D24*
X131400000Y-45325000D03*
X131400000Y-45775000D03*
X131400000Y-46225000D03*
X131400000Y-46675000D03*
D25*
X132275000Y-47050000D03*
X132725000Y-47050000D03*
D26*
X132500000Y-46000000D03*
D10*
X136400000Y-40600000D03*
X136400000Y-42600000D03*
D19*
X106000000Y-40500000D03*
D27*
X114420000Y-134360000D03*
X124580000Y-134360000D03*
X114420000Y-124200000D03*
X124580000Y-124200000D03*
D28*
X119500000Y-128000000D03*
D19*
X96520000Y-73500000D03*
D13*
X119500000Y-108400000D03*
X117500000Y-108400000D03*
D19*
X126400000Y-117700000D03*
D18*
X130750000Y-98000000D03*
X130750000Y-96000000D03*
D13*
X119500000Y-118000000D03*
X117500000Y-118000000D03*
D18*
X141750000Y-114250000D03*
X141750000Y-112250000D03*
D19*
X136250000Y-103850000D03*
D14*
X131100000Y-42637500D03*
X131100000Y-40562500D03*
D29*
X107637500Y-88075000D03*
X107637500Y-88725000D03*
X107637500Y-89375000D03*
X107637500Y-90025000D03*
X107637500Y-90675000D03*
X107637500Y-91325000D03*
X107637500Y-91975000D03*
X107637500Y-92625000D03*
X107637500Y-93275000D03*
X107637500Y-93925000D03*
X113362500Y-93925000D03*
X113362500Y-93275000D03*
X113362500Y-92625000D03*
X113362500Y-91975000D03*
X113362500Y-91325000D03*
X113362500Y-90675000D03*
X113362500Y-90025000D03*
X113362500Y-89375000D03*
X113362500Y-88725000D03*
X113362500Y-88075000D03*
D10*
X143750000Y-90537500D03*
X143750000Y-92537500D03*
X128750000Y-96000000D03*
X128750000Y-98000000D03*
X165400000Y-92200000D03*
X165400000Y-94200000D03*
D30*
X99300000Y-88500000D03*
X101300000Y-88500000D03*
D31*
X168000000Y-65500000D03*
X163000000Y-68000000D03*
X168000000Y-70500000D03*
D18*
X124750000Y-98000000D03*
X124750000Y-96000000D03*
D30*
X99300000Y-86500000D03*
X101300000Y-86500000D03*
D21*
X97100000Y-45500000D03*
X97802944Y-43802944D03*
X97802944Y-47197056D03*
X99500000Y-43100000D03*
D22*
X99500000Y-45500000D03*
D21*
X99500000Y-47900000D03*
X101197056Y-43802944D03*
X101197056Y-47197056D03*
X101900000Y-45500000D03*
D32*
X164462500Y-75300000D03*
X166537500Y-75300000D03*
D21*
X132000000Y-134350000D03*
X130302944Y-133647056D03*
X133697056Y-133647056D03*
X129600000Y-131950000D03*
D22*
X132000000Y-131950000D03*
D21*
X134400000Y-131950000D03*
X130302944Y-130252944D03*
X133697056Y-130252944D03*
X132000000Y-129550000D03*
D33*
X157000000Y-44350000D03*
D34*
X157000000Y-41810000D03*
D18*
X124750000Y-108750000D03*
X124750000Y-106750000D03*
D19*
X120500000Y-86000000D03*
D35*
X120050000Y-104000000D03*
X116950000Y-104000000D03*
D10*
X128775000Y-90500000D03*
X128775000Y-92500000D03*
D19*
X161900000Y-59200000D03*
D14*
X147300000Y-89837500D03*
X147300000Y-87762500D03*
D36*
X167500000Y-87762500D03*
X167500000Y-89837500D03*
X132462500Y-49462500D03*
X132462500Y-51537500D03*
D32*
X96925000Y-64500000D03*
X99000000Y-64500000D03*
D35*
X120000000Y-113500000D03*
X116900000Y-113500000D03*
D37*
X110410000Y-80600000D03*
X112950000Y-80600000D03*
X115490000Y-80600000D03*
X118030000Y-80600000D03*
X120570000Y-80600000D03*
X123110000Y-80600000D03*
X125650000Y-80600000D03*
X128190000Y-80600000D03*
X130730000Y-80600000D03*
X133270000Y-80600000D03*
X135810000Y-80600000D03*
X138350000Y-80600000D03*
X140890000Y-80600000D03*
X143430000Y-80600000D03*
X145970000Y-80600000D03*
X148510000Y-80600000D03*
X151050000Y-80600000D03*
X153590000Y-80600000D03*
X153590000Y-55600000D03*
X151050000Y-55600000D03*
X148510000Y-55600000D03*
X145970000Y-55600000D03*
X143430000Y-55600000D03*
X140890000Y-55600000D03*
X138350000Y-55600000D03*
X135810000Y-55600000D03*
X133270000Y-55600000D03*
X130730000Y-55600000D03*
X128190000Y-55600000D03*
X125650000Y-55600000D03*
X123110000Y-55600000D03*
X120570000Y-55600000D03*
X118030000Y-55600000D03*
X115490000Y-55600000D03*
X112950000Y-55600000D03*
X110410000Y-55600000D03*
D23*
X101337500Y-92600000D03*
X99262500Y-92600000D03*
D19*
X122700000Y-110000000D03*
D18*
X124750000Y-92500000D03*
X124750000Y-90500000D03*
D21*
X162100000Y-45500000D03*
X162802944Y-43802944D03*
X162802944Y-47197056D03*
X164500000Y-43100000D03*
D22*
X164500000Y-45500000D03*
D21*
X164500000Y-47900000D03*
X166197056Y-43802944D03*
X166197056Y-47197056D03*
X166900000Y-45500000D03*
D10*
X143750000Y-112250000D03*
X143750000Y-114250000D03*
D21*
X97100000Y-130500000D03*
X97802944Y-128802944D03*
X97802944Y-132197056D03*
X99500000Y-128100000D03*
D22*
X99500000Y-130500000D03*
D21*
X99500000Y-132900000D03*
X101197056Y-128802944D03*
X101197056Y-132197056D03*
X101900000Y-130500000D03*
D38*
X157000000Y-134000000D03*
D19*
X120000000Y-96400000D03*
X167500000Y-99300000D03*
D18*
X134400000Y-42600000D03*
X134400000Y-40600000D03*
D10*
X143750000Y-106750000D03*
X143750000Y-108750000D03*
D39*
X138725000Y-114060000D03*
X138725000Y-112790000D03*
X138725000Y-111520000D03*
X138725000Y-110250000D03*
X138725000Y-108980000D03*
X138725000Y-107710000D03*
X138725000Y-106440000D03*
X133775000Y-106440000D03*
X133775000Y-107710000D03*
X133775000Y-108980000D03*
X133775000Y-110250000D03*
X133775000Y-111520000D03*
X133775000Y-112790000D03*
X133775000Y-114060000D03*
D19*
X167400000Y-107000000D03*
D40*
X151090000Y-46610000D03*
D41*
X143890000Y-46610000D03*
D42*
X150240000Y-47270000D03*
X149740000Y-47270000D03*
X149240000Y-47270000D03*
X148740000Y-47270000D03*
X148240000Y-47270000D03*
X147740000Y-47270000D03*
X147240000Y-47270000D03*
X146740000Y-47270000D03*
X146240000Y-47270000D03*
X145740000Y-47270000D03*
X145240000Y-47270000D03*
X144740000Y-47270000D03*
X144990000Y-45570000D03*
X145490000Y-45570000D03*
X145990000Y-45570000D03*
X146490000Y-45570000D03*
X146990000Y-45570000D03*
X147490000Y-45570000D03*
X147990000Y-45570000D03*
X148490000Y-45570000D03*
X148990000Y-45570000D03*
X149490000Y-45570000D03*
X149990000Y-45570000D03*
X150490000Y-45570000D03*
D43*
X151980000Y-39410000D03*
X151620000Y-45360000D03*
X143360000Y-45360000D03*
X143000000Y-39410000D03*
D44*
X99312500Y-62450000D03*
X99312500Y-61500000D03*
X99312500Y-60550000D03*
X96612500Y-60550000D03*
X96612500Y-62450000D03*
D33*
X110000000Y-131000000D03*
D34*
X110000000Y-133540000D03*
D18*
X130750000Y-92500000D03*
X130750000Y-90500000D03*
D19*
X127650000Y-46450000D03*
D39*
X138725000Y-98040000D03*
X138725000Y-96770000D03*
X138725000Y-95500000D03*
X138725000Y-94230000D03*
X138725000Y-92960000D03*
X138725000Y-91690000D03*
X138725000Y-90420000D03*
X133775000Y-90420000D03*
X133775000Y-91690000D03*
X133775000Y-92960000D03*
X133775000Y-94230000D03*
X133775000Y-95500000D03*
X133775000Y-96770000D03*
X133775000Y-98040000D03*
D10*
X143750000Y-96000000D03*
X143750000Y-98000000D03*
D27*
X139420000Y-134360000D03*
X149580000Y-134360000D03*
X139420000Y-124200000D03*
X149580000Y-124200000D03*
D28*
X144500000Y-128000000D03*
D19*
X126500000Y-43000000D03*
D45*
X154700000Y-90100000D03*
X154700000Y-90600000D03*
X154700000Y-91100000D03*
X154700000Y-91600000D03*
X154700000Y-92100000D03*
X159100000Y-92100000D03*
X159100000Y-91600000D03*
X159100000Y-91100000D03*
X159100000Y-90600000D03*
X159100000Y-90100000D03*
D14*
X167500000Y-94237500D03*
X167500000Y-92162500D03*
D19*
X150050000Y-94800000D03*
X96520000Y-78740000D03*
D32*
X96850000Y-58500000D03*
X98925000Y-58500000D03*
D46*
X96500000Y-100100000D03*
X96500000Y-123100000D03*
X108500000Y-123100000D03*
X108500000Y-100100000D03*
M02*
