G04 #@! TF.GenerationSoftware,KiCad,Pcbnew,7.0.1*
G04 #@! TF.CreationDate,2024-06-01T20:06:03-04:00*
G04 #@! TF.ProjectId,current_sink_dev,63757272-656e-4745-9f73-696e6b5f6465,rev?*
G04 #@! TF.SameCoordinates,Original*
G04 #@! TF.FileFunction,Paste,Top*
G04 #@! TF.FilePolarity,Positive*
%FSLAX46Y46*%
G04 Gerber Fmt 4.6, Leading zero omitted, Abs format (unit mm)*
G04 Created by KiCad (PCBNEW 7.0.1) date 2024-06-01 20:06:03*
%MOMM*%
%LPD*%
G01*
G04 APERTURE LIST*
G04 Aperture macros list*
%AMRoundRect*
0 Rectangle with rounded corners*
0 $1 Rounding radius*
0 $2 $3 $4 $5 $6 $7 $8 $9 X,Y pos of 4 corners*
0 Add a 4 corners polygon primitive as box body*
4,1,4,$2,$3,$4,$5,$6,$7,$8,$9,$2,$3,0*
0 Add four circle primitives for the rounded corners*
1,1,$1+$1,$2,$3*
1,1,$1+$1,$4,$5*
1,1,$1+$1,$6,$7*
1,1,$1+$1,$8,$9*
0 Add four rect primitives between the rounded corners*
20,1,$1+$1,$2,$3,$4,$5,0*
20,1,$1+$1,$4,$5,$6,$7,0*
20,1,$1+$1,$6,$7,$8,$9,0*
20,1,$1+$1,$8,$9,$2,$3,0*%
G04 Aperture macros list end*
%ADD10RoundRect,0.250000X-0.450000X0.350000X-0.450000X-0.350000X0.450000X-0.350000X0.450000X0.350000X0*%
%ADD11RoundRect,0.250000X0.850000X0.350000X-0.850000X0.350000X-0.850000X-0.350000X0.850000X-0.350000X0*%
%ADD12RoundRect,0.250000X1.275000X1.125000X-1.275000X1.125000X-1.275000X-1.125000X1.275000X-1.125000X0*%
%ADD13RoundRect,0.250000X0.350000X0.450000X-0.350000X0.450000X-0.350000X-0.450000X0.350000X-0.450000X0*%
%ADD14RoundRect,0.250000X0.475000X-0.337500X0.475000X0.337500X-0.475000X0.337500X-0.475000X-0.337500X0*%
%ADD15RoundRect,0.250000X0.450000X-0.350000X0.450000X0.350000X-0.450000X0.350000X-0.450000X-0.350000X0*%
%ADD16R,1.000000X2.100000*%
%ADD17RoundRect,0.250000X0.337500X0.475000X-0.337500X0.475000X-0.337500X-0.475000X0.337500X-0.475000X0*%
%ADD18R,0.400000X0.250000*%
%ADD19R,0.250000X0.400000*%
%ADD20R,1.100000X1.100000*%
%ADD21RoundRect,0.100000X-0.637500X-0.100000X0.637500X-0.100000X0.637500X0.100000X-0.637500X0.100000X0*%
%ADD22RoundRect,0.250000X-0.350000X-0.450000X0.350000X-0.450000X0.350000X0.450000X-0.350000X0.450000X0*%
%ADD23RoundRect,0.250000X-0.337500X-0.475000X0.337500X-0.475000X0.337500X0.475000X-0.337500X0.475000X0*%
%ADD24RoundRect,0.250000X0.400000X0.625000X-0.400000X0.625000X-0.400000X-0.625000X0.400000X-0.625000X0*%
%ADD25RoundRect,0.250000X-0.475000X0.337500X-0.475000X-0.337500X0.475000X-0.337500X0.475000X0.337500X0*%
%ADD26RoundRect,0.150000X0.825000X0.150000X-0.825000X0.150000X-0.825000X-0.150000X0.825000X-0.150000X0*%
%ADD27R,0.300000X0.700000*%
%ADD28R,1.560000X0.650000*%
%ADD29R,1.400000X0.300000*%
G04 APERTURE END LIST*
D10*
X128750000Y-112250000D03*
X128750000Y-114250000D03*
D11*
X108625000Y-118255000D03*
D12*
X104000000Y-117500000D03*
X104000000Y-114450000D03*
X100650000Y-117500000D03*
X100650000Y-114450000D03*
D11*
X108625000Y-113695000D03*
D13*
X119500000Y-115900000D03*
X117500000Y-115900000D03*
D10*
X129100000Y-40600000D03*
X129100000Y-42600000D03*
D14*
X141750000Y-108787500D03*
X141750000Y-106712500D03*
D15*
X130750000Y-108750000D03*
X130750000Y-106750000D03*
D10*
X126750000Y-112250000D03*
X126750000Y-114250000D03*
D14*
X141750000Y-92575000D03*
X141750000Y-90500000D03*
D10*
X165400000Y-87800000D03*
X165400000Y-89800000D03*
D13*
X119500000Y-106300000D03*
X117500000Y-106300000D03*
D10*
X126750000Y-96000000D03*
X126750000Y-98000000D03*
D16*
X122280000Y-40450000D03*
X119740000Y-40450000D03*
X114660000Y-40450000D03*
X112120000Y-40450000D03*
X114660000Y-50550000D03*
X122280000Y-50550000D03*
D15*
X141750000Y-98000000D03*
X141750000Y-96000000D03*
X130750000Y-114250000D03*
X130750000Y-112250000D03*
X126775000Y-108750000D03*
X126775000Y-106750000D03*
D11*
X108625000Y-108805000D03*
D12*
X104000000Y-108050000D03*
X104000000Y-105000000D03*
X100650000Y-108050000D03*
X100650000Y-105000000D03*
D11*
X108625000Y-104245000D03*
D15*
X124750000Y-114250000D03*
X124750000Y-112250000D03*
D10*
X128775000Y-106750000D03*
X128775000Y-108750000D03*
D17*
X101337500Y-90500000D03*
X99262500Y-90500000D03*
D14*
X149500000Y-89837500D03*
X149500000Y-87762500D03*
D15*
X126775000Y-92500000D03*
X126775000Y-90500000D03*
D18*
X133600000Y-46675000D03*
X133600000Y-46225000D03*
X133600000Y-45775000D03*
X133600000Y-45325000D03*
D19*
X132725000Y-44950000D03*
X132275000Y-44950000D03*
D18*
X131400000Y-45325000D03*
X131400000Y-45775000D03*
X131400000Y-46225000D03*
X131400000Y-46675000D03*
D19*
X132275000Y-47050000D03*
X132725000Y-47050000D03*
D20*
X132500000Y-46000000D03*
D10*
X136400000Y-40600000D03*
X136400000Y-42600000D03*
D13*
X119500000Y-108400000D03*
X117500000Y-108400000D03*
D15*
X130750000Y-98000000D03*
X130750000Y-96000000D03*
D13*
X119500000Y-118000000D03*
X117500000Y-118000000D03*
D15*
X141750000Y-114250000D03*
X141750000Y-112250000D03*
D14*
X131100000Y-42637500D03*
X131100000Y-40562500D03*
D21*
X107637500Y-88075000D03*
X107637500Y-88725000D03*
X107637500Y-89375000D03*
X107637500Y-90025000D03*
X107637500Y-90675000D03*
X107637500Y-91325000D03*
X107637500Y-91975000D03*
X107637500Y-92625000D03*
X107637500Y-93275000D03*
X107637500Y-93925000D03*
X113362500Y-93925000D03*
X113362500Y-93275000D03*
X113362500Y-92625000D03*
X113362500Y-91975000D03*
X113362500Y-91325000D03*
X113362500Y-90675000D03*
X113362500Y-90025000D03*
X113362500Y-89375000D03*
X113362500Y-88725000D03*
X113362500Y-88075000D03*
D10*
X143750000Y-90537500D03*
X143750000Y-92537500D03*
X128750000Y-96000000D03*
X128750000Y-98000000D03*
X165400000Y-92200000D03*
X165400000Y-94200000D03*
D22*
X99300000Y-88500000D03*
X101300000Y-88500000D03*
D15*
X124750000Y-98000000D03*
X124750000Y-96000000D03*
D22*
X99300000Y-86500000D03*
X101300000Y-86500000D03*
D23*
X164462500Y-75300000D03*
X166537500Y-75300000D03*
D15*
X124750000Y-108750000D03*
X124750000Y-106750000D03*
D24*
X120050000Y-104000000D03*
X116950000Y-104000000D03*
D10*
X128775000Y-90500000D03*
X128775000Y-92500000D03*
D14*
X147300000Y-89837500D03*
X147300000Y-87762500D03*
D25*
X167500000Y-87762500D03*
X167500000Y-89837500D03*
X132462500Y-49462500D03*
X132462500Y-51537500D03*
D23*
X96925000Y-64500000D03*
X99000000Y-64500000D03*
D24*
X120000000Y-113500000D03*
X116900000Y-113500000D03*
D17*
X101337500Y-92600000D03*
X99262500Y-92600000D03*
D15*
X124750000Y-92500000D03*
X124750000Y-90500000D03*
D10*
X143750000Y-112250000D03*
X143750000Y-114250000D03*
D15*
X134400000Y-42600000D03*
X134400000Y-40600000D03*
D10*
X143750000Y-106750000D03*
X143750000Y-108750000D03*
D26*
X138725000Y-114060000D03*
X138725000Y-112790000D03*
X138725000Y-111520000D03*
X138725000Y-110250000D03*
X138725000Y-108980000D03*
X138725000Y-107710000D03*
X138725000Y-106440000D03*
X133775000Y-106440000D03*
X133775000Y-107710000D03*
X133775000Y-108980000D03*
X133775000Y-110250000D03*
X133775000Y-111520000D03*
X133775000Y-112790000D03*
X133775000Y-114060000D03*
D27*
X150240000Y-47270000D03*
X149740000Y-47270000D03*
X149240000Y-47270000D03*
X148740000Y-47270000D03*
X148240000Y-47270000D03*
X147740000Y-47270000D03*
X147240000Y-47270000D03*
X146740000Y-47270000D03*
X146240000Y-47270000D03*
X145740000Y-47270000D03*
X145240000Y-47270000D03*
X144740000Y-47270000D03*
X144990000Y-45570000D03*
X145490000Y-45570000D03*
X145990000Y-45570000D03*
X146490000Y-45570000D03*
X146990000Y-45570000D03*
X147490000Y-45570000D03*
X147990000Y-45570000D03*
X148490000Y-45570000D03*
X148990000Y-45570000D03*
X149490000Y-45570000D03*
X149990000Y-45570000D03*
X150490000Y-45570000D03*
D28*
X99312500Y-62450000D03*
X99312500Y-61500000D03*
X99312500Y-60550000D03*
X96612500Y-60550000D03*
X96612500Y-62450000D03*
D15*
X130750000Y-92500000D03*
X130750000Y-90500000D03*
D26*
X138725000Y-98040000D03*
X138725000Y-96770000D03*
X138725000Y-95500000D03*
X138725000Y-94230000D03*
X138725000Y-92960000D03*
X138725000Y-91690000D03*
X138725000Y-90420000D03*
X133775000Y-90420000D03*
X133775000Y-91690000D03*
X133775000Y-92960000D03*
X133775000Y-94230000D03*
X133775000Y-95500000D03*
X133775000Y-96770000D03*
X133775000Y-98040000D03*
D10*
X143750000Y-96000000D03*
X143750000Y-98000000D03*
D29*
X154700000Y-90100000D03*
X154700000Y-90600000D03*
X154700000Y-91100000D03*
X154700000Y-91600000D03*
X154700000Y-92100000D03*
X159100000Y-92100000D03*
X159100000Y-91600000D03*
X159100000Y-91100000D03*
X159100000Y-90600000D03*
X159100000Y-90100000D03*
D14*
X167500000Y-94237500D03*
X167500000Y-92162500D03*
D23*
X96850000Y-58500000D03*
X98925000Y-58500000D03*
M02*
