M48
; DRILL file {KiCad 7.0.1} date Sat Jun  1 20:06:09 2024
; FORMAT={-:-/ absolute / metric / decimal}
; #@! TF.CreationDate,2024-06-01T20:06:09-04:00
; #@! TF.GenerationSoftware,Kicad,Pcbnew,7.0.1
; #@! TF.FileFunction,Plated,1,4,PTH
FMAT,2
METRIC
; #@! TA.AperFunction,Plated,PTH,ViaDrill
T1C0.400
; #@! TA.AperFunction,Plated,PTH,ComponentDrill
T2C0.500
; #@! TA.AperFunction,Plated,PTH,ComponentDrill
T3C1.000
; #@! TA.AperFunction,Plated,PTH,ComponentDrill
T4C1.300
; #@! TA.AperFunction,Plated,PTH,ComponentDrill
T5C1.500
; #@! TA.AperFunction,Plated,PTH,ComponentDrill
T6C2.200
; #@! TA.AperFunction,Plated,PTH,ComponentDrill
T7C3.200
%
G90
G05
T1
X94.3Y-58.6
X94.3Y-59.75
X94.3Y-61.0
X94.3Y-62.25
X96.5Y-71.9
X96.6Y-82.9
X97.7Y-87.5
X97.7Y-91.5
X100.0Y-121.0
X100.0Y-123.0
X100.5Y-58.5
X100.5Y-64.6
X101.0Y-122.0
X101.6Y-84.6
X102.0Y-121.0
X102.0Y-123.0
X102.4Y-70.4
X102.4Y-77.5
X103.0Y-122.0
X103.007Y-88.774
X103.2Y-76.8
X103.3Y-93.3
X103.4Y-70.4
X104.0Y-121.0
X104.0Y-123.0
X104.1Y-94.0
X104.25Y-61.6
X105.0Y-122.0
X105.3Y-75.25
X105.75Y-59.5
X106.0Y-43.25
X106.0Y-44.5
X106.0Y-45.75
X106.0Y-47.0
X106.0Y-76.1
X108.2Y-86.5
X108.3Y-50.5
X109.438Y-88.562
X109.75Y-50.5
X110.5Y-48.2
X111.25Y-50.5
X112.018Y-96.556
X112.1Y-85.6
X112.7Y-50.5
X113.07Y-96.53
X113.1Y-85.5
X114.1Y-85.561
X114.1Y-96.5
X114.4Y-43.0
X116.0Y-94.0
X116.2Y-40.4
X116.9Y-111.55
X116.95Y-95.0
X117.1Y-92.4
X117.6Y-40.4
X118.2Y-71.124
X118.397Y-62.723
X118.425Y-63.775
X118.475Y-72.086
X118.509Y-61.73
X118.51Y-73.084
X119.2Y-102.3
X119.3Y-90.9
X119.5Y-61.6
X119.507Y-73.163
X119.9Y-47.3
X120.3Y-111.6
X120.5Y-102.3
X120.57Y-73.7
X120.6Y-62.025
X121.2Y-106.6
X121.2Y-115.9
X121.558Y-73.924
X122.1Y-108.4
X122.2Y-90.4
X122.2Y-102.3
X122.2Y-103.6
X122.2Y-105.7
X122.2Y-111.6
X122.2Y-112.9
X122.2Y-114.3
X122.309Y-74.584
X122.399Y-99.5
X123.0Y-92.4
X123.1Y-86.0
X123.1Y-89.3
X123.15Y-94.825
X124.4Y-40.4
X124.75Y-99.55
X124.75Y-102.075
X124.8Y-110.1
X126.6Y-40.4
X126.7Y-99.75
X128.4Y-85.224
X128.512Y-86.364
X128.645Y-48.445
X128.75Y-99.725
X128.775Y-115.575
X129.6Y-46.3
X129.675Y-86.575
X130.499Y-116.4
X130.674Y-94.075
X130.7Y-48.2
X130.8Y-49.6
X130.8Y-110.3
X131.1Y-39.399
X131.9Y-89.624
X132.133Y-99.65
X132.5Y-53.1
X132.7Y-39.5
X132.7Y-40.6
X133.0Y-70.05
X133.65Y-99.85
X133.7Y-67.8
X133.7Y-69.15
X134.4Y-44.0
X134.4Y-48.3
X134.8Y-103.9
X135.6Y-44.2
X135.7Y-47.6
X135.725Y-45.3
X135.9Y-92.2
X136.225Y-107.725
X136.25Y-94.5
X136.25Y-106.45
X138.75Y-99.85
X139.9Y-74.9
X140.027Y-61.39
X141.065Y-71.25
X141.078Y-69.3
X141.2Y-61.7
X141.215Y-74.921
X141.448Y-70.327
X141.75Y-94.2
X141.8Y-110.6
X141.983Y-73.192
X142.113Y-62.106
X142.4Y-74.8
X143.0Y-85.224
X143.0Y-94.2
X143.039Y-63.439
X143.075Y-62.378
X143.3Y-66.974
X143.3Y-87.5
X143.5Y-64.525
X143.775Y-99.55
X145.275Y-88.425
X145.463Y-64.979
X145.5Y-114.3
X145.7Y-48.475
X146.0Y-44.124
X146.3Y-65.525
X146.5Y-85.0
X146.7Y-49.2
X147.7Y-85.0
X147.77Y-112.73
X148.0Y-43.7
X148.7Y-85.0
X149.0Y-49.2
X149.1Y-43.8
X150.1Y-112.7
X151.0Y-105.7
X151.2Y-87.8
X151.9Y-63.7
X152.3Y-91.3
X152.8Y-65.625
X153.8Y-64.763
X161.7Y-89.6
X166.4Y-117.65
X168.262Y-75.3
X169.2Y-91.0
X169.25Y-87.85
T2
X97.1Y-45.5
X97.1Y-130.5
X97.803Y-43.803
X97.803Y-47.197
X97.803Y-128.803
X97.803Y-132.197
X99.5Y-43.1
X99.5Y-47.9
X99.5Y-128.1
X99.5Y-132.9
X101.197Y-43.803
X101.197Y-47.197
X101.197Y-128.803
X101.197Y-132.197
X101.9Y-45.5
X101.9Y-130.5
X129.6Y-122.0
X129.6Y-131.95
X130.303Y-120.303
X130.303Y-123.697
X130.303Y-130.253
X130.303Y-133.647
X132.0Y-119.6
X132.0Y-124.4
X132.0Y-129.55
X132.0Y-134.35
X133.697Y-120.303
X133.697Y-123.697
X133.697Y-130.253
X133.697Y-133.647
X134.4Y-122.0
X134.4Y-131.95
X162.1Y-45.5
X162.1Y-130.5
X162.803Y-43.803
X162.803Y-47.197
X162.803Y-128.803
X162.803Y-132.197
X164.5Y-43.1
X164.5Y-47.9
X164.5Y-128.1
X164.5Y-132.9
X166.197Y-43.803
X166.197Y-47.197
X166.197Y-128.803
X166.197Y-132.197
X166.9Y-45.5
X166.9Y-130.5
T3
X110.0Y-131.0
X110.0Y-133.54
X110.41Y-55.6
X110.41Y-80.6
X112.95Y-55.6
X112.95Y-80.6
X115.49Y-55.6
X115.49Y-80.6
X118.03Y-55.6
X118.03Y-80.6
X120.57Y-55.6
X120.57Y-80.6
X123.11Y-55.6
X123.11Y-80.6
X125.65Y-55.6
X125.65Y-80.6
X128.19Y-55.6
X128.19Y-80.6
X130.73Y-55.6
X130.73Y-80.6
X133.27Y-55.6
X133.27Y-80.6
X135.81Y-55.6
X135.81Y-80.6
X138.35Y-55.6
X138.35Y-80.6
X140.89Y-55.6
X140.89Y-80.6
X143.43Y-55.6
X143.43Y-80.6
X145.97Y-55.6
X145.97Y-80.6
X148.5Y-102.0
X148.5Y-104.5
X148.5Y-107.0
X148.51Y-55.6
X148.51Y-80.6
X151.05Y-55.6
X151.05Y-80.6
X153.59Y-55.6
X153.59Y-80.6
X157.0Y-41.81
X157.0Y-44.35
X163.0Y-102.0
X163.0Y-107.0
T4
X163.0Y-68.0
X168.0Y-65.5
X168.0Y-70.5
T6
X96.5Y-100.1
X96.5Y-123.1
X108.5Y-100.1
X108.5Y-123.1
X119.5Y-128.0
X144.5Y-128.0
T7
X99.5Y-45.5
X99.5Y-130.5
X132.0Y-122.0
X132.0Y-131.95
X164.5Y-45.5
X164.5Y-130.5
T2
X143.0Y-39.71G85X143.0Y-39.11
G05
X143.36Y-45.66G85X143.36Y-45.06
G05
X151.62Y-45.66G85X151.62Y-45.06
G05
X151.98Y-39.71G85X151.98Y-39.11
G05
T5
X155.35Y-98.9G85X156.65Y-98.9
G05
X155.35Y-110.1G85X156.65Y-110.1
G05
T0
M30
