G04 #@! TF.GenerationSoftware,KiCad,Pcbnew,7.0.1*
G04 #@! TF.CreationDate,2024-06-01T20:06:03-04:00*
G04 #@! TF.ProjectId,current_sink_dev,63757272-656e-4745-9f73-696e6b5f6465,rev?*
G04 #@! TF.SameCoordinates,Original*
G04 #@! TF.FileFunction,Legend,Bot*
G04 #@! TF.FilePolarity,Positive*
%FSLAX46Y46*%
G04 Gerber Fmt 4.6, Leading zero omitted, Abs format (unit mm)*
G04 Created by KiCad (PCBNEW 7.0.1) date 2024-06-01 20:06:03*
%MOMM*%
%LPD*%
G01*
G04 APERTURE LIST*
G04 Aperture macros list*
%AMRoundRect*
0 Rectangle with rounded corners*
0 $1 Rounding radius*
0 $2 $3 $4 $5 $6 $7 $8 $9 X,Y pos of 4 corners*
0 Add a 4 corners polygon primitive as box body*
4,1,4,$2,$3,$4,$5,$6,$7,$8,$9,$2,$3,0*
0 Add four circle primitives for the rounded corners*
1,1,$1+$1,$2,$3*
1,1,$1+$1,$4,$5*
1,1,$1+$1,$6,$7*
1,1,$1+$1,$8,$9*
0 Add four rect primitives between the rounded corners*
20,1,$1+$1,$2,$3,$4,$5,0*
20,1,$1+$1,$4,$5,$6,$7,0*
20,1,$1+$1,$6,$7,$8,$9,0*
20,1,$1+$1,$8,$9,$2,$3,0*%
G04 Aperture macros list end*
%ADD10C,0.100000*%
%ADD11C,0.120000*%
%ADD12R,2.000000X2.000000*%
%ADD13C,2.000000*%
%ADD14R,3.200000X2.000000*%
%ADD15C,0.800000*%
%ADD16C,6.400000*%
%ADD17C,1.700000*%
%ADD18C,3.500000*%
%ADD19C,2.340000*%
%ADD20R,1.700000X1.700000*%
%ADD21O,1.700000X1.700000*%
%ADD22O,1.700000X3.500000*%
%ADD23C,0.650000*%
%ADD24O,0.950000X0.650000*%
%ADD25O,0.800000X1.400000*%
%ADD26RoundRect,0.250000X-0.450000X0.350000X-0.450000X-0.350000X0.450000X-0.350000X0.450000X0.350000X0*%
%ADD27RoundRect,0.250000X0.475000X-0.337500X0.475000X0.337500X-0.475000X0.337500X-0.475000X-0.337500X0*%
%ADD28RoundRect,0.250000X-0.337500X-0.475000X0.337500X-0.475000X0.337500X0.475000X-0.337500X0.475000X0*%
%ADD29C,2.600000*%
%ADD30RoundRect,0.075000X0.662500X0.075000X-0.662500X0.075000X-0.662500X-0.075000X0.662500X-0.075000X0*%
%ADD31RoundRect,0.250000X0.337500X0.475000X-0.337500X0.475000X-0.337500X-0.475000X0.337500X-0.475000X0*%
%ADD32RoundRect,0.250000X0.450000X-0.350000X0.450000X0.350000X-0.450000X0.350000X-0.450000X-0.350000X0*%
%ADD33RoundRect,0.100000X0.712500X0.100000X-0.712500X0.100000X-0.712500X-0.100000X0.712500X-0.100000X0*%
G04 APERTURE END LIST*
D10*
X139765071Y-83428571D02*
X139479357Y-83228571D01*
X139765071Y-83085714D02*
X139165071Y-83085714D01*
X139165071Y-83085714D02*
X139165071Y-83314285D01*
X139165071Y-83314285D02*
X139193642Y-83371428D01*
X139193642Y-83371428D02*
X139222214Y-83399999D01*
X139222214Y-83399999D02*
X139279357Y-83428571D01*
X139279357Y-83428571D02*
X139365071Y-83428571D01*
X139365071Y-83428571D02*
X139422214Y-83399999D01*
X139422214Y-83399999D02*
X139450785Y-83371428D01*
X139450785Y-83371428D02*
X139479357Y-83314285D01*
X139479357Y-83314285D02*
X139479357Y-83085714D01*
X139222214Y-83657142D02*
X139193642Y-83685714D01*
X139193642Y-83685714D02*
X139165071Y-83742857D01*
X139165071Y-83742857D02*
X139165071Y-83885714D01*
X139165071Y-83885714D02*
X139193642Y-83942857D01*
X139193642Y-83942857D02*
X139222214Y-83971428D01*
X139222214Y-83971428D02*
X139279357Y-83999999D01*
X139279357Y-83999999D02*
X139336500Y-83999999D01*
X139336500Y-83999999D02*
X139422214Y-83971428D01*
X139422214Y-83971428D02*
X139765071Y-83628571D01*
X139765071Y-83628571D02*
X139765071Y-83999999D01*
X139765071Y-84571428D02*
X139765071Y-84228571D01*
X139765071Y-84400000D02*
X139165071Y-84400000D01*
X139165071Y-84400000D02*
X139250785Y-84342857D01*
X139250785Y-84342857D02*
X139307928Y-84285714D01*
X139307928Y-84285714D02*
X139336500Y-84228571D01*
X139165071Y-84771429D02*
X139165071Y-85142857D01*
X139165071Y-85142857D02*
X139393642Y-84942857D01*
X139393642Y-84942857D02*
X139393642Y-85028572D01*
X139393642Y-85028572D02*
X139422214Y-85085715D01*
X139422214Y-85085715D02*
X139450785Y-85114286D01*
X139450785Y-85114286D02*
X139507928Y-85142857D01*
X139507928Y-85142857D02*
X139650785Y-85142857D01*
X139650785Y-85142857D02*
X139707928Y-85114286D01*
X139707928Y-85114286D02*
X139736500Y-85085715D01*
X139736500Y-85085715D02*
X139765071Y-85028572D01*
X139765071Y-85028572D02*
X139765071Y-84857143D01*
X139765071Y-84857143D02*
X139736500Y-84800000D01*
X139736500Y-84800000D02*
X139707928Y-84771429D01*
X111171428Y-43220428D02*
X111200000Y-43249000D01*
X111200000Y-43249000D02*
X111285714Y-43277571D01*
X111285714Y-43277571D02*
X111342857Y-43277571D01*
X111342857Y-43277571D02*
X111428571Y-43249000D01*
X111428571Y-43249000D02*
X111485714Y-43191857D01*
X111485714Y-43191857D02*
X111514285Y-43134714D01*
X111514285Y-43134714D02*
X111542857Y-43020428D01*
X111542857Y-43020428D02*
X111542857Y-42934714D01*
X111542857Y-42934714D02*
X111514285Y-42820428D01*
X111514285Y-42820428D02*
X111485714Y-42763285D01*
X111485714Y-42763285D02*
X111428571Y-42706142D01*
X111428571Y-42706142D02*
X111342857Y-42677571D01*
X111342857Y-42677571D02*
X111285714Y-42677571D01*
X111285714Y-42677571D02*
X111200000Y-42706142D01*
X111200000Y-42706142D02*
X111171428Y-42734714D01*
X110600000Y-43277571D02*
X110942857Y-43277571D01*
X110771428Y-43277571D02*
X110771428Y-42677571D01*
X110771428Y-42677571D02*
X110828571Y-42763285D01*
X110828571Y-42763285D02*
X110885714Y-42820428D01*
X110885714Y-42820428D02*
X110942857Y-42849000D01*
X110228571Y-42677571D02*
X110171428Y-42677571D01*
X110171428Y-42677571D02*
X110114285Y-42706142D01*
X110114285Y-42706142D02*
X110085714Y-42734714D01*
X110085714Y-42734714D02*
X110057142Y-42791857D01*
X110057142Y-42791857D02*
X110028571Y-42906142D01*
X110028571Y-42906142D02*
X110028571Y-43049000D01*
X110028571Y-43049000D02*
X110057142Y-43163285D01*
X110057142Y-43163285D02*
X110085714Y-43220428D01*
X110085714Y-43220428D02*
X110114285Y-43249000D01*
X110114285Y-43249000D02*
X110171428Y-43277571D01*
X110171428Y-43277571D02*
X110228571Y-43277571D01*
X110228571Y-43277571D02*
X110285714Y-43249000D01*
X110285714Y-43249000D02*
X110314285Y-43220428D01*
X110314285Y-43220428D02*
X110342856Y-43163285D01*
X110342856Y-43163285D02*
X110371428Y-43049000D01*
X110371428Y-43049000D02*
X110371428Y-42906142D01*
X110371428Y-42906142D02*
X110342856Y-42791857D01*
X110342856Y-42791857D02*
X110314285Y-42734714D01*
X110314285Y-42734714D02*
X110285714Y-42706142D01*
X110285714Y-42706142D02*
X110228571Y-42677571D01*
X109799999Y-42734714D02*
X109771427Y-42706142D01*
X109771427Y-42706142D02*
X109714285Y-42677571D01*
X109714285Y-42677571D02*
X109571427Y-42677571D01*
X109571427Y-42677571D02*
X109514285Y-42706142D01*
X109514285Y-42706142D02*
X109485713Y-42734714D01*
X109485713Y-42734714D02*
X109457142Y-42791857D01*
X109457142Y-42791857D02*
X109457142Y-42849000D01*
X109457142Y-42849000D02*
X109485713Y-42934714D01*
X109485713Y-42934714D02*
X109828570Y-43277571D01*
X109828570Y-43277571D02*
X109457142Y-43277571D01*
X136958928Y-112150428D02*
X136987500Y-112179000D01*
X136987500Y-112179000D02*
X137073214Y-112207571D01*
X137073214Y-112207571D02*
X137130357Y-112207571D01*
X137130357Y-112207571D02*
X137216071Y-112179000D01*
X137216071Y-112179000D02*
X137273214Y-112121857D01*
X137273214Y-112121857D02*
X137301785Y-112064714D01*
X137301785Y-112064714D02*
X137330357Y-111950428D01*
X137330357Y-111950428D02*
X137330357Y-111864714D01*
X137330357Y-111864714D02*
X137301785Y-111750428D01*
X137301785Y-111750428D02*
X137273214Y-111693285D01*
X137273214Y-111693285D02*
X137216071Y-111636142D01*
X137216071Y-111636142D02*
X137130357Y-111607571D01*
X137130357Y-111607571D02*
X137073214Y-111607571D01*
X137073214Y-111607571D02*
X136987500Y-111636142D01*
X136987500Y-111636142D02*
X136958928Y-111664714D01*
X136730357Y-111664714D02*
X136701785Y-111636142D01*
X136701785Y-111636142D02*
X136644643Y-111607571D01*
X136644643Y-111607571D02*
X136501785Y-111607571D01*
X136501785Y-111607571D02*
X136444643Y-111636142D01*
X136444643Y-111636142D02*
X136416071Y-111664714D01*
X136416071Y-111664714D02*
X136387500Y-111721857D01*
X136387500Y-111721857D02*
X136387500Y-111779000D01*
X136387500Y-111779000D02*
X136416071Y-111864714D01*
X136416071Y-111864714D02*
X136758928Y-112207571D01*
X136758928Y-112207571D02*
X136387500Y-112207571D01*
X136016071Y-111607571D02*
X135958928Y-111607571D01*
X135958928Y-111607571D02*
X135901785Y-111636142D01*
X135901785Y-111636142D02*
X135873214Y-111664714D01*
X135873214Y-111664714D02*
X135844642Y-111721857D01*
X135844642Y-111721857D02*
X135816071Y-111836142D01*
X135816071Y-111836142D02*
X135816071Y-111979000D01*
X135816071Y-111979000D02*
X135844642Y-112093285D01*
X135844642Y-112093285D02*
X135873214Y-112150428D01*
X135873214Y-112150428D02*
X135901785Y-112179000D01*
X135901785Y-112179000D02*
X135958928Y-112207571D01*
X135958928Y-112207571D02*
X136016071Y-112207571D01*
X136016071Y-112207571D02*
X136073214Y-112179000D01*
X136073214Y-112179000D02*
X136101785Y-112150428D01*
X136101785Y-112150428D02*
X136130356Y-112093285D01*
X136130356Y-112093285D02*
X136158928Y-111979000D01*
X136158928Y-111979000D02*
X136158928Y-111836142D01*
X136158928Y-111836142D02*
X136130356Y-111721857D01*
X136130356Y-111721857D02*
X136101785Y-111664714D01*
X136101785Y-111664714D02*
X136073214Y-111636142D01*
X136073214Y-111636142D02*
X136016071Y-111607571D01*
X135587499Y-111664714D02*
X135558927Y-111636142D01*
X135558927Y-111636142D02*
X135501785Y-111607571D01*
X135501785Y-111607571D02*
X135358927Y-111607571D01*
X135358927Y-111607571D02*
X135301785Y-111636142D01*
X135301785Y-111636142D02*
X135273213Y-111664714D01*
X135273213Y-111664714D02*
X135244642Y-111721857D01*
X135244642Y-111721857D02*
X135244642Y-111779000D01*
X135244642Y-111779000D02*
X135273213Y-111864714D01*
X135273213Y-111864714D02*
X135616070Y-112207571D01*
X135616070Y-112207571D02*
X135244642Y-112207571D01*
X133028571Y-60477571D02*
X133028571Y-60963285D01*
X133028571Y-60963285D02*
X133000000Y-61020428D01*
X133000000Y-61020428D02*
X132971429Y-61049000D01*
X132971429Y-61049000D02*
X132914286Y-61077571D01*
X132914286Y-61077571D02*
X132800000Y-61077571D01*
X132800000Y-61077571D02*
X132742857Y-61049000D01*
X132742857Y-61049000D02*
X132714286Y-61020428D01*
X132714286Y-61020428D02*
X132685714Y-60963285D01*
X132685714Y-60963285D02*
X132685714Y-60477571D01*
X132457143Y-60477571D02*
X132085715Y-60477571D01*
X132085715Y-60477571D02*
X132285715Y-60706142D01*
X132285715Y-60706142D02*
X132200000Y-60706142D01*
X132200000Y-60706142D02*
X132142858Y-60734714D01*
X132142858Y-60734714D02*
X132114286Y-60763285D01*
X132114286Y-60763285D02*
X132085715Y-60820428D01*
X132085715Y-60820428D02*
X132085715Y-60963285D01*
X132085715Y-60963285D02*
X132114286Y-61020428D01*
X132114286Y-61020428D02*
X132142858Y-61049000D01*
X132142858Y-61049000D02*
X132200000Y-61077571D01*
X132200000Y-61077571D02*
X132371429Y-61077571D01*
X132371429Y-61077571D02*
X132428572Y-61049000D01*
X132428572Y-61049000D02*
X132457143Y-61020428D01*
X131714286Y-60477571D02*
X131657143Y-60477571D01*
X131657143Y-60477571D02*
X131600000Y-60506142D01*
X131600000Y-60506142D02*
X131571429Y-60534714D01*
X131571429Y-60534714D02*
X131542857Y-60591857D01*
X131542857Y-60591857D02*
X131514286Y-60706142D01*
X131514286Y-60706142D02*
X131514286Y-60849000D01*
X131514286Y-60849000D02*
X131542857Y-60963285D01*
X131542857Y-60963285D02*
X131571429Y-61020428D01*
X131571429Y-61020428D02*
X131600000Y-61049000D01*
X131600000Y-61049000D02*
X131657143Y-61077571D01*
X131657143Y-61077571D02*
X131714286Y-61077571D01*
X131714286Y-61077571D02*
X131771429Y-61049000D01*
X131771429Y-61049000D02*
X131800000Y-61020428D01*
X131800000Y-61020428D02*
X131828571Y-60963285D01*
X131828571Y-60963285D02*
X131857143Y-60849000D01*
X131857143Y-60849000D02*
X131857143Y-60706142D01*
X131857143Y-60706142D02*
X131828571Y-60591857D01*
X131828571Y-60591857D02*
X131800000Y-60534714D01*
X131800000Y-60534714D02*
X131771429Y-60506142D01*
X131771429Y-60506142D02*
X131714286Y-60477571D01*
X131142857Y-60477571D02*
X131085714Y-60477571D01*
X131085714Y-60477571D02*
X131028571Y-60506142D01*
X131028571Y-60506142D02*
X131000000Y-60534714D01*
X131000000Y-60534714D02*
X130971428Y-60591857D01*
X130971428Y-60591857D02*
X130942857Y-60706142D01*
X130942857Y-60706142D02*
X130942857Y-60849000D01*
X130942857Y-60849000D02*
X130971428Y-60963285D01*
X130971428Y-60963285D02*
X131000000Y-61020428D01*
X131000000Y-61020428D02*
X131028571Y-61049000D01*
X131028571Y-61049000D02*
X131085714Y-61077571D01*
X131085714Y-61077571D02*
X131142857Y-61077571D01*
X131142857Y-61077571D02*
X131200000Y-61049000D01*
X131200000Y-61049000D02*
X131228571Y-61020428D01*
X131228571Y-61020428D02*
X131257142Y-60963285D01*
X131257142Y-60963285D02*
X131285714Y-60849000D01*
X131285714Y-60849000D02*
X131285714Y-60706142D01*
X131285714Y-60706142D02*
X131257142Y-60591857D01*
X131257142Y-60591857D02*
X131228571Y-60534714D01*
X131228571Y-60534714D02*
X131200000Y-60506142D01*
X131200000Y-60506142D02*
X131142857Y-60477571D01*
X141777571Y-93928571D02*
X141491857Y-93728571D01*
X141777571Y-93585714D02*
X141177571Y-93585714D01*
X141177571Y-93585714D02*
X141177571Y-93814285D01*
X141177571Y-93814285D02*
X141206142Y-93871428D01*
X141206142Y-93871428D02*
X141234714Y-93899999D01*
X141234714Y-93899999D02*
X141291857Y-93928571D01*
X141291857Y-93928571D02*
X141377571Y-93928571D01*
X141377571Y-93928571D02*
X141434714Y-93899999D01*
X141434714Y-93899999D02*
X141463285Y-93871428D01*
X141463285Y-93871428D02*
X141491857Y-93814285D01*
X141491857Y-93814285D02*
X141491857Y-93585714D01*
X141234714Y-94157142D02*
X141206142Y-94185714D01*
X141206142Y-94185714D02*
X141177571Y-94242857D01*
X141177571Y-94242857D02*
X141177571Y-94385714D01*
X141177571Y-94385714D02*
X141206142Y-94442857D01*
X141206142Y-94442857D02*
X141234714Y-94471428D01*
X141234714Y-94471428D02*
X141291857Y-94499999D01*
X141291857Y-94499999D02*
X141349000Y-94499999D01*
X141349000Y-94499999D02*
X141434714Y-94471428D01*
X141434714Y-94471428D02*
X141777571Y-94128571D01*
X141777571Y-94128571D02*
X141777571Y-94499999D01*
X141777571Y-95071428D02*
X141777571Y-94728571D01*
X141777571Y-94900000D02*
X141177571Y-94900000D01*
X141177571Y-94900000D02*
X141263285Y-94842857D01*
X141263285Y-94842857D02*
X141320428Y-94785714D01*
X141320428Y-94785714D02*
X141349000Y-94728571D01*
X141234714Y-95300000D02*
X141206142Y-95328572D01*
X141206142Y-95328572D02*
X141177571Y-95385715D01*
X141177571Y-95385715D02*
X141177571Y-95528572D01*
X141177571Y-95528572D02*
X141206142Y-95585715D01*
X141206142Y-95585715D02*
X141234714Y-95614286D01*
X141234714Y-95614286D02*
X141291857Y-95642857D01*
X141291857Y-95642857D02*
X141349000Y-95642857D01*
X141349000Y-95642857D02*
X141434714Y-95614286D01*
X141434714Y-95614286D02*
X141777571Y-95271429D01*
X141777571Y-95271429D02*
X141777571Y-95642857D01*
X136871428Y-101720428D02*
X136900000Y-101749000D01*
X136900000Y-101749000D02*
X136985714Y-101777571D01*
X136985714Y-101777571D02*
X137042857Y-101777571D01*
X137042857Y-101777571D02*
X137128571Y-101749000D01*
X137128571Y-101749000D02*
X137185714Y-101691857D01*
X137185714Y-101691857D02*
X137214285Y-101634714D01*
X137214285Y-101634714D02*
X137242857Y-101520428D01*
X137242857Y-101520428D02*
X137242857Y-101434714D01*
X137242857Y-101434714D02*
X137214285Y-101320428D01*
X137214285Y-101320428D02*
X137185714Y-101263285D01*
X137185714Y-101263285D02*
X137128571Y-101206142D01*
X137128571Y-101206142D02*
X137042857Y-101177571D01*
X137042857Y-101177571D02*
X136985714Y-101177571D01*
X136985714Y-101177571D02*
X136900000Y-101206142D01*
X136900000Y-101206142D02*
X136871428Y-101234714D01*
X136642857Y-101234714D02*
X136614285Y-101206142D01*
X136614285Y-101206142D02*
X136557143Y-101177571D01*
X136557143Y-101177571D02*
X136414285Y-101177571D01*
X136414285Y-101177571D02*
X136357143Y-101206142D01*
X136357143Y-101206142D02*
X136328571Y-101234714D01*
X136328571Y-101234714D02*
X136300000Y-101291857D01*
X136300000Y-101291857D02*
X136300000Y-101349000D01*
X136300000Y-101349000D02*
X136328571Y-101434714D01*
X136328571Y-101434714D02*
X136671428Y-101777571D01*
X136671428Y-101777571D02*
X136300000Y-101777571D01*
X135928571Y-101177571D02*
X135871428Y-101177571D01*
X135871428Y-101177571D02*
X135814285Y-101206142D01*
X135814285Y-101206142D02*
X135785714Y-101234714D01*
X135785714Y-101234714D02*
X135757142Y-101291857D01*
X135757142Y-101291857D02*
X135728571Y-101406142D01*
X135728571Y-101406142D02*
X135728571Y-101549000D01*
X135728571Y-101549000D02*
X135757142Y-101663285D01*
X135757142Y-101663285D02*
X135785714Y-101720428D01*
X135785714Y-101720428D02*
X135814285Y-101749000D01*
X135814285Y-101749000D02*
X135871428Y-101777571D01*
X135871428Y-101777571D02*
X135928571Y-101777571D01*
X135928571Y-101777571D02*
X135985714Y-101749000D01*
X135985714Y-101749000D02*
X136014285Y-101720428D01*
X136014285Y-101720428D02*
X136042856Y-101663285D01*
X136042856Y-101663285D02*
X136071428Y-101549000D01*
X136071428Y-101549000D02*
X136071428Y-101406142D01*
X136071428Y-101406142D02*
X136042856Y-101291857D01*
X136042856Y-101291857D02*
X136014285Y-101234714D01*
X136014285Y-101234714D02*
X135985714Y-101206142D01*
X135985714Y-101206142D02*
X135928571Y-101177571D01*
X135157142Y-101777571D02*
X135499999Y-101777571D01*
X135328570Y-101777571D02*
X135328570Y-101177571D01*
X135328570Y-101177571D02*
X135385713Y-101263285D01*
X135385713Y-101263285D02*
X135442856Y-101320428D01*
X135442856Y-101320428D02*
X135499999Y-101349000D01*
X132758928Y-85320428D02*
X132787500Y-85349000D01*
X132787500Y-85349000D02*
X132873214Y-85377571D01*
X132873214Y-85377571D02*
X132930357Y-85377571D01*
X132930357Y-85377571D02*
X133016071Y-85349000D01*
X133016071Y-85349000D02*
X133073214Y-85291857D01*
X133073214Y-85291857D02*
X133101785Y-85234714D01*
X133101785Y-85234714D02*
X133130357Y-85120428D01*
X133130357Y-85120428D02*
X133130357Y-85034714D01*
X133130357Y-85034714D02*
X133101785Y-84920428D01*
X133101785Y-84920428D02*
X133073214Y-84863285D01*
X133073214Y-84863285D02*
X133016071Y-84806142D01*
X133016071Y-84806142D02*
X132930357Y-84777571D01*
X132930357Y-84777571D02*
X132873214Y-84777571D01*
X132873214Y-84777571D02*
X132787500Y-84806142D01*
X132787500Y-84806142D02*
X132758928Y-84834714D01*
X132530357Y-84834714D02*
X132501785Y-84806142D01*
X132501785Y-84806142D02*
X132444643Y-84777571D01*
X132444643Y-84777571D02*
X132301785Y-84777571D01*
X132301785Y-84777571D02*
X132244643Y-84806142D01*
X132244643Y-84806142D02*
X132216071Y-84834714D01*
X132216071Y-84834714D02*
X132187500Y-84891857D01*
X132187500Y-84891857D02*
X132187500Y-84949000D01*
X132187500Y-84949000D02*
X132216071Y-85034714D01*
X132216071Y-85034714D02*
X132558928Y-85377571D01*
X132558928Y-85377571D02*
X132187500Y-85377571D01*
X131816071Y-84777571D02*
X131758928Y-84777571D01*
X131758928Y-84777571D02*
X131701785Y-84806142D01*
X131701785Y-84806142D02*
X131673214Y-84834714D01*
X131673214Y-84834714D02*
X131644642Y-84891857D01*
X131644642Y-84891857D02*
X131616071Y-85006142D01*
X131616071Y-85006142D02*
X131616071Y-85149000D01*
X131616071Y-85149000D02*
X131644642Y-85263285D01*
X131644642Y-85263285D02*
X131673214Y-85320428D01*
X131673214Y-85320428D02*
X131701785Y-85349000D01*
X131701785Y-85349000D02*
X131758928Y-85377571D01*
X131758928Y-85377571D02*
X131816071Y-85377571D01*
X131816071Y-85377571D02*
X131873214Y-85349000D01*
X131873214Y-85349000D02*
X131901785Y-85320428D01*
X131901785Y-85320428D02*
X131930356Y-85263285D01*
X131930356Y-85263285D02*
X131958928Y-85149000D01*
X131958928Y-85149000D02*
X131958928Y-85006142D01*
X131958928Y-85006142D02*
X131930356Y-84891857D01*
X131930356Y-84891857D02*
X131901785Y-84834714D01*
X131901785Y-84834714D02*
X131873214Y-84806142D01*
X131873214Y-84806142D02*
X131816071Y-84777571D01*
X131244642Y-84777571D02*
X131187499Y-84777571D01*
X131187499Y-84777571D02*
X131130356Y-84806142D01*
X131130356Y-84806142D02*
X131101785Y-84834714D01*
X131101785Y-84834714D02*
X131073213Y-84891857D01*
X131073213Y-84891857D02*
X131044642Y-85006142D01*
X131044642Y-85006142D02*
X131044642Y-85149000D01*
X131044642Y-85149000D02*
X131073213Y-85263285D01*
X131073213Y-85263285D02*
X131101785Y-85320428D01*
X131101785Y-85320428D02*
X131130356Y-85349000D01*
X131130356Y-85349000D02*
X131187499Y-85377571D01*
X131187499Y-85377571D02*
X131244642Y-85377571D01*
X131244642Y-85377571D02*
X131301785Y-85349000D01*
X131301785Y-85349000D02*
X131330356Y-85320428D01*
X131330356Y-85320428D02*
X131358927Y-85263285D01*
X131358927Y-85263285D02*
X131387499Y-85149000D01*
X131387499Y-85149000D02*
X131387499Y-85006142D01*
X131387499Y-85006142D02*
X131358927Y-84891857D01*
X131358927Y-84891857D02*
X131330356Y-84834714D01*
X131330356Y-84834714D02*
X131301785Y-84806142D01*
X131301785Y-84806142D02*
X131244642Y-84777571D01*
X125165071Y-94603571D02*
X124879357Y-94403571D01*
X125165071Y-94260714D02*
X124565071Y-94260714D01*
X124565071Y-94260714D02*
X124565071Y-94489285D01*
X124565071Y-94489285D02*
X124593642Y-94546428D01*
X124593642Y-94546428D02*
X124622214Y-94574999D01*
X124622214Y-94574999D02*
X124679357Y-94603571D01*
X124679357Y-94603571D02*
X124765071Y-94603571D01*
X124765071Y-94603571D02*
X124822214Y-94574999D01*
X124822214Y-94574999D02*
X124850785Y-94546428D01*
X124850785Y-94546428D02*
X124879357Y-94489285D01*
X124879357Y-94489285D02*
X124879357Y-94260714D01*
X124622214Y-94832142D02*
X124593642Y-94860714D01*
X124593642Y-94860714D02*
X124565071Y-94917857D01*
X124565071Y-94917857D02*
X124565071Y-95060714D01*
X124565071Y-95060714D02*
X124593642Y-95117857D01*
X124593642Y-95117857D02*
X124622214Y-95146428D01*
X124622214Y-95146428D02*
X124679357Y-95174999D01*
X124679357Y-95174999D02*
X124736500Y-95174999D01*
X124736500Y-95174999D02*
X124822214Y-95146428D01*
X124822214Y-95146428D02*
X125165071Y-94803571D01*
X125165071Y-94803571D02*
X125165071Y-95174999D01*
X124622214Y-95403571D02*
X124593642Y-95432143D01*
X124593642Y-95432143D02*
X124565071Y-95489286D01*
X124565071Y-95489286D02*
X124565071Y-95632143D01*
X124565071Y-95632143D02*
X124593642Y-95689286D01*
X124593642Y-95689286D02*
X124622214Y-95717857D01*
X124622214Y-95717857D02*
X124679357Y-95746428D01*
X124679357Y-95746428D02*
X124736500Y-95746428D01*
X124736500Y-95746428D02*
X124822214Y-95717857D01*
X124822214Y-95717857D02*
X125165071Y-95375000D01*
X125165071Y-95375000D02*
X125165071Y-95746428D01*
X124565071Y-95946429D02*
X124565071Y-96346429D01*
X124565071Y-96346429D02*
X125165071Y-96089286D01*
X141765071Y-83428571D02*
X141479357Y-83228571D01*
X141765071Y-83085714D02*
X141165071Y-83085714D01*
X141165071Y-83085714D02*
X141165071Y-83314285D01*
X141165071Y-83314285D02*
X141193642Y-83371428D01*
X141193642Y-83371428D02*
X141222214Y-83399999D01*
X141222214Y-83399999D02*
X141279357Y-83428571D01*
X141279357Y-83428571D02*
X141365071Y-83428571D01*
X141365071Y-83428571D02*
X141422214Y-83399999D01*
X141422214Y-83399999D02*
X141450785Y-83371428D01*
X141450785Y-83371428D02*
X141479357Y-83314285D01*
X141479357Y-83314285D02*
X141479357Y-83085714D01*
X141222214Y-83657142D02*
X141193642Y-83685714D01*
X141193642Y-83685714D02*
X141165071Y-83742857D01*
X141165071Y-83742857D02*
X141165071Y-83885714D01*
X141165071Y-83885714D02*
X141193642Y-83942857D01*
X141193642Y-83942857D02*
X141222214Y-83971428D01*
X141222214Y-83971428D02*
X141279357Y-83999999D01*
X141279357Y-83999999D02*
X141336500Y-83999999D01*
X141336500Y-83999999D02*
X141422214Y-83971428D01*
X141422214Y-83971428D02*
X141765071Y-83628571D01*
X141765071Y-83628571D02*
X141765071Y-83999999D01*
X141765071Y-84571428D02*
X141765071Y-84228571D01*
X141765071Y-84400000D02*
X141165071Y-84400000D01*
X141165071Y-84400000D02*
X141250785Y-84342857D01*
X141250785Y-84342857D02*
X141307928Y-84285714D01*
X141307928Y-84285714D02*
X141336500Y-84228571D01*
X141365071Y-85085715D02*
X141765071Y-85085715D01*
X141136500Y-84942857D02*
X141565071Y-84800000D01*
X141565071Y-84800000D02*
X141565071Y-85171429D01*
X127177571Y-83328571D02*
X126891857Y-83128571D01*
X127177571Y-82985714D02*
X126577571Y-82985714D01*
X126577571Y-82985714D02*
X126577571Y-83214285D01*
X126577571Y-83214285D02*
X126606142Y-83271428D01*
X126606142Y-83271428D02*
X126634714Y-83299999D01*
X126634714Y-83299999D02*
X126691857Y-83328571D01*
X126691857Y-83328571D02*
X126777571Y-83328571D01*
X126777571Y-83328571D02*
X126834714Y-83299999D01*
X126834714Y-83299999D02*
X126863285Y-83271428D01*
X126863285Y-83271428D02*
X126891857Y-83214285D01*
X126891857Y-83214285D02*
X126891857Y-82985714D01*
X126634714Y-83557142D02*
X126606142Y-83585714D01*
X126606142Y-83585714D02*
X126577571Y-83642857D01*
X126577571Y-83642857D02*
X126577571Y-83785714D01*
X126577571Y-83785714D02*
X126606142Y-83842857D01*
X126606142Y-83842857D02*
X126634714Y-83871428D01*
X126634714Y-83871428D02*
X126691857Y-83899999D01*
X126691857Y-83899999D02*
X126749000Y-83899999D01*
X126749000Y-83899999D02*
X126834714Y-83871428D01*
X126834714Y-83871428D02*
X127177571Y-83528571D01*
X127177571Y-83528571D02*
X127177571Y-83899999D01*
X126634714Y-84128571D02*
X126606142Y-84157143D01*
X126606142Y-84157143D02*
X126577571Y-84214286D01*
X126577571Y-84214286D02*
X126577571Y-84357143D01*
X126577571Y-84357143D02*
X126606142Y-84414286D01*
X126606142Y-84414286D02*
X126634714Y-84442857D01*
X126634714Y-84442857D02*
X126691857Y-84471428D01*
X126691857Y-84471428D02*
X126749000Y-84471428D01*
X126749000Y-84471428D02*
X126834714Y-84442857D01*
X126834714Y-84442857D02*
X127177571Y-84100000D01*
X127177571Y-84100000D02*
X127177571Y-84471428D01*
X126834714Y-84814286D02*
X126806142Y-84757143D01*
X126806142Y-84757143D02*
X126777571Y-84728572D01*
X126777571Y-84728572D02*
X126720428Y-84700000D01*
X126720428Y-84700000D02*
X126691857Y-84700000D01*
X126691857Y-84700000D02*
X126634714Y-84728572D01*
X126634714Y-84728572D02*
X126606142Y-84757143D01*
X126606142Y-84757143D02*
X126577571Y-84814286D01*
X126577571Y-84814286D02*
X126577571Y-84928572D01*
X126577571Y-84928572D02*
X126606142Y-84985715D01*
X126606142Y-84985715D02*
X126634714Y-85014286D01*
X126634714Y-85014286D02*
X126691857Y-85042857D01*
X126691857Y-85042857D02*
X126720428Y-85042857D01*
X126720428Y-85042857D02*
X126777571Y-85014286D01*
X126777571Y-85014286D02*
X126806142Y-84985715D01*
X126806142Y-84985715D02*
X126834714Y-84928572D01*
X126834714Y-84928572D02*
X126834714Y-84814286D01*
X126834714Y-84814286D02*
X126863285Y-84757143D01*
X126863285Y-84757143D02*
X126891857Y-84728572D01*
X126891857Y-84728572D02*
X126949000Y-84700000D01*
X126949000Y-84700000D02*
X127063285Y-84700000D01*
X127063285Y-84700000D02*
X127120428Y-84728572D01*
X127120428Y-84728572D02*
X127149000Y-84757143D01*
X127149000Y-84757143D02*
X127177571Y-84814286D01*
X127177571Y-84814286D02*
X127177571Y-84928572D01*
X127177571Y-84928572D02*
X127149000Y-84985715D01*
X127149000Y-84985715D02*
X127120428Y-85014286D01*
X127120428Y-85014286D02*
X127063285Y-85042857D01*
X127063285Y-85042857D02*
X126949000Y-85042857D01*
X126949000Y-85042857D02*
X126891857Y-85014286D01*
X126891857Y-85014286D02*
X126863285Y-84985715D01*
X126863285Y-84985715D02*
X126834714Y-84928572D01*
X117871428Y-48377571D02*
X118071428Y-48091857D01*
X118214285Y-48377571D02*
X118214285Y-47777571D01*
X118214285Y-47777571D02*
X117985714Y-47777571D01*
X117985714Y-47777571D02*
X117928571Y-47806142D01*
X117928571Y-47806142D02*
X117900000Y-47834714D01*
X117900000Y-47834714D02*
X117871428Y-47891857D01*
X117871428Y-47891857D02*
X117871428Y-47977571D01*
X117871428Y-47977571D02*
X117900000Y-48034714D01*
X117900000Y-48034714D02*
X117928571Y-48063285D01*
X117928571Y-48063285D02*
X117985714Y-48091857D01*
X117985714Y-48091857D02*
X118214285Y-48091857D01*
X117300000Y-48377571D02*
X117642857Y-48377571D01*
X117471428Y-48377571D02*
X117471428Y-47777571D01*
X117471428Y-47777571D02*
X117528571Y-47863285D01*
X117528571Y-47863285D02*
X117585714Y-47920428D01*
X117585714Y-47920428D02*
X117642857Y-47949000D01*
X116928571Y-47777571D02*
X116871428Y-47777571D01*
X116871428Y-47777571D02*
X116814285Y-47806142D01*
X116814285Y-47806142D02*
X116785714Y-47834714D01*
X116785714Y-47834714D02*
X116757142Y-47891857D01*
X116757142Y-47891857D02*
X116728571Y-48006142D01*
X116728571Y-48006142D02*
X116728571Y-48149000D01*
X116728571Y-48149000D02*
X116757142Y-48263285D01*
X116757142Y-48263285D02*
X116785714Y-48320428D01*
X116785714Y-48320428D02*
X116814285Y-48349000D01*
X116814285Y-48349000D02*
X116871428Y-48377571D01*
X116871428Y-48377571D02*
X116928571Y-48377571D01*
X116928571Y-48377571D02*
X116985714Y-48349000D01*
X116985714Y-48349000D02*
X117014285Y-48320428D01*
X117014285Y-48320428D02*
X117042856Y-48263285D01*
X117042856Y-48263285D02*
X117071428Y-48149000D01*
X117071428Y-48149000D02*
X117071428Y-48006142D01*
X117071428Y-48006142D02*
X117042856Y-47891857D01*
X117042856Y-47891857D02*
X117014285Y-47834714D01*
X117014285Y-47834714D02*
X116985714Y-47806142D01*
X116985714Y-47806142D02*
X116928571Y-47777571D01*
X116357142Y-47777571D02*
X116299999Y-47777571D01*
X116299999Y-47777571D02*
X116242856Y-47806142D01*
X116242856Y-47806142D02*
X116214285Y-47834714D01*
X116214285Y-47834714D02*
X116185713Y-47891857D01*
X116185713Y-47891857D02*
X116157142Y-48006142D01*
X116157142Y-48006142D02*
X116157142Y-48149000D01*
X116157142Y-48149000D02*
X116185713Y-48263285D01*
X116185713Y-48263285D02*
X116214285Y-48320428D01*
X116214285Y-48320428D02*
X116242856Y-48349000D01*
X116242856Y-48349000D02*
X116299999Y-48377571D01*
X116299999Y-48377571D02*
X116357142Y-48377571D01*
X116357142Y-48377571D02*
X116414285Y-48349000D01*
X116414285Y-48349000D02*
X116442856Y-48320428D01*
X116442856Y-48320428D02*
X116471427Y-48263285D01*
X116471427Y-48263285D02*
X116499999Y-48149000D01*
X116499999Y-48149000D02*
X116499999Y-48006142D01*
X116499999Y-48006142D02*
X116471427Y-47891857D01*
X116471427Y-47891857D02*
X116442856Y-47834714D01*
X116442856Y-47834714D02*
X116414285Y-47806142D01*
X116414285Y-47806142D02*
X116357142Y-47777571D01*
X136628571Y-87177571D02*
X136628571Y-87663285D01*
X136628571Y-87663285D02*
X136600000Y-87720428D01*
X136600000Y-87720428D02*
X136571429Y-87749000D01*
X136571429Y-87749000D02*
X136514286Y-87777571D01*
X136514286Y-87777571D02*
X136400000Y-87777571D01*
X136400000Y-87777571D02*
X136342857Y-87749000D01*
X136342857Y-87749000D02*
X136314286Y-87720428D01*
X136314286Y-87720428D02*
X136285714Y-87663285D01*
X136285714Y-87663285D02*
X136285714Y-87177571D01*
X136028572Y-87234714D02*
X136000000Y-87206142D01*
X136000000Y-87206142D02*
X135942858Y-87177571D01*
X135942858Y-87177571D02*
X135800000Y-87177571D01*
X135800000Y-87177571D02*
X135742858Y-87206142D01*
X135742858Y-87206142D02*
X135714286Y-87234714D01*
X135714286Y-87234714D02*
X135685715Y-87291857D01*
X135685715Y-87291857D02*
X135685715Y-87349000D01*
X135685715Y-87349000D02*
X135714286Y-87434714D01*
X135714286Y-87434714D02*
X136057143Y-87777571D01*
X136057143Y-87777571D02*
X135685715Y-87777571D01*
X135314286Y-87177571D02*
X135257143Y-87177571D01*
X135257143Y-87177571D02*
X135200000Y-87206142D01*
X135200000Y-87206142D02*
X135171429Y-87234714D01*
X135171429Y-87234714D02*
X135142857Y-87291857D01*
X135142857Y-87291857D02*
X135114286Y-87406142D01*
X135114286Y-87406142D02*
X135114286Y-87549000D01*
X135114286Y-87549000D02*
X135142857Y-87663285D01*
X135142857Y-87663285D02*
X135171429Y-87720428D01*
X135171429Y-87720428D02*
X135200000Y-87749000D01*
X135200000Y-87749000D02*
X135257143Y-87777571D01*
X135257143Y-87777571D02*
X135314286Y-87777571D01*
X135314286Y-87777571D02*
X135371429Y-87749000D01*
X135371429Y-87749000D02*
X135400000Y-87720428D01*
X135400000Y-87720428D02*
X135428571Y-87663285D01*
X135428571Y-87663285D02*
X135457143Y-87549000D01*
X135457143Y-87549000D02*
X135457143Y-87406142D01*
X135457143Y-87406142D02*
X135428571Y-87291857D01*
X135428571Y-87291857D02*
X135400000Y-87234714D01*
X135400000Y-87234714D02*
X135371429Y-87206142D01*
X135371429Y-87206142D02*
X135314286Y-87177571D01*
X134742857Y-87177571D02*
X134685714Y-87177571D01*
X134685714Y-87177571D02*
X134628571Y-87206142D01*
X134628571Y-87206142D02*
X134600000Y-87234714D01*
X134600000Y-87234714D02*
X134571428Y-87291857D01*
X134571428Y-87291857D02*
X134542857Y-87406142D01*
X134542857Y-87406142D02*
X134542857Y-87549000D01*
X134542857Y-87549000D02*
X134571428Y-87663285D01*
X134571428Y-87663285D02*
X134600000Y-87720428D01*
X134600000Y-87720428D02*
X134628571Y-87749000D01*
X134628571Y-87749000D02*
X134685714Y-87777571D01*
X134685714Y-87777571D02*
X134742857Y-87777571D01*
X134742857Y-87777571D02*
X134800000Y-87749000D01*
X134800000Y-87749000D02*
X134828571Y-87720428D01*
X134828571Y-87720428D02*
X134857142Y-87663285D01*
X134857142Y-87663285D02*
X134885714Y-87549000D01*
X134885714Y-87549000D02*
X134885714Y-87406142D01*
X134885714Y-87406142D02*
X134857142Y-87291857D01*
X134857142Y-87291857D02*
X134828571Y-87234714D01*
X134828571Y-87234714D02*
X134800000Y-87206142D01*
X134800000Y-87206142D02*
X134742857Y-87177571D01*
X125077571Y-83328571D02*
X124791857Y-83128571D01*
X125077571Y-82985714D02*
X124477571Y-82985714D01*
X124477571Y-82985714D02*
X124477571Y-83214285D01*
X124477571Y-83214285D02*
X124506142Y-83271428D01*
X124506142Y-83271428D02*
X124534714Y-83299999D01*
X124534714Y-83299999D02*
X124591857Y-83328571D01*
X124591857Y-83328571D02*
X124677571Y-83328571D01*
X124677571Y-83328571D02*
X124734714Y-83299999D01*
X124734714Y-83299999D02*
X124763285Y-83271428D01*
X124763285Y-83271428D02*
X124791857Y-83214285D01*
X124791857Y-83214285D02*
X124791857Y-82985714D01*
X124534714Y-83557142D02*
X124506142Y-83585714D01*
X124506142Y-83585714D02*
X124477571Y-83642857D01*
X124477571Y-83642857D02*
X124477571Y-83785714D01*
X124477571Y-83785714D02*
X124506142Y-83842857D01*
X124506142Y-83842857D02*
X124534714Y-83871428D01*
X124534714Y-83871428D02*
X124591857Y-83899999D01*
X124591857Y-83899999D02*
X124649000Y-83899999D01*
X124649000Y-83899999D02*
X124734714Y-83871428D01*
X124734714Y-83871428D02*
X125077571Y-83528571D01*
X125077571Y-83528571D02*
X125077571Y-83899999D01*
X124534714Y-84128571D02*
X124506142Y-84157143D01*
X124506142Y-84157143D02*
X124477571Y-84214286D01*
X124477571Y-84214286D02*
X124477571Y-84357143D01*
X124477571Y-84357143D02*
X124506142Y-84414286D01*
X124506142Y-84414286D02*
X124534714Y-84442857D01*
X124534714Y-84442857D02*
X124591857Y-84471428D01*
X124591857Y-84471428D02*
X124649000Y-84471428D01*
X124649000Y-84471428D02*
X124734714Y-84442857D01*
X124734714Y-84442857D02*
X125077571Y-84100000D01*
X125077571Y-84100000D02*
X125077571Y-84471428D01*
X125077571Y-84757143D02*
X125077571Y-84871429D01*
X125077571Y-84871429D02*
X125049000Y-84928572D01*
X125049000Y-84928572D02*
X125020428Y-84957143D01*
X125020428Y-84957143D02*
X124934714Y-85014286D01*
X124934714Y-85014286D02*
X124820428Y-85042857D01*
X124820428Y-85042857D02*
X124591857Y-85042857D01*
X124591857Y-85042857D02*
X124534714Y-85014286D01*
X124534714Y-85014286D02*
X124506142Y-84985715D01*
X124506142Y-84985715D02*
X124477571Y-84928572D01*
X124477571Y-84928572D02*
X124477571Y-84814286D01*
X124477571Y-84814286D02*
X124506142Y-84757143D01*
X124506142Y-84757143D02*
X124534714Y-84728572D01*
X124534714Y-84728572D02*
X124591857Y-84700000D01*
X124591857Y-84700000D02*
X124734714Y-84700000D01*
X124734714Y-84700000D02*
X124791857Y-84728572D01*
X124791857Y-84728572D02*
X124820428Y-84757143D01*
X124820428Y-84757143D02*
X124849000Y-84814286D01*
X124849000Y-84814286D02*
X124849000Y-84928572D01*
X124849000Y-84928572D02*
X124820428Y-84985715D01*
X124820428Y-84985715D02*
X124791857Y-85014286D01*
X124791857Y-85014286D02*
X124734714Y-85042857D01*
X139765071Y-93928571D02*
X139479357Y-93728571D01*
X139765071Y-93585714D02*
X139165071Y-93585714D01*
X139165071Y-93585714D02*
X139165071Y-93814285D01*
X139165071Y-93814285D02*
X139193642Y-93871428D01*
X139193642Y-93871428D02*
X139222214Y-93899999D01*
X139222214Y-93899999D02*
X139279357Y-93928571D01*
X139279357Y-93928571D02*
X139365071Y-93928571D01*
X139365071Y-93928571D02*
X139422214Y-93899999D01*
X139422214Y-93899999D02*
X139450785Y-93871428D01*
X139450785Y-93871428D02*
X139479357Y-93814285D01*
X139479357Y-93814285D02*
X139479357Y-93585714D01*
X139222214Y-94157142D02*
X139193642Y-94185714D01*
X139193642Y-94185714D02*
X139165071Y-94242857D01*
X139165071Y-94242857D02*
X139165071Y-94385714D01*
X139165071Y-94385714D02*
X139193642Y-94442857D01*
X139193642Y-94442857D02*
X139222214Y-94471428D01*
X139222214Y-94471428D02*
X139279357Y-94499999D01*
X139279357Y-94499999D02*
X139336500Y-94499999D01*
X139336500Y-94499999D02*
X139422214Y-94471428D01*
X139422214Y-94471428D02*
X139765071Y-94128571D01*
X139765071Y-94128571D02*
X139765071Y-94499999D01*
X139165071Y-94871428D02*
X139165071Y-94928571D01*
X139165071Y-94928571D02*
X139193642Y-94985714D01*
X139193642Y-94985714D02*
X139222214Y-95014286D01*
X139222214Y-95014286D02*
X139279357Y-95042857D01*
X139279357Y-95042857D02*
X139393642Y-95071428D01*
X139393642Y-95071428D02*
X139536500Y-95071428D01*
X139536500Y-95071428D02*
X139650785Y-95042857D01*
X139650785Y-95042857D02*
X139707928Y-95014286D01*
X139707928Y-95014286D02*
X139736500Y-94985714D01*
X139736500Y-94985714D02*
X139765071Y-94928571D01*
X139765071Y-94928571D02*
X139765071Y-94871428D01*
X139765071Y-94871428D02*
X139736500Y-94814286D01*
X139736500Y-94814286D02*
X139707928Y-94785714D01*
X139707928Y-94785714D02*
X139650785Y-94757143D01*
X139650785Y-94757143D02*
X139536500Y-94728571D01*
X139536500Y-94728571D02*
X139393642Y-94728571D01*
X139393642Y-94728571D02*
X139279357Y-94757143D01*
X139279357Y-94757143D02*
X139222214Y-94785714D01*
X139222214Y-94785714D02*
X139193642Y-94814286D01*
X139193642Y-94814286D02*
X139165071Y-94871428D01*
X139765071Y-95357143D02*
X139765071Y-95471429D01*
X139765071Y-95471429D02*
X139736500Y-95528572D01*
X139736500Y-95528572D02*
X139707928Y-95557143D01*
X139707928Y-95557143D02*
X139622214Y-95614286D01*
X139622214Y-95614286D02*
X139507928Y-95642857D01*
X139507928Y-95642857D02*
X139279357Y-95642857D01*
X139279357Y-95642857D02*
X139222214Y-95614286D01*
X139222214Y-95614286D02*
X139193642Y-95585715D01*
X139193642Y-95585715D02*
X139165071Y-95528572D01*
X139165071Y-95528572D02*
X139165071Y-95414286D01*
X139165071Y-95414286D02*
X139193642Y-95357143D01*
X139193642Y-95357143D02*
X139222214Y-95328572D01*
X139222214Y-95328572D02*
X139279357Y-95300000D01*
X139279357Y-95300000D02*
X139422214Y-95300000D01*
X139422214Y-95300000D02*
X139479357Y-95328572D01*
X139479357Y-95328572D02*
X139507928Y-95357143D01*
X139507928Y-95357143D02*
X139536500Y-95414286D01*
X139536500Y-95414286D02*
X139536500Y-95528572D01*
X139536500Y-95528572D02*
X139507928Y-95585715D01*
X139507928Y-95585715D02*
X139479357Y-95614286D01*
X139479357Y-95614286D02*
X139422214Y-95642857D01*
X127165071Y-94603571D02*
X126879357Y-94403571D01*
X127165071Y-94260714D02*
X126565071Y-94260714D01*
X126565071Y-94260714D02*
X126565071Y-94489285D01*
X126565071Y-94489285D02*
X126593642Y-94546428D01*
X126593642Y-94546428D02*
X126622214Y-94574999D01*
X126622214Y-94574999D02*
X126679357Y-94603571D01*
X126679357Y-94603571D02*
X126765071Y-94603571D01*
X126765071Y-94603571D02*
X126822214Y-94574999D01*
X126822214Y-94574999D02*
X126850785Y-94546428D01*
X126850785Y-94546428D02*
X126879357Y-94489285D01*
X126879357Y-94489285D02*
X126879357Y-94260714D01*
X126622214Y-94832142D02*
X126593642Y-94860714D01*
X126593642Y-94860714D02*
X126565071Y-94917857D01*
X126565071Y-94917857D02*
X126565071Y-95060714D01*
X126565071Y-95060714D02*
X126593642Y-95117857D01*
X126593642Y-95117857D02*
X126622214Y-95146428D01*
X126622214Y-95146428D02*
X126679357Y-95174999D01*
X126679357Y-95174999D02*
X126736500Y-95174999D01*
X126736500Y-95174999D02*
X126822214Y-95146428D01*
X126822214Y-95146428D02*
X127165071Y-94803571D01*
X127165071Y-94803571D02*
X127165071Y-95174999D01*
X126622214Y-95403571D02*
X126593642Y-95432143D01*
X126593642Y-95432143D02*
X126565071Y-95489286D01*
X126565071Y-95489286D02*
X126565071Y-95632143D01*
X126565071Y-95632143D02*
X126593642Y-95689286D01*
X126593642Y-95689286D02*
X126622214Y-95717857D01*
X126622214Y-95717857D02*
X126679357Y-95746428D01*
X126679357Y-95746428D02*
X126736500Y-95746428D01*
X126736500Y-95746428D02*
X126822214Y-95717857D01*
X126822214Y-95717857D02*
X127165071Y-95375000D01*
X127165071Y-95375000D02*
X127165071Y-95746428D01*
X126765071Y-96260715D02*
X127165071Y-96260715D01*
X126536500Y-96117857D02*
X126965071Y-95975000D01*
X126965071Y-95975000D02*
X126965071Y-96346429D01*
X115171428Y-48420428D02*
X115200000Y-48449000D01*
X115200000Y-48449000D02*
X115285714Y-48477571D01*
X115285714Y-48477571D02*
X115342857Y-48477571D01*
X115342857Y-48477571D02*
X115428571Y-48449000D01*
X115428571Y-48449000D02*
X115485714Y-48391857D01*
X115485714Y-48391857D02*
X115514285Y-48334714D01*
X115514285Y-48334714D02*
X115542857Y-48220428D01*
X115542857Y-48220428D02*
X115542857Y-48134714D01*
X115542857Y-48134714D02*
X115514285Y-48020428D01*
X115514285Y-48020428D02*
X115485714Y-47963285D01*
X115485714Y-47963285D02*
X115428571Y-47906142D01*
X115428571Y-47906142D02*
X115342857Y-47877571D01*
X115342857Y-47877571D02*
X115285714Y-47877571D01*
X115285714Y-47877571D02*
X115200000Y-47906142D01*
X115200000Y-47906142D02*
X115171428Y-47934714D01*
X114600000Y-48477571D02*
X114942857Y-48477571D01*
X114771428Y-48477571D02*
X114771428Y-47877571D01*
X114771428Y-47877571D02*
X114828571Y-47963285D01*
X114828571Y-47963285D02*
X114885714Y-48020428D01*
X114885714Y-48020428D02*
X114942857Y-48049000D01*
X114228571Y-47877571D02*
X114171428Y-47877571D01*
X114171428Y-47877571D02*
X114114285Y-47906142D01*
X114114285Y-47906142D02*
X114085714Y-47934714D01*
X114085714Y-47934714D02*
X114057142Y-47991857D01*
X114057142Y-47991857D02*
X114028571Y-48106142D01*
X114028571Y-48106142D02*
X114028571Y-48249000D01*
X114028571Y-48249000D02*
X114057142Y-48363285D01*
X114057142Y-48363285D02*
X114085714Y-48420428D01*
X114085714Y-48420428D02*
X114114285Y-48449000D01*
X114114285Y-48449000D02*
X114171428Y-48477571D01*
X114171428Y-48477571D02*
X114228571Y-48477571D01*
X114228571Y-48477571D02*
X114285714Y-48449000D01*
X114285714Y-48449000D02*
X114314285Y-48420428D01*
X114314285Y-48420428D02*
X114342856Y-48363285D01*
X114342856Y-48363285D02*
X114371428Y-48249000D01*
X114371428Y-48249000D02*
X114371428Y-48106142D01*
X114371428Y-48106142D02*
X114342856Y-47991857D01*
X114342856Y-47991857D02*
X114314285Y-47934714D01*
X114314285Y-47934714D02*
X114285714Y-47906142D01*
X114285714Y-47906142D02*
X114228571Y-47877571D01*
X113657142Y-47877571D02*
X113599999Y-47877571D01*
X113599999Y-47877571D02*
X113542856Y-47906142D01*
X113542856Y-47906142D02*
X113514285Y-47934714D01*
X113514285Y-47934714D02*
X113485713Y-47991857D01*
X113485713Y-47991857D02*
X113457142Y-48106142D01*
X113457142Y-48106142D02*
X113457142Y-48249000D01*
X113457142Y-48249000D02*
X113485713Y-48363285D01*
X113485713Y-48363285D02*
X113514285Y-48420428D01*
X113514285Y-48420428D02*
X113542856Y-48449000D01*
X113542856Y-48449000D02*
X113599999Y-48477571D01*
X113599999Y-48477571D02*
X113657142Y-48477571D01*
X113657142Y-48477571D02*
X113714285Y-48449000D01*
X113714285Y-48449000D02*
X113742856Y-48420428D01*
X113742856Y-48420428D02*
X113771427Y-48363285D01*
X113771427Y-48363285D02*
X113799999Y-48249000D01*
X113799999Y-48249000D02*
X113799999Y-48106142D01*
X113799999Y-48106142D02*
X113771427Y-47991857D01*
X113771427Y-47991857D02*
X113742856Y-47934714D01*
X113742856Y-47934714D02*
X113714285Y-47906142D01*
X113714285Y-47906142D02*
X113657142Y-47877571D01*
X121671428Y-47400428D02*
X121700000Y-47429000D01*
X121700000Y-47429000D02*
X121785714Y-47457571D01*
X121785714Y-47457571D02*
X121842857Y-47457571D01*
X121842857Y-47457571D02*
X121928571Y-47429000D01*
X121928571Y-47429000D02*
X121985714Y-47371857D01*
X121985714Y-47371857D02*
X122014285Y-47314714D01*
X122014285Y-47314714D02*
X122042857Y-47200428D01*
X122042857Y-47200428D02*
X122042857Y-47114714D01*
X122042857Y-47114714D02*
X122014285Y-47000428D01*
X122014285Y-47000428D02*
X121985714Y-46943285D01*
X121985714Y-46943285D02*
X121928571Y-46886142D01*
X121928571Y-46886142D02*
X121842857Y-46857571D01*
X121842857Y-46857571D02*
X121785714Y-46857571D01*
X121785714Y-46857571D02*
X121700000Y-46886142D01*
X121700000Y-46886142D02*
X121671428Y-46914714D01*
X121100000Y-47457571D02*
X121442857Y-47457571D01*
X121271428Y-47457571D02*
X121271428Y-46857571D01*
X121271428Y-46857571D02*
X121328571Y-46943285D01*
X121328571Y-46943285D02*
X121385714Y-47000428D01*
X121385714Y-47000428D02*
X121442857Y-47029000D01*
X120728571Y-46857571D02*
X120671428Y-46857571D01*
X120671428Y-46857571D02*
X120614285Y-46886142D01*
X120614285Y-46886142D02*
X120585714Y-46914714D01*
X120585714Y-46914714D02*
X120557142Y-46971857D01*
X120557142Y-46971857D02*
X120528571Y-47086142D01*
X120528571Y-47086142D02*
X120528571Y-47229000D01*
X120528571Y-47229000D02*
X120557142Y-47343285D01*
X120557142Y-47343285D02*
X120585714Y-47400428D01*
X120585714Y-47400428D02*
X120614285Y-47429000D01*
X120614285Y-47429000D02*
X120671428Y-47457571D01*
X120671428Y-47457571D02*
X120728571Y-47457571D01*
X120728571Y-47457571D02*
X120785714Y-47429000D01*
X120785714Y-47429000D02*
X120814285Y-47400428D01*
X120814285Y-47400428D02*
X120842856Y-47343285D01*
X120842856Y-47343285D02*
X120871428Y-47229000D01*
X120871428Y-47229000D02*
X120871428Y-47086142D01*
X120871428Y-47086142D02*
X120842856Y-46971857D01*
X120842856Y-46971857D02*
X120814285Y-46914714D01*
X120814285Y-46914714D02*
X120785714Y-46886142D01*
X120785714Y-46886142D02*
X120728571Y-46857571D01*
X119957142Y-47457571D02*
X120299999Y-47457571D01*
X120128570Y-47457571D02*
X120128570Y-46857571D01*
X120128570Y-46857571D02*
X120185713Y-46943285D01*
X120185713Y-46943285D02*
X120242856Y-47000428D01*
X120242856Y-47000428D02*
X120299999Y-47029000D01*
G36*
X158742536Y-125764518D02*
G01*
X158756226Y-125843990D01*
X158759118Y-125981400D01*
X158759095Y-125986462D01*
X158755878Y-126089484D01*
X158742518Y-126171703D01*
X158711685Y-126252591D01*
X158656046Y-126351619D01*
X158568271Y-126488258D01*
X158535679Y-126536744D01*
X158418880Y-126698060D01*
X158293783Y-126856437D01*
X158182411Y-126983603D01*
X158156640Y-127010190D01*
X158062433Y-127098421D01*
X157988810Y-127153506D01*
X157948189Y-127165782D01*
X157915246Y-127120485D01*
X157916375Y-127026750D01*
X157961892Y-126900132D01*
X158049533Y-126749920D01*
X158121977Y-126635079D01*
X158179493Y-126528588D01*
X158208661Y-126454974D01*
X158221506Y-126398725D01*
X158298867Y-126140668D01*
X158393368Y-125946848D01*
X158506800Y-125814304D01*
X158640953Y-125740076D01*
X158660708Y-125734344D01*
X158712535Y-125731723D01*
X158742536Y-125764518D01*
G37*
G36*
X160131433Y-126718952D02*
G01*
X160183256Y-126780091D01*
X160186106Y-126854736D01*
X160174150Y-126880437D01*
X160145413Y-126892189D01*
X160086801Y-126859707D01*
X160045680Y-126826944D01*
X160002363Y-126764962D01*
X160004164Y-126715370D01*
X160054410Y-126695082D01*
X160131433Y-126718952D01*
G37*
G36*
X160805499Y-126693636D02*
G01*
X160842619Y-126736303D01*
X160855915Y-126800978D01*
X160815916Y-126845598D01*
X160730906Y-126860110D01*
X160671265Y-126832541D01*
X160655614Y-126775494D01*
X160696656Y-126704047D01*
X160702771Y-126698047D01*
X160753680Y-126667880D01*
X160805499Y-126693636D01*
G37*
G36*
X162203617Y-125813035D02*
G01*
X162279990Y-125887514D01*
X162333737Y-126001092D01*
X162354634Y-126050607D01*
X162406766Y-126151187D01*
X162480112Y-126281376D01*
X162565976Y-126425286D01*
X162639328Y-126549745D01*
X162703183Y-126669034D01*
X162742567Y-126756276D01*
X162750951Y-126798305D01*
X162733815Y-126819804D01*
X162701838Y-126827731D01*
X162655571Y-126798913D01*
X162586137Y-126726915D01*
X162484657Y-126605302D01*
X162394157Y-126489313D01*
X162265705Y-126305597D01*
X162167570Y-126139635D01*
X162102731Y-125998405D01*
X162074168Y-125888886D01*
X162084862Y-125818056D01*
X162137792Y-125792896D01*
X162203617Y-125813035D01*
G37*
G36*
X161241126Y-126296038D02*
G01*
X161211420Y-126349968D01*
X161175500Y-126400671D01*
X161087150Y-126499694D01*
X161002901Y-126567111D01*
X160977948Y-126581359D01*
X160917070Y-126610581D01*
X160886960Y-126601770D01*
X160864682Y-126552503D01*
X160839190Y-126506633D01*
X160810907Y-126515652D01*
X160775894Y-126541267D01*
X160700624Y-126556284D01*
X160616504Y-126569559D01*
X160507526Y-126618184D01*
X160432498Y-126686407D01*
X160425224Y-126697389D01*
X160394552Y-126725065D01*
X160352575Y-126713883D01*
X160278868Y-126660382D01*
X160278721Y-126660266D01*
X160200502Y-126611331D01*
X160136249Y-126590983D01*
X160115040Y-126585994D01*
X160045208Y-126545709D01*
X159963440Y-126478210D01*
X159940065Y-126456138D01*
X159882252Y-126406319D01*
X159861099Y-126402293D01*
X159867776Y-126440590D01*
X159874988Y-126484592D01*
X159852461Y-126535749D01*
X159795448Y-126549818D01*
X159718116Y-126529033D01*
X159634630Y-126475634D01*
X159559158Y-126391856D01*
X159519600Y-126323011D01*
X159512280Y-126296038D01*
X160998088Y-126296038D01*
X161015438Y-126313388D01*
X161032787Y-126296038D01*
X161015438Y-126278688D01*
X160998088Y-126296038D01*
X159512280Y-126296038D01*
X159496985Y-126239682D01*
X159517559Y-126190293D01*
X159580196Y-126185895D01*
X159602732Y-126190026D01*
X159636262Y-126172368D01*
X159644809Y-126101942D01*
X159646242Y-126076071D01*
X159677012Y-126011695D01*
X159744093Y-126003636D01*
X159842466Y-126053134D01*
X159903436Y-126081852D01*
X159970754Y-126084459D01*
X159979989Y-126082135D01*
X160050690Y-126092061D01*
X160138396Y-126131045D01*
X160146035Y-126135422D01*
X160272217Y-126180115D01*
X160415212Y-126193454D01*
X160548671Y-126175654D01*
X160646245Y-126126928D01*
X160653975Y-126120469D01*
X160757599Y-126076416D01*
X160925280Y-126054437D01*
X161016041Y-126050681D01*
X161093514Y-126054225D01*
X161128627Y-126071370D01*
X161136886Y-126105887D01*
X161130559Y-126141061D01*
X161093511Y-126186308D01*
X161076442Y-126195416D01*
X161088133Y-126206550D01*
X161129229Y-126190800D01*
X161188935Y-126139890D01*
X161223349Y-126105216D01*
X161279472Y-126070828D01*
X161307315Y-126087210D01*
X161305903Y-126145261D01*
X161274263Y-126235881D01*
X161241126Y-126296038D01*
G37*
G36*
X161834790Y-125506373D02*
G01*
X161880620Y-125567507D01*
X161927806Y-125675721D01*
X161970655Y-125816654D01*
X162003474Y-125975941D01*
X162027655Y-126092099D01*
X162076655Y-126258603D01*
X162132747Y-126398753D01*
X162158701Y-126452971D01*
X162194713Y-126543033D01*
X162200544Y-126599543D01*
X162179742Y-126640776D01*
X162149210Y-126671331D01*
X162105022Y-126695082D01*
X162075449Y-126681595D01*
X162025579Y-126612553D01*
X161977024Y-126496886D01*
X161936345Y-126348087D01*
X161906128Y-126215835D01*
X161866157Y-126051900D01*
X161825150Y-125892052D01*
X161793304Y-125760492D01*
X161770308Y-125613573D01*
X161777221Y-125526591D01*
X161814000Y-125497950D01*
X161834790Y-125506373D01*
G37*
G36*
X162076402Y-124617611D02*
G01*
X162099957Y-124710920D01*
X162107939Y-124870058D01*
X162110758Y-124978080D01*
X162126868Y-125060022D01*
X162167963Y-125126336D01*
X162245765Y-125205558D01*
X162289845Y-125251452D01*
X162382863Y-125370865D01*
X162450166Y-125486456D01*
X162522541Y-125647959D01*
X162608455Y-125837003D01*
X162674487Y-125977817D01*
X162725115Y-126079626D01*
X162764817Y-126151654D01*
X162798071Y-126203127D01*
X162801155Y-126207509D01*
X162864259Y-126337425D01*
X162875854Y-126460860D01*
X162869674Y-126476846D01*
X162828150Y-126487127D01*
X162764628Y-126456295D01*
X162697398Y-126391461D01*
X162683384Y-126373513D01*
X162583721Y-126233048D01*
X162479428Y-126067507D01*
X162377779Y-125890631D01*
X162286052Y-125716166D01*
X162211524Y-125557855D01*
X162161471Y-125429442D01*
X162143170Y-125344669D01*
X162139673Y-125325582D01*
X162107418Y-125252448D01*
X162052344Y-125162422D01*
X161961518Y-125031361D01*
X161815074Y-125117183D01*
X161761095Y-125146976D01*
X161651604Y-125192624D01*
X161579351Y-125199428D01*
X161553279Y-125165730D01*
X161554714Y-125159660D01*
X161587416Y-125108731D01*
X161654465Y-125026770D01*
X161744126Y-124928371D01*
X161767608Y-124903480D01*
X161852775Y-124808020D01*
X161912470Y-124732794D01*
X161934973Y-124692300D01*
X161944449Y-124664252D01*
X161989667Y-124610919D01*
X162036359Y-124588126D01*
X162076402Y-124617611D01*
G37*
G36*
X158564415Y-125209230D02*
G01*
X158600416Y-125244722D01*
X158587539Y-125307676D01*
X158517679Y-125396404D01*
X158468705Y-125438076D01*
X158331011Y-125521378D01*
X158164327Y-125592597D01*
X157995512Y-125639239D01*
X157993903Y-125639546D01*
X157878216Y-125679716D01*
X157775365Y-125742531D01*
X157735242Y-125773436D01*
X157628845Y-125844214D01*
X157512431Y-125911701D01*
X157425880Y-125955304D01*
X157324304Y-125993798D01*
X157267944Y-125991807D01*
X157250547Y-125950251D01*
X157258789Y-125912793D01*
X157315569Y-125825283D01*
X157414843Y-125727632D01*
X157543082Y-125632211D01*
X157686758Y-125551388D01*
X157694092Y-125547931D01*
X157807636Y-125496397D01*
X157895938Y-125459812D01*
X157940425Y-125445901D01*
X157982900Y-125429487D01*
X158066404Y-125385822D01*
X158172512Y-125324453D01*
X158244184Y-125284425D01*
X158378196Y-125227392D01*
X158487641Y-125202891D01*
X158564415Y-125209230D01*
G37*
G36*
X161622678Y-125879644D02*
G01*
X161605328Y-125896994D01*
X161587979Y-125879644D01*
X161605328Y-125862295D01*
X161622678Y-125879644D01*
G37*
G36*
X161541998Y-124804768D02*
G01*
X161541390Y-124813756D01*
X161512751Y-124869635D01*
X161451733Y-124958265D01*
X161368112Y-125065014D01*
X161344818Y-125093745D01*
X161257881Y-125210928D01*
X161191336Y-125315931D01*
X161158047Y-125388917D01*
X161147740Y-125424706D01*
X161113809Y-125471268D01*
X161050231Y-125472126D01*
X160970180Y-125476732D01*
X160878491Y-125514086D01*
X160865448Y-125522256D01*
X160796957Y-125550235D01*
X160707565Y-125557488D01*
X160573930Y-125546498D01*
X160470403Y-125536851D01*
X160375408Y-125533767D01*
X160327189Y-125539825D01*
X160314753Y-125544436D01*
X160245179Y-125553464D01*
X160145514Y-125555618D01*
X160105409Y-125555984D01*
X160018115Y-125566187D01*
X159973656Y-125585991D01*
X159969160Y-125593159D01*
X159947287Y-125615112D01*
X159910375Y-125610479D01*
X159834506Y-125577861D01*
X159821789Y-125571227D01*
X159744552Y-125504842D01*
X159679688Y-125413039D01*
X159626476Y-125330564D01*
X159539133Y-125220106D01*
X159439576Y-125110750D01*
X159398121Y-125067247D01*
X159304039Y-124949167D01*
X159264693Y-124860947D01*
X159280912Y-124805717D01*
X159353530Y-124786612D01*
X159366378Y-124787380D01*
X159456698Y-124816433D01*
X159548393Y-124874500D01*
X159618552Y-124928006D01*
X159659879Y-124938001D01*
X159692200Y-124908977D01*
X159710476Y-124888887D01*
X159761734Y-124872391D01*
X159850064Y-124889710D01*
X159854054Y-124890835D01*
X159960691Y-124907762D01*
X160052671Y-124902746D01*
X160067406Y-124900001D01*
X160163133Y-124902230D01*
X160271359Y-124926056D01*
X160279151Y-124928592D01*
X160386910Y-124951404D01*
X160450446Y-124934445D01*
X160500502Y-124911401D01*
X160608952Y-124888056D01*
X160746268Y-124872971D01*
X160889828Y-124867613D01*
X161017008Y-124873451D01*
X161105186Y-124891953D01*
X161114108Y-124895611D01*
X161184118Y-124915862D01*
X161238665Y-124900054D01*
X161308615Y-124840354D01*
X161336121Y-124816379D01*
X161424030Y-124767472D01*
X161498525Y-124762707D01*
X161541998Y-124804768D01*
G37*
G36*
X161477039Y-125316061D02*
G01*
X161504804Y-125366363D01*
X161484264Y-125445184D01*
X161473417Y-125462172D01*
X161412185Y-125507028D01*
X161344818Y-125509540D01*
X161299086Y-125466511D01*
X161296508Y-125449224D01*
X161321859Y-125387927D01*
X161377957Y-125331724D01*
X161441190Y-125307103D01*
X161477039Y-125316061D01*
G37*
G36*
X159366101Y-125306643D02*
G01*
X159370604Y-125308535D01*
X159448427Y-125360828D01*
X159471312Y-125435175D01*
X159470956Y-125451427D01*
X159452789Y-125503533D01*
X159394398Y-125509039D01*
X159382078Y-125506150D01*
X159320362Y-125466875D01*
X159264825Y-125402089D01*
X159231621Y-125334559D01*
X159236902Y-125287050D01*
X159238624Y-125285624D01*
X159287479Y-125283342D01*
X159366101Y-125306643D01*
G37*
G36*
X157822065Y-124473468D02*
G01*
X157855775Y-124523303D01*
X157840128Y-124590622D01*
X157768418Y-124660649D01*
X157647480Y-124728713D01*
X157484145Y-124790146D01*
X157285246Y-124840280D01*
X157255495Y-124846318D01*
X157061506Y-124892113D01*
X156913359Y-124943099D01*
X156790344Y-125007876D01*
X156671753Y-125095044D01*
X156535831Y-125203622D01*
X156393631Y-125305315D01*
X156272462Y-125373052D01*
X156156579Y-125415311D01*
X156030236Y-125440574D01*
X155992299Y-125445932D01*
X155818029Y-125467531D01*
X155702833Y-125474999D01*
X155639213Y-125468473D01*
X155619673Y-125448091D01*
X155619998Y-125445827D01*
X155648222Y-125402888D01*
X155713061Y-125328845D01*
X155801845Y-125238291D01*
X155899273Y-125150362D01*
X156135371Y-124990675D01*
X156400644Y-124883897D01*
X156708689Y-124823813D01*
X156766185Y-124816872D01*
X156911584Y-124793881D01*
X157025308Y-124761499D01*
X157135910Y-124709852D01*
X157271940Y-124629071D01*
X157428893Y-124539254D01*
X157600876Y-124466182D01*
X157732842Y-124443996D01*
X157822065Y-124473468D01*
G37*
G36*
X162852194Y-124338094D02*
G01*
X162981797Y-124400576D01*
X163181652Y-124486004D01*
X163427050Y-124537051D01*
X163571302Y-124558210D01*
X163762208Y-124592037D01*
X163930192Y-124627399D01*
X164062754Y-124658541D01*
X164206083Y-124691836D01*
X164314747Y-124716680D01*
X164395359Y-124737244D01*
X164543268Y-124783445D01*
X164691838Y-124837910D01*
X164818449Y-124892111D01*
X164900478Y-124937519D01*
X164935043Y-124975660D01*
X164939729Y-125024244D01*
X164911519Y-125046409D01*
X164822898Y-125062767D01*
X164695066Y-125055845D01*
X164543737Y-125026968D01*
X164384624Y-124977459D01*
X164279188Y-124944604D01*
X164064549Y-124904687D01*
X163833389Y-124887880D01*
X163612500Y-124895539D01*
X163428674Y-124929022D01*
X163356939Y-124945515D01*
X163283816Y-124944736D01*
X163192384Y-124921639D01*
X163060304Y-124872814D01*
X163047388Y-124867704D01*
X162926236Y-124816434D01*
X162830801Y-124770420D01*
X162780766Y-124739079D01*
X162768709Y-124721036D01*
X162741428Y-124643422D01*
X162721160Y-124538361D01*
X162714158Y-124461273D01*
X162724069Y-124365432D01*
X162768183Y-124325376D01*
X162852194Y-124338094D01*
G37*
G36*
X158595809Y-124632101D02*
G01*
X158665215Y-124708538D01*
X158733243Y-124821036D01*
X158761123Y-124915100D01*
X158738973Y-124981857D01*
X158736154Y-124985187D01*
X158670217Y-125026976D01*
X158606753Y-125001095D01*
X158550006Y-124909174D01*
X158525463Y-124842315D01*
X158502240Y-124729291D01*
X158509463Y-124650939D01*
X158542272Y-124615722D01*
X158595809Y-124632101D01*
G37*
G36*
X158300873Y-124508582D02*
G01*
X158360017Y-124585256D01*
X158393276Y-124652425D01*
X158406399Y-124771113D01*
X158352434Y-124882035D01*
X158298690Y-124924091D01*
X158246970Y-124913920D01*
X158209416Y-124854662D01*
X158192403Y-124756959D01*
X158202307Y-124631453D01*
X158220453Y-124556982D01*
X158255270Y-124498889D01*
X158300873Y-124508582D01*
G37*
G36*
X162510018Y-124399564D02*
G01*
X162569505Y-124442094D01*
X162611118Y-124539496D01*
X162612144Y-124542920D01*
X162616462Y-124601921D01*
X162584208Y-124660761D01*
X162504963Y-124739018D01*
X162439001Y-124794062D01*
X162350670Y-124845166D01*
X162278507Y-124845616D01*
X162206626Y-124798583D01*
X162203357Y-124795586D01*
X162152411Y-124722492D01*
X162154456Y-124636493D01*
X162209664Y-124521841D01*
X162219292Y-124506637D01*
X162294552Y-124429886D01*
X162401780Y-124398523D01*
X162411221Y-124397470D01*
X162510018Y-124399564D01*
G37*
G36*
X158109702Y-124476599D02*
G01*
X158143605Y-124508026D01*
X158152733Y-124589981D01*
X158152693Y-124596852D01*
X158145478Y-124681160D01*
X158129600Y-124728779D01*
X158110823Y-124742805D01*
X158047455Y-124746164D01*
X158000329Y-124697106D01*
X157991570Y-124664955D01*
X157995453Y-124576486D01*
X158030691Y-124504219D01*
X158087095Y-124474317D01*
X158109702Y-124476599D01*
G37*
G36*
X157215847Y-123447845D02*
G01*
X157218537Y-123461929D01*
X157236910Y-123517244D01*
X157242660Y-123546554D01*
X157222639Y-123572131D01*
X157217317Y-123573380D01*
X157168300Y-123605701D01*
X157088328Y-123672877D01*
X156991828Y-123762978D01*
X156796351Y-123953825D01*
X157159409Y-123953825D01*
X157180675Y-123953841D01*
X157369047Y-123956396D01*
X157498711Y-123964528D01*
X157579346Y-123980003D01*
X157620630Y-124004584D01*
X157632241Y-124040037D01*
X157626447Y-124073092D01*
X157598654Y-124107840D01*
X157541758Y-124135159D01*
X157449046Y-124156044D01*
X157313803Y-124171489D01*
X157129318Y-124182489D01*
X156888875Y-124190040D01*
X156585763Y-124195137D01*
X156569875Y-124195693D01*
X156498532Y-124209121D01*
X156418295Y-124246175D01*
X156315095Y-124314632D01*
X156174864Y-124422267D01*
X156065115Y-124505309D01*
X155922102Y-124597519D01*
X155815518Y-124645317D01*
X155748949Y-124648956D01*
X155725983Y-124608693D01*
X155750204Y-124524780D01*
X155825200Y-124397472D01*
X155926630Y-124248770D01*
X155677728Y-124203227D01*
X155579781Y-124183618D01*
X155446428Y-124146671D01*
X155381614Y-124109900D01*
X155384777Y-124073056D01*
X155390197Y-124070504D01*
X155448754Y-124059869D01*
X155559441Y-124047057D01*
X155709054Y-124033456D01*
X155884390Y-124020459D01*
X155921379Y-124017987D01*
X156103029Y-124004943D01*
X156231405Y-123992326D01*
X156320195Y-123977030D01*
X156383089Y-123955952D01*
X156433775Y-123925986D01*
X156485944Y-123884029D01*
X156571066Y-123813283D01*
X156731725Y-123688981D01*
X156882741Y-123583084D01*
X157015387Y-123500808D01*
X157120937Y-123447367D01*
X157190665Y-123427974D01*
X157215847Y-123447845D01*
G37*
G36*
X162978121Y-114114999D02*
G01*
X162931723Y-114244631D01*
X162895133Y-114350606D01*
X162878225Y-114410608D01*
X162879205Y-114434897D01*
X162896279Y-114433734D01*
X162927654Y-114417380D01*
X162971383Y-114395755D01*
X163047223Y-114365660D01*
X163048968Y-114365046D01*
X163092282Y-114324781D01*
X163152315Y-114240273D01*
X163216630Y-114128906D01*
X163227064Y-114109383D01*
X163305329Y-113980295D01*
X163394347Y-113855755D01*
X163482720Y-113749628D01*
X163559047Y-113675784D01*
X163611926Y-113648087D01*
X163623279Y-113652143D01*
X163632111Y-113697345D01*
X163613652Y-113778586D01*
X163573052Y-113878215D01*
X163515465Y-113978577D01*
X163495130Y-114011133D01*
X163446498Y-114116466D01*
X163427050Y-114205282D01*
X163421740Y-114281268D01*
X163404642Y-114360095D01*
X163403761Y-114362401D01*
X163395393Y-114396931D01*
X163419281Y-114396950D01*
X163489667Y-114362933D01*
X163511924Y-114351944D01*
X163606599Y-114316809D01*
X163677036Y-114308066D01*
X163704645Y-114328677D01*
X163701653Y-114339909D01*
X163674641Y-114398990D01*
X163628659Y-114485177D01*
X163594033Y-114552211D01*
X163575424Y-114619310D01*
X163593959Y-114661663D01*
X163631666Y-114739036D01*
X163618758Y-114843978D01*
X163553240Y-114955329D01*
X163538382Y-114973878D01*
X163465918Y-115078918D01*
X163400562Y-115192213D01*
X163386228Y-115218247D01*
X163308345Y-115326352D01*
X163222604Y-115409915D01*
X163203920Y-115424829D01*
X163116613Y-115517860D01*
X163045637Y-115625404D01*
X162995929Y-115733271D01*
X162975872Y-115811835D01*
X162998032Y-115836067D01*
X163061974Y-115806035D01*
X163167262Y-115721806D01*
X163313460Y-115583450D01*
X163357636Y-115538737D01*
X163468592Y-115416507D01*
X163540354Y-115320521D01*
X163565847Y-115259854D01*
X163589560Y-115186333D01*
X163647474Y-115110276D01*
X163658388Y-115099199D01*
X163722374Y-115006768D01*
X163769939Y-114897286D01*
X163829057Y-114774412D01*
X163919473Y-114686726D01*
X164024661Y-114654371D01*
X164026668Y-114654412D01*
X164070233Y-114685420D01*
X164089502Y-114760730D01*
X164085236Y-114860639D01*
X164058198Y-114965443D01*
X164009150Y-115055437D01*
X163994083Y-115075187D01*
X163964056Y-115127220D01*
X163983126Y-115133979D01*
X164124000Y-115083049D01*
X164295816Y-115032916D01*
X164414758Y-115015819D01*
X164477167Y-115032511D01*
X164487208Y-115049611D01*
X164472714Y-115106781D01*
X164409948Y-115175941D01*
X164310801Y-115247867D01*
X164187159Y-115313340D01*
X164050912Y-115363137D01*
X163944188Y-115397263D01*
X163868447Y-115438528D01*
X163847364Y-115486530D01*
X163873062Y-115549525D01*
X163904779Y-115574758D01*
X163946178Y-115540850D01*
X163996404Y-115495473D01*
X164037009Y-115500470D01*
X164051640Y-115568917D01*
X164041567Y-115614618D01*
X163997465Y-115707845D01*
X163930192Y-115809731D01*
X163896551Y-115854957D01*
X163839725Y-115938942D01*
X163810222Y-115993870D01*
X163812342Y-116010575D01*
X163850383Y-115979890D01*
X163882931Y-115952638D01*
X163930103Y-115944064D01*
X163947541Y-115995127D01*
X163944517Y-116008379D01*
X163908004Y-116073326D01*
X163838827Y-116167581D01*
X163748020Y-116275632D01*
X163655561Y-116380476D01*
X163543400Y-116515017D01*
X163468358Y-116620147D01*
X163423275Y-116708135D01*
X163400992Y-116791250D01*
X163394350Y-116881763D01*
X163392061Y-116932538D01*
X163378541Y-117021320D01*
X163357404Y-117066136D01*
X163353808Y-117068707D01*
X163313542Y-117118146D01*
X163267018Y-117198306D01*
X163256619Y-117220847D01*
X163254663Y-117243925D01*
X163285988Y-117226602D01*
X163355375Y-117165516D01*
X163467602Y-117057308D01*
X163548593Y-116979239D01*
X163668012Y-116873341D01*
X163748748Y-116817781D01*
X163794301Y-116810417D01*
X163808173Y-116849112D01*
X163806110Y-116861848D01*
X163778826Y-116929286D01*
X163730099Y-117017045D01*
X163697908Y-117068929D01*
X163623434Y-117189539D01*
X163548498Y-117311451D01*
X163489327Y-117397831D01*
X163465154Y-117428068D01*
X163449477Y-117447677D01*
X163421735Y-117482377D01*
X163384402Y-117529075D01*
X163275633Y-117646659D01*
X163106866Y-117812021D01*
X163234059Y-117812021D01*
X163251242Y-117811472D01*
X163372437Y-117789069D01*
X163489574Y-117744011D01*
X163541849Y-117716672D01*
X163704139Y-117637447D01*
X163827025Y-117586892D01*
X163900823Y-117569125D01*
X163916973Y-117571288D01*
X163945043Y-117608790D01*
X163930797Y-117682919D01*
X163875780Y-117780640D01*
X163838971Y-117836043D01*
X163828499Y-117872485D01*
X163858430Y-117881420D01*
X163897795Y-117890003D01*
X163906877Y-117929143D01*
X163867192Y-118004414D01*
X163777085Y-118120685D01*
X163776000Y-118121979D01*
X163659078Y-118246822D01*
X163557369Y-118327277D01*
X163478349Y-118358704D01*
X163429491Y-118336464D01*
X163416306Y-118322073D01*
X163376353Y-118326951D01*
X163309499Y-118383820D01*
X163302470Y-118390639D01*
X163217545Y-118449726D01*
X163139978Y-118469848D01*
X163129499Y-118469033D01*
X163030478Y-118468857D01*
X162964116Y-118495511D01*
X162897653Y-118561367D01*
X162799546Y-118652440D01*
X162684355Y-118715862D01*
X162576369Y-118736723D01*
X162489331Y-118712642D01*
X162436981Y-118641235D01*
X162419333Y-118603536D01*
X162389775Y-118597217D01*
X162363006Y-118648074D01*
X162345166Y-118748907D01*
X162334017Y-118870355D01*
X162128643Y-118871166D01*
X162112738Y-118871236D01*
X162004113Y-118874299D01*
X161943046Y-118888237D01*
X161909887Y-118922284D01*
X161884988Y-118985674D01*
X161882175Y-118993807D01*
X161845077Y-119076328D01*
X161808981Y-119123661D01*
X161801391Y-119130199D01*
X161763502Y-119188723D01*
X161724696Y-119278073D01*
X161674656Y-119374283D01*
X161615707Y-119408196D01*
X161582033Y-119403019D01*
X161553279Y-119375639D01*
X161527138Y-119355066D01*
X161458252Y-119349614D01*
X161380799Y-119338806D01*
X161328575Y-119278073D01*
X161299893Y-119227885D01*
X161266711Y-119200000D01*
X161234747Y-119224604D01*
X161200028Y-119304448D01*
X161162003Y-119444169D01*
X161119154Y-119648382D01*
X161110852Y-119692526D01*
X161086228Y-119855803D01*
X161082615Y-119981530D01*
X161100981Y-120093364D01*
X161142290Y-120214959D01*
X161175453Y-120278558D01*
X161222127Y-120304194D01*
X161286732Y-120274704D01*
X161379782Y-120188934D01*
X161430701Y-120140551D01*
X161510150Y-120083146D01*
X161566547Y-120065625D01*
X161587849Y-120093510D01*
X161586838Y-120099516D01*
X161563323Y-120153371D01*
X161518450Y-120233147D01*
X161497215Y-120268417D01*
X161457790Y-120339990D01*
X161457133Y-120356575D01*
X161495643Y-120317806D01*
X161573716Y-120223315D01*
X161691749Y-120072734D01*
X161829730Y-119904923D01*
X162032405Y-119692653D01*
X162235339Y-119516771D01*
X162430272Y-119383472D01*
X162608943Y-119298949D01*
X162763089Y-119269398D01*
X162863396Y-119257946D01*
X162969005Y-119225865D01*
X162970209Y-119225315D01*
X163046283Y-119206451D01*
X163163300Y-119194712D01*
X163305515Y-119189668D01*
X163457180Y-119190889D01*
X163602552Y-119197943D01*
X163725883Y-119210399D01*
X163811429Y-119227826D01*
X163843443Y-119249794D01*
X163825452Y-119297448D01*
X163756447Y-119377982D01*
X163647930Y-119471652D01*
X163512966Y-119569178D01*
X163364623Y-119661277D01*
X163215964Y-119738669D01*
X163080055Y-119792072D01*
X163024546Y-119810209D01*
X163026056Y-119818386D01*
X163093764Y-119821607D01*
X163104351Y-119821349D01*
X163192012Y-119802776D01*
X163313790Y-119760804D01*
X163446722Y-119703142D01*
X163479431Y-119687558D01*
X163597945Y-119633664D01*
X163689550Y-119595916D01*
X163736634Y-119581694D01*
X163762325Y-119588347D01*
X163773405Y-119627702D01*
X163743454Y-119687156D01*
X163678621Y-119748977D01*
X163600134Y-119799930D01*
X163485383Y-119865182D01*
X163363221Y-119927844D01*
X163250465Y-119979780D01*
X163163932Y-120012860D01*
X163120436Y-120018948D01*
X163099324Y-120013765D01*
X163019125Y-120005743D01*
X162896275Y-119999028D01*
X162747258Y-119994692D01*
X162654829Y-119992147D01*
X162514087Y-119984574D01*
X162406971Y-119974132D01*
X162351367Y-119962285D01*
X162325191Y-119955236D01*
X162303129Y-119982988D01*
X162294346Y-120067262D01*
X162294188Y-120114992D01*
X162312096Y-120191715D01*
X162363745Y-120236162D01*
X162423089Y-120262346D01*
X162522146Y-120300357D01*
X162629873Y-120338187D01*
X162721892Y-120367330D01*
X162773826Y-120379276D01*
X162797196Y-120365453D01*
X162857058Y-120312907D01*
X162935482Y-120234494D01*
X162936501Y-120233424D01*
X163032108Y-120143907D01*
X163114401Y-120098172D01*
X163208265Y-120082337D01*
X163218165Y-120081651D01*
X163347483Y-120050164D01*
X163472998Y-119987118D01*
X163553991Y-119940229D01*
X163687781Y-119877599D01*
X163827657Y-119824069D01*
X163931200Y-119787048D01*
X164021431Y-119741512D01*
X164084273Y-119683139D01*
X164142268Y-119595554D01*
X164174563Y-119544063D01*
X164243365Y-119451531D01*
X164301189Y-119393562D01*
X164340259Y-119364974D01*
X164349014Y-119342425D01*
X164300413Y-119323313D01*
X164279801Y-119316137D01*
X164164747Y-119250559D01*
X164082842Y-119161272D01*
X164051640Y-119066404D01*
X164053486Y-119029423D01*
X164080759Y-118940512D01*
X164148026Y-118864703D01*
X164264726Y-118793550D01*
X164440297Y-118718605D01*
X164526418Y-118685273D01*
X164750370Y-118593257D01*
X164917974Y-118513858D01*
X165037163Y-118442539D01*
X165115868Y-118374766D01*
X165162022Y-118306005D01*
X165217133Y-118224086D01*
X165300820Y-118172327D01*
X165370572Y-118154446D01*
X165486146Y-118122948D01*
X165617096Y-118085990D01*
X165731570Y-118058213D01*
X165858966Y-118039348D01*
X165948022Y-118040355D01*
X165987365Y-118046412D01*
X166050841Y-118032961D01*
X166099061Y-117967883D01*
X166146940Y-117907396D01*
X166249786Y-117827729D01*
X166369213Y-117766868D01*
X166475457Y-117742623D01*
X166524574Y-117760155D01*
X166566427Y-117838046D01*
X166568745Y-117898969D01*
X166528874Y-117977703D01*
X166435727Y-118058496D01*
X166284406Y-118145334D01*
X166070014Y-118242204D01*
X166025994Y-118260812D01*
X165837407Y-118345659D01*
X165651662Y-118436475D01*
X165480955Y-118526615D01*
X165337483Y-118609435D01*
X165233441Y-118678290D01*
X165181027Y-118726535D01*
X165160888Y-118800458D01*
X165197082Y-118858788D01*
X165279412Y-118898634D01*
X165396986Y-118918199D01*
X165538911Y-118915686D01*
X165694295Y-118889298D01*
X165852245Y-118837240D01*
X165958352Y-118796632D01*
X166071206Y-118762159D01*
X166147573Y-118748907D01*
X166204771Y-118737526D01*
X166255697Y-118677485D01*
X166276697Y-118642459D01*
X166337170Y-118616127D01*
X166401680Y-118632607D01*
X166439738Y-118689850D01*
X166429481Y-118772733D01*
X166371130Y-118829911D01*
X166283654Y-118837225D01*
X166272128Y-118834511D01*
X166217339Y-118836216D01*
X166203006Y-118883331D01*
X166211313Y-118922366D01*
X166255055Y-118969652D01*
X166292568Y-118989895D01*
X166304907Y-119030071D01*
X166255656Y-119075141D01*
X166149399Y-119122706D01*
X165990722Y-119170372D01*
X165784211Y-119215741D01*
X165759611Y-119220527D01*
X165616268Y-119252794D01*
X165492451Y-119287336D01*
X165412649Y-119317450D01*
X165348018Y-119343612D01*
X165229432Y-119379287D01*
X165096654Y-119410172D01*
X164876025Y-119453578D01*
X164896687Y-119613059D01*
X164902381Y-119654192D01*
X164921336Y-119767694D01*
X164939502Y-119850109D01*
X164943958Y-119896815D01*
X164914672Y-119959219D01*
X164835971Y-120038950D01*
X164825300Y-120048464D01*
X164753582Y-120121942D01*
X164725874Y-120183205D01*
X164730276Y-120256775D01*
X164735216Y-120290914D01*
X164723087Y-120371026D01*
X164661199Y-120447002D01*
X164654086Y-120453788D01*
X164602596Y-120518015D01*
X164578258Y-120596778D01*
X164572132Y-120717198D01*
X164566267Y-120818273D01*
X164508802Y-121024990D01*
X164388645Y-121203767D01*
X164354574Y-121244621D01*
X164336779Y-121299169D01*
X164363462Y-121367832D01*
X164369566Y-121379509D01*
X164385994Y-121426471D01*
X164376227Y-121472060D01*
X164332724Y-121533175D01*
X164247944Y-121626716D01*
X164167464Y-121719599D01*
X164108756Y-121800772D01*
X164086339Y-121850658D01*
X164085452Y-121857962D01*
X164051079Y-121914072D01*
X163982241Y-121975956D01*
X163967978Y-121986504D01*
X163904096Y-122045801D01*
X163878143Y-122091712D01*
X163875654Y-122105398D01*
X163846057Y-122171544D01*
X163793769Y-122257511D01*
X163780753Y-122277490D01*
X163719436Y-122392094D01*
X163678629Y-122499787D01*
X163654754Y-122570567D01*
X163611375Y-122610377D01*
X163526563Y-122620533D01*
X163489630Y-122621882D01*
X163391202Y-122638953D01*
X163336308Y-122685370D01*
X163305451Y-122774730D01*
X163272454Y-122855719D01*
X163220616Y-122911897D01*
X163173164Y-122961278D01*
X163138525Y-123045562D01*
X163137120Y-123051978D01*
X163097630Y-123150111D01*
X163034851Y-123246316D01*
X163030881Y-123251191D01*
X162967066Y-123359272D01*
X162927155Y-123477714D01*
X162919919Y-123508417D01*
X162848383Y-123652551D01*
X162722157Y-123798346D01*
X162552732Y-123939105D01*
X162351600Y-124068129D01*
X162130252Y-124178722D01*
X161900179Y-124264186D01*
X161672873Y-124317823D01*
X161459824Y-124332935D01*
X161387028Y-124333706D01*
X161219277Y-124350198D01*
X161067487Y-124381233D01*
X160989032Y-124402934D01*
X160872069Y-124432676D01*
X160789891Y-124450381D01*
X160675652Y-124465094D01*
X160533596Y-124463676D01*
X160448460Y-124431796D01*
X160422602Y-124370654D01*
X160458377Y-124281453D01*
X160511193Y-124223624D01*
X160594768Y-124202562D01*
X160648836Y-124197368D01*
X160752099Y-124151381D01*
X160863390Y-124072809D01*
X160964914Y-123976994D01*
X161038878Y-123879278D01*
X161067487Y-123795001D01*
X161067517Y-123792489D01*
X161089963Y-123716913D01*
X161157635Y-123615302D01*
X161275683Y-123479860D01*
X161363932Y-123382371D01*
X161438429Y-123283247D01*
X161474746Y-123196889D01*
X161480153Y-123103985D01*
X161461922Y-122985222D01*
X161445832Y-122929680D01*
X161411262Y-122891555D01*
X161372706Y-122918941D01*
X161337056Y-123010444D01*
X161297278Y-123099982D01*
X161229041Y-123173715D01*
X161152387Y-123207939D01*
X161084663Y-123190293D01*
X161056676Y-123155712D01*
X161032787Y-123075878D01*
X161021349Y-122994133D01*
X160993312Y-122895349D01*
X160979177Y-122851241D01*
X160975740Y-122772701D01*
X161016656Y-122690305D01*
X161041326Y-122655830D01*
X161101066Y-122610930D01*
X161186068Y-122610073D01*
X161281283Y-122611708D01*
X161392327Y-122590973D01*
X161430247Y-122576679D01*
X161470200Y-122547516D01*
X161480482Y-122495058D01*
X161470135Y-122396741D01*
X161460860Y-122342564D01*
X161420369Y-122236247D01*
X161343319Y-122155113D01*
X161295002Y-122114040D01*
X161263101Y-122066080D01*
X161278622Y-122024465D01*
X161318201Y-121995706D01*
X161399042Y-121975956D01*
X161401331Y-121975935D01*
X161474191Y-121945682D01*
X161510450Y-121870262D01*
X161501230Y-121767759D01*
X161473856Y-121724694D01*
X161393704Y-121698360D01*
X161334568Y-121686367D01*
X161288308Y-121646510D01*
X161274376Y-121622997D01*
X161239089Y-121612783D01*
X161220046Y-121613938D01*
X161182037Y-121575584D01*
X161150221Y-121504349D01*
X161136886Y-121423046D01*
X161130076Y-121380525D01*
X161102186Y-121351366D01*
X161093892Y-121352374D01*
X161067487Y-121386065D01*
X161051209Y-121419315D01*
X161015243Y-121408925D01*
X160984649Y-121360041D01*
X160983104Y-121353577D01*
X160974315Y-121284981D01*
X160964061Y-121165062D01*
X160953494Y-121008725D01*
X160943766Y-120830874D01*
X160941465Y-120784792D01*
X160932017Y-120617620D01*
X160922557Y-120480335D01*
X160914073Y-120386088D01*
X160907550Y-120348029D01*
X160877644Y-120336414D01*
X160806402Y-120324276D01*
X160718703Y-120314926D01*
X160724882Y-120581034D01*
X160725700Y-120616274D01*
X160727423Y-120739059D01*
X160728230Y-120920914D01*
X160728000Y-121138520D01*
X160726752Y-121374535D01*
X160724507Y-121611612D01*
X160723558Y-121925073D01*
X160730621Y-122239062D01*
X160747076Y-122493704D01*
X160773439Y-122694184D01*
X160810225Y-122845684D01*
X160857950Y-122953386D01*
X160909554Y-123065174D01*
X160922039Y-123199746D01*
X160883356Y-123359247D01*
X160861709Y-123403718D01*
X160768693Y-123506143D01*
X160631433Y-123593806D01*
X160467588Y-123654179D01*
X160397384Y-123660565D01*
X160268407Y-123629221D01*
X160152964Y-123555649D01*
X160077343Y-123453378D01*
X160055903Y-123404215D01*
X160014665Y-123333979D01*
X159973538Y-123315809D01*
X159918544Y-123339699D01*
X159866170Y-123361720D01*
X159792162Y-123343130D01*
X159765913Y-123322969D01*
X159696192Y-123226714D01*
X159645239Y-123095538D01*
X159618129Y-122952510D01*
X159619939Y-122820700D01*
X159655745Y-122723175D01*
X159661325Y-122715791D01*
X159691470Y-122684663D01*
X159725688Y-122682604D01*
X159780714Y-122714339D01*
X159873282Y-122784595D01*
X159952185Y-122841642D01*
X160031555Y-122888602D01*
X160076465Y-122901857D01*
X160084996Y-122887628D01*
X160097277Y-122808581D01*
X160106048Y-122661184D01*
X160111279Y-122446052D01*
X160112938Y-122163797D01*
X160112678Y-122068852D01*
X160109264Y-121799697D01*
X160102244Y-121569331D01*
X160092057Y-121382857D01*
X160079138Y-121245373D01*
X160063927Y-121161980D01*
X160046860Y-121137778D01*
X160028374Y-121177868D01*
X160007225Y-121237955D01*
X159971429Y-121271512D01*
X159933371Y-121242134D01*
X159896524Y-121153398D01*
X159864359Y-121008879D01*
X159856662Y-120963673D01*
X159830890Y-120829979D01*
X159808692Y-120753791D01*
X159786615Y-120726029D01*
X159761205Y-120737611D01*
X159751710Y-120766319D01*
X159745132Y-120852121D01*
X159745455Y-120974732D01*
X159752079Y-121115571D01*
X159764406Y-121256056D01*
X159781836Y-121377607D01*
X159795219Y-121471726D01*
X159793304Y-121564215D01*
X159769278Y-121599129D01*
X159727087Y-121572782D01*
X159670673Y-121481489D01*
X159614548Y-121368715D01*
X159612329Y-121547175D01*
X159605206Y-121652335D01*
X159575034Y-121728913D01*
X159510844Y-121756369D01*
X159401533Y-121745129D01*
X159341415Y-121736409D01*
X159305160Y-121753228D01*
X159297815Y-121815471D01*
X159297909Y-121826910D01*
X159307658Y-121879754D01*
X159347343Y-121902005D01*
X159436612Y-121906557D01*
X159469141Y-121907188D01*
X159550310Y-121921467D01*
X159575410Y-121956973D01*
X159561747Y-122032491D01*
X159502359Y-122142853D01*
X159415430Y-122220903D01*
X159360017Y-122264200D01*
X159330769Y-122320139D01*
X159330002Y-122337099D01*
X159324458Y-122420464D01*
X159315902Y-122527433D01*
X159318030Y-122651248D01*
X159354449Y-122731536D01*
X159382117Y-122769279D01*
X159372806Y-122810993D01*
X159317267Y-122875947D01*
X159307327Y-122886724D01*
X159251283Y-122966128D01*
X159228416Y-123032853D01*
X159241233Y-123087731D01*
X159285971Y-123191818D01*
X159353480Y-123320549D01*
X159433956Y-123456570D01*
X159517598Y-123582528D01*
X159594600Y-123681068D01*
X159628042Y-123720620D01*
X159693671Y-123811100D01*
X159730328Y-123880552D01*
X159733331Y-123888932D01*
X159784148Y-123944208D01*
X159889233Y-123975444D01*
X160021787Y-124021884D01*
X160155828Y-124113923D01*
X160286749Y-124230707D01*
X160205902Y-124299595D01*
X160205272Y-124300131D01*
X160168332Y-124326843D01*
X160123191Y-124345068D01*
X160057618Y-124355994D01*
X159959384Y-124360807D01*
X159816259Y-124360693D01*
X159616012Y-124356841D01*
X159421521Y-124349966D01*
X159124868Y-124326148D01*
X158884325Y-124285775D01*
X158692227Y-124226845D01*
X158540909Y-124147358D01*
X158422708Y-124045312D01*
X158368789Y-123984354D01*
X158313115Y-123915389D01*
X158291530Y-123879622D01*
X158282224Y-123868595D01*
X158230806Y-123862257D01*
X158212022Y-123861769D01*
X158185691Y-123841117D01*
X158173548Y-123781407D01*
X158170956Y-123667554D01*
X158170261Y-123580985D01*
X158166704Y-123499499D01*
X158161048Y-123468032D01*
X158153211Y-123477647D01*
X158123955Y-123534059D01*
X158083334Y-123624180D01*
X158058768Y-123677070D01*
X158015476Y-123751220D01*
X157984516Y-123780327D01*
X157977921Y-123779055D01*
X157945405Y-123737104D01*
X157920566Y-123651874D01*
X157910310Y-123545247D01*
X157894168Y-123486795D01*
X157818631Y-123431638D01*
X157774784Y-123409121D01*
X157747922Y-123371122D01*
X157742417Y-123306278D01*
X157757348Y-123201250D01*
X157791794Y-123042699D01*
X157796061Y-123020894D01*
X157792637Y-122960688D01*
X157754926Y-122899509D01*
X157672217Y-122817153D01*
X157623296Y-122770367D01*
X157522326Y-122664004D01*
X157443495Y-122569028D01*
X157423373Y-122543458D01*
X157349720Y-122458111D01*
X157243462Y-122340963D01*
X157115589Y-122204027D01*
X156977091Y-122059312D01*
X156949258Y-122030499D01*
X156787720Y-121857750D01*
X156673920Y-121724137D01*
X156603598Y-121624327D01*
X156572492Y-121552988D01*
X156556689Y-121500239D01*
X156505096Y-121376907D01*
X156433192Y-121233315D01*
X156353045Y-121092882D01*
X156276721Y-120979025D01*
X156273278Y-120974198D01*
X156235786Y-120897082D01*
X156194090Y-120778101D01*
X156156593Y-120640907D01*
X156124903Y-120517669D01*
X156110127Y-120477566D01*
X159971609Y-120477566D01*
X159983189Y-120643402D01*
X159997168Y-120785018D01*
X160007680Y-120866831D01*
X160016820Y-120892503D01*
X160026961Y-120868584D01*
X160040473Y-120801623D01*
X160051595Y-120699209D01*
X160052548Y-120581034D01*
X160044803Y-120465439D01*
X160030140Y-120369123D01*
X160010338Y-120308788D01*
X159987173Y-120301133D01*
X159985562Y-120303011D01*
X159972435Y-120361062D01*
X159971609Y-120477566D01*
X156110127Y-120477566D01*
X156087961Y-120417404D01*
X156041912Y-120348154D01*
X155976265Y-120289473D01*
X155903441Y-120225848D01*
X155869358Y-120161446D01*
X155867094Y-120072400D01*
X155868391Y-120038708D01*
X155860322Y-119920648D01*
X155838266Y-119790789D01*
X155807105Y-119669376D01*
X155771720Y-119576652D01*
X155736993Y-119532862D01*
X155701741Y-119531901D01*
X155640505Y-119565818D01*
X155633058Y-119573182D01*
X155598708Y-119600669D01*
X155558427Y-119611332D01*
X155497303Y-119603705D01*
X155400421Y-119576321D01*
X155252867Y-119527715D01*
X155180480Y-119503876D01*
X155039498Y-119462914D01*
X154956041Y-119451517D01*
X154929098Y-119472855D01*
X154957660Y-119530099D01*
X155040716Y-119626419D01*
X155177255Y-119764987D01*
X155190536Y-119778115D01*
X155330528Y-119921326D01*
X155421950Y-120027212D01*
X155469088Y-120102482D01*
X155476232Y-120153845D01*
X155447671Y-120188010D01*
X155442801Y-120188463D01*
X155395896Y-120163946D01*
X155314038Y-120105560D01*
X155209958Y-120023832D01*
X155096384Y-119929287D01*
X154986048Y-119832450D01*
X154891681Y-119743849D01*
X154826011Y-119674007D01*
X154791333Y-119640550D01*
X154740863Y-119616393D01*
X154712968Y-119610110D01*
X154633092Y-119578908D01*
X154522595Y-119528623D01*
X154397117Y-119467207D01*
X154272299Y-119402614D01*
X154163780Y-119342794D01*
X154087200Y-119295701D01*
X154058197Y-119269286D01*
X154084509Y-119240909D01*
X154153621Y-119216080D01*
X154200951Y-119206028D01*
X154313911Y-119181556D01*
X154439891Y-119153864D01*
X154469695Y-119148282D01*
X154595278Y-119133811D01*
X154766855Y-119122361D01*
X154967095Y-119114907D01*
X155178662Y-119112420D01*
X155316235Y-119112519D01*
X155481766Y-119111657D01*
X155591978Y-119108595D01*
X155655486Y-119102241D01*
X155680905Y-119091505D01*
X155676850Y-119075297D01*
X155651935Y-119052527D01*
X155609024Y-119020517D01*
X155562151Y-118999098D01*
X155497875Y-118988783D01*
X155398888Y-118986933D01*
X155247882Y-118990908D01*
X155122970Y-118991837D01*
X155007101Y-118981485D01*
X154898711Y-118954033D01*
X154785634Y-118904021D01*
X154655709Y-118825990D01*
X154496769Y-118714483D01*
X154296652Y-118564040D01*
X154249598Y-118525458D01*
X154133313Y-118405280D01*
X154055266Y-118286444D01*
X154042691Y-118260445D01*
X153973502Y-118134775D01*
X153901507Y-118023762D01*
X153883969Y-117998429D01*
X153834980Y-117909261D01*
X153815301Y-117841589D01*
X153818163Y-117818131D01*
X153855050Y-117780920D01*
X153925127Y-117784498D01*
X154016469Y-117822834D01*
X154117150Y-117889898D01*
X154215246Y-117979661D01*
X154298830Y-118086090D01*
X154344082Y-118151315D01*
X154447743Y-118279797D01*
X154550054Y-118385913D01*
X154590669Y-118421766D01*
X154667561Y-118477855D01*
X154732865Y-118497111D01*
X154811829Y-118489526D01*
X154845144Y-118484178D01*
X154935050Y-118489069D01*
X155008999Y-118537485D01*
X155036362Y-118558252D01*
X155149446Y-118607277D01*
X155308648Y-118643337D01*
X155524698Y-118683229D01*
X155819587Y-118761089D01*
X156069571Y-118857222D01*
X156268600Y-118968647D01*
X156410623Y-119092381D01*
X156489587Y-119225440D01*
X156490675Y-119228622D01*
X156547483Y-119327948D01*
X156629893Y-119410999D01*
X156675338Y-119446123D01*
X156708359Y-119491560D01*
X156692545Y-119533031D01*
X156670077Y-119553195D01*
X156583372Y-119579588D01*
X156483512Y-119565247D01*
X156400410Y-119512295D01*
X156385370Y-119497100D01*
X156322097Y-119454456D01*
X156267501Y-119442109D01*
X156244263Y-119466684D01*
X156266337Y-119510897D01*
X156322864Y-119573066D01*
X156388972Y-119627656D01*
X156439679Y-119651092D01*
X156455366Y-119655645D01*
X156512977Y-119698724D01*
X156581103Y-119772540D01*
X156609171Y-119805930D01*
X156672571Y-119868969D01*
X156714888Y-119893988D01*
X156725586Y-119896597D01*
X156780776Y-119932824D01*
X156851503Y-119998087D01*
X156874529Y-120021181D01*
X156942789Y-120079304D01*
X156988118Y-120102957D01*
X157039222Y-120122807D01*
X157111099Y-120169883D01*
X157177727Y-120207327D01*
X157284596Y-120218873D01*
X157308696Y-120217505D01*
X157400113Y-120233415D01*
X157516951Y-120269855D01*
X157635936Y-120317852D01*
X157733793Y-120368435D01*
X157787246Y-120412632D01*
X157788719Y-120414883D01*
X157851051Y-120445461D01*
X157966213Y-120438369D01*
X158129161Y-120393883D01*
X158130052Y-120393579D01*
X158251067Y-120345025D01*
X158307771Y-120299924D01*
X158304373Y-120250896D01*
X158245079Y-120190562D01*
X158239452Y-120185974D01*
X158178018Y-120119825D01*
X158152733Y-120061987D01*
X158152317Y-120052424D01*
X158137095Y-120026597D01*
X158087792Y-120023059D01*
X157987910Y-120039567D01*
X157948221Y-120046793D01*
X157814174Y-120063962D01*
X157687344Y-120071143D01*
X157588119Y-120067726D01*
X157536889Y-120053099D01*
X157534458Y-120032142D01*
X157563046Y-119980491D01*
X157574545Y-119963892D01*
X157577775Y-119917789D01*
X157531854Y-119870447D01*
X157430616Y-119817114D01*
X157267897Y-119753041D01*
X157239683Y-119742708D01*
X157105219Y-119688954D01*
X157023840Y-119644092D01*
X156983699Y-119599892D01*
X156972951Y-119548123D01*
X156977069Y-119513700D01*
X157028065Y-119439901D01*
X157138432Y-119390828D01*
X157309637Y-119366213D01*
X157543149Y-119365788D01*
X157840438Y-119389283D01*
X157944454Y-119403322D01*
X158086197Y-119436324D01*
X158170082Y-119477790D01*
X158182346Y-119487853D01*
X158268285Y-119544802D01*
X158371133Y-119599414D01*
X158393565Y-119610783D01*
X158487977Y-119678325D01*
X158550655Y-119753022D01*
X158573259Y-119803776D01*
X158578102Y-119870331D01*
X158545139Y-119955823D01*
X158535477Y-119977411D01*
X158511569Y-120072535D01*
X158521630Y-120143634D01*
X158563990Y-120171584D01*
X158586713Y-120157222D01*
X158614559Y-120099589D01*
X158620112Y-120080598D01*
X158647814Y-120046599D01*
X158704642Y-120065730D01*
X158768109Y-120084636D01*
X158863649Y-120081841D01*
X158908043Y-120076045D01*
X158977508Y-120097895D01*
X159061795Y-120167750D01*
X159092372Y-120196124D01*
X159166183Y-120253046D01*
X159216260Y-120275683D01*
X159228054Y-120271616D01*
X159266574Y-120222944D01*
X159301914Y-120136885D01*
X159307455Y-120118699D01*
X159339722Y-120038975D01*
X159383171Y-120005130D01*
X159459455Y-119998087D01*
X159470523Y-119998029D01*
X159544955Y-119993896D01*
X159575410Y-119985242D01*
X159572306Y-119975875D01*
X159546972Y-119916810D01*
X159501659Y-119816831D01*
X159443048Y-119690801D01*
X159401281Y-119604442D01*
X159342625Y-119497727D01*
X159301076Y-119447286D01*
X159272574Y-119447317D01*
X159233485Y-119467727D01*
X159182053Y-119448820D01*
X159159017Y-119386751D01*
X159154340Y-119363624D01*
X159124317Y-119356147D01*
X159106028Y-119377324D01*
X159089618Y-119442896D01*
X159078396Y-119506002D01*
X159040222Y-119538249D01*
X158988742Y-119523136D01*
X158938446Y-119466135D01*
X158903820Y-119372719D01*
X158874941Y-119299932D01*
X158832207Y-119269398D01*
X158787171Y-119251997D01*
X158729850Y-119196003D01*
X158627297Y-119095360D01*
X158487597Y-119020512D01*
X158345000Y-118991803D01*
X158238916Y-118982487D01*
X158146317Y-118959485D01*
X158128126Y-118951160D01*
X158048647Y-118900068D01*
X157962619Y-118828823D01*
X157885748Y-118752617D01*
X157833739Y-118686640D01*
X157822299Y-118646084D01*
X157824949Y-118642652D01*
X157876906Y-118614101D01*
X157963103Y-118590241D01*
X157978522Y-118587079D01*
X158053021Y-118562302D01*
X158083334Y-118534929D01*
X158059471Y-118508612D01*
X157987345Y-118463400D01*
X157883812Y-118411629D01*
X157853108Y-118397585D01*
X157737956Y-118340216D01*
X157674258Y-118294517D01*
X157650810Y-118249843D01*
X157656408Y-118195545D01*
X157648357Y-118143069D01*
X157585005Y-118078612D01*
X157528641Y-118025192D01*
X157487017Y-117909028D01*
X157474396Y-117842111D01*
X157434623Y-117793589D01*
X157347670Y-117760661D01*
X157304642Y-117745466D01*
X157163689Y-117660654D01*
X157013101Y-117524519D01*
X156977825Y-117482377D01*
X157354645Y-117482377D01*
X157371995Y-117499726D01*
X157389345Y-117482377D01*
X157371995Y-117465027D01*
X157354645Y-117482377D01*
X156977825Y-117482377D01*
X156948779Y-117447677D01*
X157285246Y-117447677D01*
X157302596Y-117465027D01*
X157319946Y-117447677D01*
X157302596Y-117430327D01*
X157285246Y-117447677D01*
X156948779Y-117447677D01*
X156878056Y-117363188D01*
X157189656Y-117363188D01*
X157198498Y-117395628D01*
X157205627Y-117405900D01*
X157237293Y-117430327D01*
X157242039Y-117428068D01*
X157233197Y-117395628D01*
X157226068Y-117385356D01*
X157194402Y-117360929D01*
X157189656Y-117363188D01*
X156878056Y-117363188D01*
X156864545Y-117347047D01*
X156825674Y-117290283D01*
X156776445Y-117188296D01*
X156777210Y-117128606D01*
X156821508Y-117115534D01*
X156902879Y-117153399D01*
X157014863Y-117246523D01*
X157050407Y-117280366D01*
X157116983Y-117334421D01*
X157140595Y-117334020D01*
X157121210Y-117279220D01*
X157058795Y-117170082D01*
X157035801Y-117129968D01*
X156991007Y-117030559D01*
X156973129Y-116955728D01*
X156987728Y-116903399D01*
X157048238Y-116825026D01*
X157133531Y-116762120D01*
X157219306Y-116736338D01*
X157265115Y-116722146D01*
X157320276Y-116666323D01*
X157332119Y-116637957D01*
X157328420Y-116593274D01*
X157288022Y-116537461D01*
X157202029Y-116454592D01*
X157134864Y-116386739D01*
X157061983Y-116293991D01*
X157025271Y-116220988D01*
X157024193Y-116216362D01*
X157007299Y-116162558D01*
X156978317Y-116109151D01*
X156929165Y-116046986D01*
X156851759Y-115966904D01*
X156738017Y-115859751D01*
X156579858Y-115716368D01*
X156462477Y-115608039D01*
X156363137Y-115506836D01*
X156313919Y-115440618D01*
X156311734Y-115405807D01*
X156339048Y-115388626D01*
X156390000Y-115410819D01*
X156414081Y-115429783D01*
X156477970Y-115452459D01*
X156484430Y-115452265D01*
X156506830Y-115435234D01*
X156485165Y-115379334D01*
X156482530Y-115374319D01*
X156460458Y-115299507D01*
X156486359Y-115266569D01*
X156551537Y-115277846D01*
X156647297Y-115335681D01*
X156693320Y-115368992D01*
X156744321Y-115399512D01*
X156753545Y-115393778D01*
X156750991Y-115388394D01*
X156736577Y-115324680D01*
X156722226Y-115215673D01*
X156710700Y-115081521D01*
X156678284Y-114804623D01*
X156616359Y-114568327D01*
X156521351Y-114365892D01*
X156501639Y-114331041D01*
X156467969Y-114245576D01*
X156479888Y-114196670D01*
X156533335Y-114172037D01*
X156615039Y-114192432D01*
X156705614Y-114259030D01*
X156795115Y-114362090D01*
X156873599Y-114491873D01*
X156931119Y-114638637D01*
X156953045Y-114694097D01*
X157012540Y-114787094D01*
X157086438Y-114865288D01*
X157158960Y-114913251D01*
X157214329Y-114915555D01*
X157229460Y-114916168D01*
X157279376Y-114953609D01*
X157341794Y-115026740D01*
X157404811Y-115111626D01*
X157459263Y-115176340D01*
X157485637Y-115185456D01*
X157490787Y-115139593D01*
X157481565Y-115039372D01*
X157443751Y-114870240D01*
X157375083Y-114727077D01*
X157324715Y-114649651D01*
X157248368Y-114524452D01*
X157173469Y-114394824D01*
X157148024Y-114350422D01*
X157071974Y-114239111D01*
X156989417Y-114162483D01*
X156877087Y-114097172D01*
X156802260Y-114057586D01*
X156696936Y-113994655D01*
X156626609Y-113943623D01*
X156590085Y-113902500D01*
X156560432Y-113842331D01*
X156562527Y-113800114D01*
X156599932Y-113795618D01*
X156611840Y-113799885D01*
X156684344Y-113824170D01*
X156782104Y-113855593D01*
X156840527Y-113874278D01*
X156974700Y-113918097D01*
X157110223Y-113963229D01*
X157192722Y-113990068D01*
X157272976Y-114013547D01*
X157306908Y-114019686D01*
X157310635Y-114006082D01*
X157281100Y-113960873D01*
X157215454Y-113903710D01*
X157131465Y-113847233D01*
X157046907Y-113804078D01*
X156979550Y-113786885D01*
X156918754Y-113767637D01*
X156848206Y-113712531D01*
X156844273Y-113708265D01*
X156778049Y-113650277D01*
X156675312Y-113573043D01*
X156556558Y-113492057D01*
X156488943Y-113446268D01*
X156390579Y-113368516D01*
X156298666Y-113277095D01*
X156203072Y-113160308D01*
X156093662Y-113006460D01*
X155960304Y-112803854D01*
X155901546Y-112708836D01*
X155874826Y-112644851D01*
X155877654Y-112591543D01*
X155905344Y-112525148D01*
X155920507Y-112491412D01*
X155936801Y-112434513D01*
X155936200Y-112369470D01*
X155917392Y-112276933D01*
X155879065Y-112137550D01*
X155846553Y-112016020D01*
X155795144Y-111743469D01*
X155788320Y-111522745D01*
X155789361Y-111512060D01*
X155806916Y-111463508D01*
X155837433Y-111475804D01*
X155875936Y-111543599D01*
X155917449Y-111661543D01*
X155963280Y-111817265D01*
X156011101Y-111973166D01*
X156049899Y-112083942D01*
X156085511Y-112161844D01*
X156123776Y-112219126D01*
X156170533Y-112268041D01*
X156231621Y-112320840D01*
X156247320Y-112334766D01*
X156323905Y-112415494D01*
X156416461Y-112527036D01*
X156514872Y-112655410D01*
X156609022Y-112786638D01*
X156688796Y-112906738D01*
X156744079Y-113001732D01*
X156764755Y-113057639D01*
X156769031Y-113071952D01*
X156819174Y-113127183D01*
X156916662Y-113200603D01*
X157050116Y-113284197D01*
X157208161Y-113369952D01*
X157232049Y-113382203D01*
X157383544Y-113474540D01*
X157478908Y-113570645D01*
X157528841Y-113685277D01*
X157544042Y-113833191D01*
X157545027Y-113883904D01*
X157555640Y-113971466D01*
X157586914Y-114024999D01*
X157650095Y-114069574D01*
X157708114Y-114100496D01*
X157765309Y-114116583D01*
X157805892Y-114099469D01*
X157832832Y-114041919D01*
X157849098Y-113936698D01*
X157857656Y-113776571D01*
X157861475Y-113554303D01*
X157869943Y-113254798D01*
X157890424Y-112999835D01*
X157922561Y-112810938D01*
X157935861Y-112751073D01*
X158366761Y-112751073D01*
X158380480Y-112834200D01*
X158409250Y-112977854D01*
X158410626Y-112984694D01*
X158435157Y-113143282D01*
X158454025Y-113330182D01*
X158463244Y-113506382D01*
X158464217Y-113541049D01*
X158474646Y-113690483D01*
X158492760Y-113820224D01*
X158515317Y-113905426D01*
X158562605Y-113998964D01*
X158615820Y-114081830D01*
X158639068Y-114109850D01*
X158653661Y-114114999D01*
X158648244Y-114072253D01*
X158623479Y-113972142D01*
X158604829Y-113903809D01*
X158575432Y-113808939D01*
X158554239Y-113756170D01*
X158544346Y-113712540D01*
X158532942Y-113613258D01*
X158521934Y-113474233D01*
X158512740Y-113310666D01*
X158510348Y-113261019D01*
X158498313Y-113080776D01*
X158482123Y-112952811D01*
X158459476Y-112863184D01*
X158428068Y-112797950D01*
X158423643Y-112790976D01*
X158387570Y-112736848D01*
X158368867Y-112721085D01*
X158366761Y-112751073D01*
X157935861Y-112751073D01*
X157941129Y-112727364D01*
X157960644Y-112564569D01*
X157948950Y-112421512D01*
X157945301Y-112399480D01*
X157938823Y-112215351D01*
X157964471Y-111978935D01*
X157987359Y-111800528D01*
X157990632Y-111649598D01*
X157972745Y-111511393D01*
X157960864Y-111439304D01*
X157952857Y-111332656D01*
X157960141Y-111264343D01*
X157976074Y-111232893D01*
X157998682Y-111236952D01*
X158035677Y-111298360D01*
X158076529Y-111394164D01*
X158128012Y-111562278D01*
X158175042Y-111764271D01*
X158213136Y-111980347D01*
X158237808Y-112190710D01*
X158241576Y-112231950D01*
X158260639Y-112376784D01*
X158284964Y-112497862D01*
X158310227Y-112572404D01*
X158358470Y-112659153D01*
X158359700Y-112550628D01*
X158375059Y-112462880D01*
X158411766Y-112399913D01*
X158433101Y-112387313D01*
X158464473Y-112397160D01*
X158502137Y-112451478D01*
X158555225Y-112560487D01*
X158600968Y-112659218D01*
X158647906Y-112757417D01*
X158677368Y-112815300D01*
X158707345Y-112870711D01*
X158789394Y-113079695D01*
X158810165Y-113273023D01*
X158771178Y-113461167D01*
X158756831Y-113504842D01*
X158749583Y-113576886D01*
X158779803Y-113633726D01*
X158823016Y-113702889D01*
X158864022Y-113798227D01*
X158864456Y-113799528D01*
X158902628Y-113877292D01*
X158945515Y-113918416D01*
X158959218Y-113922126D01*
X158974763Y-113911037D01*
X158950458Y-113855607D01*
X158932122Y-113798945D01*
X158923269Y-113677135D01*
X158932405Y-113496149D01*
X158935999Y-113455091D01*
X158948676Y-113330186D01*
X158960512Y-113239933D01*
X158969340Y-113201608D01*
X158987792Y-113199176D01*
X159044747Y-113216893D01*
X159105391Y-113235569D01*
X159201173Y-113248393D01*
X159246431Y-113247760D01*
X159281080Y-113226794D01*
X159274166Y-113163484D01*
X159255795Y-113095891D01*
X159221668Y-112990829D01*
X159211027Y-112944557D01*
X159205874Y-112848772D01*
X159212014Y-112740729D01*
X159227036Y-112640837D01*
X159248530Y-112569505D01*
X159274083Y-112547144D01*
X159309857Y-112584780D01*
X159342352Y-112676132D01*
X159372858Y-112826409D01*
X159402739Y-113040847D01*
X159411910Y-113115294D01*
X159438419Y-113310913D01*
X159460103Y-113437308D01*
X159476988Y-113494475D01*
X159489102Y-113482412D01*
X159496472Y-113401115D01*
X159499123Y-113250581D01*
X159497083Y-113030809D01*
X159496167Y-112970053D01*
X159495932Y-112769184D01*
X159501513Y-112628390D01*
X159513388Y-112540376D01*
X159532036Y-112497847D01*
X159534865Y-112495065D01*
X159582003Y-112468683D01*
X159616960Y-112495694D01*
X159640874Y-112579993D01*
X159654884Y-112725477D01*
X159660130Y-112936044D01*
X159660684Y-113022719D01*
X159662972Y-113163470D01*
X159668076Y-113248533D01*
X159677607Y-113287277D01*
X159693176Y-113289070D01*
X159716394Y-113263283D01*
X159730990Y-113244826D01*
X159772231Y-113213809D01*
X159808492Y-113237669D01*
X159835240Y-113284621D01*
X159862305Y-113370491D01*
X159866533Y-113373903D01*
X159871898Y-113324075D01*
X159876696Y-113221197D01*
X159880523Y-113074539D01*
X159882980Y-112893374D01*
X159885920Y-112690210D01*
X159892934Y-112513779D01*
X159905451Y-112397791D01*
X159925197Y-112337447D01*
X159953895Y-112327947D01*
X159993270Y-112364492D01*
X160045046Y-112442281D01*
X160067002Y-112482641D01*
X160087054Y-112538429D01*
X160099592Y-112611531D01*
X160105862Y-112714957D01*
X160107106Y-112861716D01*
X160104570Y-113064819D01*
X160103556Y-113146230D01*
X160104061Y-113317444D01*
X160108101Y-113457346D01*
X160115188Y-113553251D01*
X160124835Y-113592474D01*
X160146724Y-113579567D01*
X160186822Y-113517364D01*
X160232990Y-113419265D01*
X160274171Y-113329154D01*
X160323836Y-113256247D01*
X160368872Y-113239363D01*
X160385764Y-113246392D01*
X160411936Y-113290143D01*
X160421283Y-113378636D01*
X160414154Y-113519484D01*
X160390897Y-113720300D01*
X160378945Y-113824173D01*
X160381973Y-113895102D01*
X160408336Y-113943140D01*
X160464519Y-113992243D01*
X160564039Y-114070525D01*
X160659272Y-113956452D01*
X160666035Y-113948040D01*
X160727918Y-113852999D01*
X160797932Y-113721878D01*
X160862191Y-113580411D01*
X160875225Y-113548710D01*
X160917153Y-113447453D01*
X160953092Y-113363648D01*
X160989403Y-113284139D01*
X161032444Y-113195767D01*
X161088576Y-113085375D01*
X161164157Y-112939806D01*
X161265548Y-112745901D01*
X161268571Y-112740120D01*
X161352243Y-112575689D01*
X161427142Y-112420743D01*
X161485193Y-112292471D01*
X161518315Y-112208060D01*
X161540437Y-112144484D01*
X161591258Y-112017591D01*
X161654880Y-111872822D01*
X161724664Y-111723808D01*
X161793965Y-111584180D01*
X161856143Y-111467569D01*
X161904555Y-111387606D01*
X161932559Y-111357923D01*
X161958512Y-111386582D01*
X161969673Y-111457828D01*
X161969263Y-111471200D01*
X161957180Y-111542549D01*
X161925913Y-111641783D01*
X161872195Y-111777294D01*
X161792759Y-111957473D01*
X161684340Y-112190710D01*
X161656936Y-112249245D01*
X161547595Y-112493727D01*
X161452340Y-112724148D01*
X161374610Y-112930932D01*
X161317846Y-113104502D01*
X161285488Y-113235279D01*
X161280976Y-113313687D01*
X161281957Y-113317227D01*
X161308275Y-113321660D01*
X161366523Y-113270483D01*
X161458822Y-113161889D01*
X161466459Y-113152385D01*
X161567188Y-113040407D01*
X161650344Y-112971534D01*
X161709387Y-112948463D01*
X161737779Y-112973890D01*
X161728981Y-113050509D01*
X161721047Y-113075409D01*
X161680341Y-113178665D01*
X161628504Y-113289672D01*
X161596115Y-113354265D01*
X161574556Y-113410445D01*
X161583990Y-113436229D01*
X161623877Y-113450258D01*
X161663061Y-113471991D01*
X161692077Y-113541540D01*
X161695939Y-113589377D01*
X161719969Y-113593451D01*
X161782759Y-113555570D01*
X161807645Y-113538758D01*
X161839185Y-113509571D01*
X161857643Y-113468418D01*
X161865651Y-113400954D01*
X161865837Y-113292830D01*
X161860833Y-113129702D01*
X161858272Y-112964910D01*
X161865405Y-112825979D01*
X161883524Y-112753450D01*
X161912418Y-112748064D01*
X161951876Y-112810561D01*
X161971810Y-112849184D01*
X162004689Y-112881420D01*
X162026498Y-112848202D01*
X162037645Y-112748449D01*
X162038537Y-112581079D01*
X162037966Y-112510617D01*
X162041706Y-112338475D01*
X162051203Y-112151567D01*
X162065159Y-111963916D01*
X162082281Y-111789544D01*
X162101273Y-111642474D01*
X162120838Y-111536728D01*
X162139682Y-111486329D01*
X162172426Y-111483931D01*
X162216778Y-111536370D01*
X162225137Y-111554696D01*
X162244676Y-111645973D01*
X162253463Y-111792040D01*
X162252027Y-111999863D01*
X162247035Y-112197940D01*
X162240135Y-112530957D01*
X162236910Y-112800416D01*
X162237384Y-113010105D01*
X162241586Y-113163813D01*
X162249542Y-113265329D01*
X162261277Y-113318442D01*
X162261440Y-113318802D01*
X162278327Y-113333750D01*
X162295048Y-113297740D01*
X162313257Y-113204681D01*
X162334609Y-113048480D01*
X162349929Y-112930774D01*
X162372221Y-112791170D01*
X162393243Y-112708603D01*
X162415184Y-112675529D01*
X162440233Y-112684403D01*
X162454684Y-112717393D01*
X162474283Y-112809312D01*
X162492950Y-112941246D01*
X162508765Y-113096585D01*
X162519810Y-113258716D01*
X162524166Y-113411028D01*
X162524276Y-113430805D01*
X162528009Y-113564588D01*
X162535857Y-113672595D01*
X162546317Y-113733017D01*
X162554689Y-113752948D01*
X162576588Y-113768374D01*
X162614613Y-113727181D01*
X162643407Y-113671024D01*
X162662558Y-113576820D01*
X162663068Y-113567766D01*
X162698787Y-113475408D01*
X162781951Y-113373553D01*
X162869970Y-113263582D01*
X162922276Y-113132525D01*
X162940802Y-113038576D01*
X162978471Y-112885775D01*
X163021948Y-112740816D01*
X163066135Y-112618700D01*
X163105932Y-112534429D01*
X163136240Y-112503005D01*
X163151208Y-112507900D01*
X163167229Y-112544720D01*
X163171400Y-112627340D01*
X163164969Y-112767243D01*
X163163827Y-112783750D01*
X163150145Y-112919416D01*
X163131866Y-113031408D01*
X163112618Y-113096888D01*
X163095539Y-113137079D01*
X163098465Y-113162295D01*
X163113690Y-113159672D01*
X163187978Y-113123819D01*
X163295667Y-113053807D01*
X163423951Y-112959691D01*
X163560023Y-112851525D01*
X163691078Y-112739364D01*
X163804308Y-112633263D01*
X163886908Y-112543275D01*
X163953427Y-112468984D01*
X164017678Y-112420927D01*
X164054772Y-112424889D01*
X164058202Y-112483155D01*
X164057441Y-112516154D01*
X164084152Y-112587118D01*
X164096511Y-112637057D01*
X164096728Y-112727729D01*
X164086794Y-112831032D01*
X164069377Y-112919634D01*
X164047145Y-112966203D01*
X164047090Y-112966241D01*
X164011304Y-112989190D01*
X163943674Y-113031649D01*
X163880640Y-113091233D01*
X163831966Y-113193655D01*
X163831367Y-113196449D01*
X163792328Y-113274129D01*
X163719308Y-113357771D01*
X163630869Y-113431751D01*
X163545570Y-113480448D01*
X163481972Y-113488241D01*
X163454130Y-113489704D01*
X163385647Y-113532917D01*
X163299424Y-113616513D01*
X163205745Y-113727849D01*
X163114896Y-113854283D01*
X163037159Y-113983171D01*
X162982820Y-114101870D01*
X162978121Y-114114999D01*
G37*
G36*
X164493168Y-123716578D02*
G01*
X164671496Y-123736137D01*
X164827369Y-123766210D01*
X165023751Y-123801283D01*
X165283470Y-123801229D01*
X165424409Y-123794451D01*
X165564806Y-123806031D01*
X165697455Y-123842821D01*
X165723966Y-123852790D01*
X165825649Y-123901251D01*
X165878322Y-123944832D01*
X165876707Y-123976918D01*
X165815529Y-123990888D01*
X165763119Y-123992454D01*
X165425211Y-124004751D01*
X165150675Y-124019268D01*
X164934240Y-124036513D01*
X164770633Y-124056991D01*
X164654583Y-124081212D01*
X164580816Y-124109681D01*
X164566909Y-124116675D01*
X164453172Y-124144687D01*
X164297759Y-124152749D01*
X164121200Y-124142791D01*
X163944025Y-124116742D01*
X163786764Y-124076531D01*
X163669946Y-124024087D01*
X163648727Y-124005901D01*
X163640783Y-123955595D01*
X163687054Y-123900596D01*
X163777386Y-123845390D01*
X163901628Y-123794459D01*
X164049625Y-123752287D01*
X164211226Y-123723359D01*
X164376276Y-123712157D01*
X164493168Y-123716578D01*
G37*
G36*
X156370647Y-123491384D02*
G01*
X156383302Y-123589480D01*
X156386781Y-123651050D01*
X156383807Y-123748671D01*
X156360910Y-123815804D01*
X156311593Y-123878652D01*
X156274066Y-123913928D01*
X156218404Y-123934339D01*
X156185612Y-123889866D01*
X156174864Y-123779912D01*
X156175717Y-123747132D01*
X156196964Y-123614169D01*
X156240947Y-123509747D01*
X156299901Y-123454107D01*
X156300367Y-123453929D01*
X156345514Y-123450278D01*
X156370647Y-123491384D01*
G37*
G36*
X155832084Y-123015558D02*
G01*
X155861471Y-123074451D01*
X155850881Y-123162068D01*
X155806791Y-123262157D01*
X155735676Y-123358465D01*
X155644013Y-123434738D01*
X155640959Y-123436587D01*
X155524154Y-123488546D01*
X155429462Y-123498088D01*
X155367707Y-123470022D01*
X155349715Y-123409154D01*
X155386310Y-123320292D01*
X155406818Y-123290553D01*
X155515604Y-123160138D01*
X155628149Y-123063177D01*
X155732033Y-123008777D01*
X155814837Y-123006048D01*
X155832084Y-123015558D01*
G37*
G36*
X156946321Y-122146325D02*
G01*
X157019069Y-122219407D01*
X157040286Y-122242202D01*
X157149011Y-122346631D01*
X157258756Y-122437689D01*
X157288572Y-122460685D01*
X157388873Y-122556327D01*
X157442091Y-122641449D01*
X157440951Y-122705361D01*
X157415132Y-122731144D01*
X157343437Y-122736373D01*
X157237584Y-122687926D01*
X157095645Y-122584777D01*
X156915693Y-122425901D01*
X156837166Y-122345184D01*
X156782665Y-122258754D01*
X156786092Y-122191556D01*
X156845572Y-122135823D01*
X156849117Y-122133725D01*
X156895787Y-122120711D01*
X156946321Y-122146325D01*
G37*
G36*
X155959836Y-121259302D02*
G01*
X156029581Y-121278496D01*
X156089302Y-121323224D01*
X156097524Y-121372570D01*
X156038111Y-121413208D01*
X156037777Y-121413329D01*
X155982007Y-121421288D01*
X155869153Y-121428480D01*
X155711347Y-121434444D01*
X155520726Y-121438719D01*
X155309422Y-121440846D01*
X155172052Y-121441119D01*
X154964503Y-121439664D01*
X154815428Y-121435277D01*
X154717731Y-121427522D01*
X154664316Y-121415963D01*
X154648088Y-121400162D01*
X154650427Y-121388662D01*
X154697541Y-121346908D01*
X154792013Y-121312183D01*
X154916387Y-121289499D01*
X155053209Y-121283866D01*
X155109360Y-121284424D01*
X155246139Y-121281409D01*
X155413516Y-121274180D01*
X155587163Y-121263659D01*
X155664688Y-121258665D01*
X155840921Y-121252782D01*
X155959836Y-121259302D01*
G37*
G36*
X164951717Y-121163257D02*
G01*
X164978992Y-121225581D01*
X164955277Y-121313955D01*
X164940508Y-121334810D01*
X164877251Y-121375623D01*
X164801376Y-121389059D01*
X164737673Y-121373687D01*
X164710929Y-121328073D01*
X164710987Y-121324740D01*
X164741682Y-121242119D01*
X164810534Y-121172470D01*
X164890894Y-121143169D01*
X164951717Y-121163257D01*
G37*
G36*
X155191071Y-120725583D02*
G01*
X155269550Y-120749676D01*
X155284468Y-120790214D01*
X155233292Y-120844131D01*
X155166154Y-120877937D01*
X155100245Y-120886071D01*
X155042386Y-120871742D01*
X154951708Y-120850788D01*
X154919913Y-120842318D01*
X154865735Y-120811386D01*
X154868473Y-120777474D01*
X154919441Y-120746871D01*
X155009952Y-120725866D01*
X155131318Y-120720750D01*
X155191071Y-120725583D01*
G37*
G36*
X165708314Y-119443198D02*
G01*
X165742129Y-119477058D01*
X165739179Y-119562235D01*
X165699553Y-119691935D01*
X165695138Y-119704404D01*
X165699598Y-119735955D01*
X165754599Y-119729843D01*
X165766677Y-119726788D01*
X165809356Y-119724081D01*
X165821310Y-119756364D01*
X165810975Y-119840143D01*
X165801954Y-119888128D01*
X165751447Y-120029195D01*
X165672096Y-120110679D01*
X165560266Y-120136885D01*
X165489649Y-120130922D01*
X165446082Y-120101490D01*
X165461432Y-120043059D01*
X165535041Y-119950774D01*
X165630465Y-119847614D01*
X165491667Y-119928464D01*
X165457539Y-119948862D01*
X165357147Y-120013962D01*
X165283470Y-120068683D01*
X165227948Y-120109990D01*
X165162022Y-120145135D01*
X165110735Y-120153817D01*
X165069814Y-120123018D01*
X165057924Y-120034491D01*
X165067259Y-119982807D01*
X165124179Y-119873774D01*
X165220216Y-119754459D01*
X165340733Y-119638288D01*
X165471096Y-119538687D01*
X165596670Y-119469081D01*
X165702819Y-119442896D01*
X165708314Y-119443198D01*
G37*
G36*
X166655421Y-118333527D02*
G01*
X166684116Y-118355765D01*
X166678525Y-118415658D01*
X166638520Y-118524475D01*
X166593204Y-118600848D01*
X166540552Y-118640963D01*
X166498065Y-118633636D01*
X166480602Y-118574189D01*
X166489218Y-118520670D01*
X166528597Y-118433120D01*
X166584730Y-118361910D01*
X166640740Y-118332513D01*
X166655421Y-118333527D01*
G37*
G36*
X156692917Y-118038962D02*
G01*
X156829778Y-118080126D01*
X156982412Y-118168921D01*
X156983497Y-118169664D01*
X157061177Y-118245138D01*
X157136451Y-118352497D01*
X157193335Y-118465192D01*
X157215847Y-118556677D01*
X157204872Y-118600014D01*
X157164503Y-118600512D01*
X157090710Y-118548918D01*
X156979596Y-118443362D01*
X156896711Y-118365352D01*
X156775267Y-118281738D01*
X156642635Y-118232566D01*
X156619640Y-118226602D01*
X156466828Y-118179194D01*
X156379305Y-118135643D01*
X156357947Y-118097281D01*
X156403627Y-118065442D01*
X156517220Y-118041458D01*
X156545192Y-118038132D01*
X156692917Y-118038962D01*
G37*
G36*
X156520296Y-117342982D02*
G01*
X156607069Y-117383370D01*
X156700367Y-117447947D01*
X156786896Y-117529369D01*
X156853364Y-117620291D01*
X156870591Y-117648868D01*
X156950603Y-117751995D01*
X157034901Y-117828488D01*
X157100930Y-117880146D01*
X157188486Y-117963161D01*
X157270377Y-118052778D01*
X157330973Y-118131686D01*
X157354645Y-118182579D01*
X157366696Y-118207251D01*
X157417109Y-118270057D01*
X157493443Y-118349863D01*
X157548864Y-118408056D01*
X157608913Y-118484385D01*
X157632241Y-118534115D01*
X157628403Y-118556382D01*
X157603322Y-118566567D01*
X157548297Y-118542831D01*
X157455749Y-118481422D01*
X157318100Y-118378586D01*
X157237313Y-118315509D01*
X157012844Y-118127553D01*
X156815221Y-117943177D01*
X156650674Y-117769289D01*
X156525429Y-117612801D01*
X156445715Y-117480622D01*
X156417760Y-117379661D01*
X156419497Y-117364140D01*
X156453341Y-117334124D01*
X156520296Y-117342982D01*
G37*
G36*
X164309109Y-117987448D02*
G01*
X164357142Y-118014457D01*
X164344344Y-118073728D01*
X164270694Y-118165792D01*
X164248278Y-118188687D01*
X164176003Y-118249144D01*
X164129675Y-118255597D01*
X164098785Y-118210797D01*
X164095038Y-118159879D01*
X164130747Y-118079194D01*
X164198166Y-118012983D01*
X164277986Y-117985519D01*
X164309109Y-117987448D01*
G37*
G36*
X164729280Y-117777544D02*
G01*
X164745632Y-117838261D01*
X164731987Y-117925849D01*
X164688255Y-118028146D01*
X164614344Y-118132991D01*
X164547875Y-118185408D01*
X164491629Y-118180912D01*
X164460438Y-118115642D01*
X164458399Y-118087597D01*
X164480757Y-117973598D01*
X164537050Y-117860417D01*
X164611727Y-117782318D01*
X164683022Y-117755857D01*
X164729280Y-117777544D01*
G37*
G36*
X155327778Y-117584779D02*
G01*
X155344854Y-117614221D01*
X155371320Y-117704443D01*
X155375277Y-117796665D01*
X155353643Y-117858287D01*
X155297742Y-117884646D01*
X155250415Y-117857640D01*
X155219525Y-117792466D01*
X155212464Y-117704792D01*
X155236625Y-117610287D01*
X155265844Y-117552339D01*
X155291085Y-117542036D01*
X155327778Y-117584779D01*
G37*
G36*
X155079425Y-117580370D02*
G01*
X155116073Y-117631401D01*
X155132007Y-117714310D01*
X155120364Y-117797195D01*
X155098112Y-117832500D01*
X155049648Y-117840184D01*
X155000404Y-117785997D01*
X154986648Y-117727032D01*
X154997723Y-117651144D01*
X155029565Y-117592684D01*
X155073113Y-117577612D01*
X155079425Y-117580370D01*
G37*
G36*
X156309863Y-117479079D02*
G01*
X156374412Y-117529537D01*
X156433297Y-117605673D01*
X156470598Y-117684158D01*
X156470399Y-117741669D01*
X156444832Y-117767952D01*
X156379891Y-117766762D01*
X156289873Y-117701874D01*
X156282795Y-117695011D01*
X156226377Y-117615558D01*
X156207878Y-117539837D01*
X156227609Y-117485772D01*
X156285880Y-117471288D01*
X156309863Y-117479079D01*
G37*
G36*
X154783118Y-117447434D02*
G01*
X154801156Y-117503887D01*
X154783444Y-117595150D01*
X154753881Y-117657593D01*
X154722818Y-117662820D01*
X154681600Y-117601607D01*
X154661105Y-117542131D01*
X154684628Y-117480159D01*
X154739399Y-117437506D01*
X154783118Y-117447434D01*
G37*
G36*
X155061351Y-116459500D02*
G01*
X155158551Y-116490459D01*
X155283509Y-116557981D01*
X155419561Y-116649969D01*
X155550041Y-116754326D01*
X155658287Y-116858953D01*
X155727634Y-116951753D01*
X155727677Y-116951833D01*
X155748432Y-117026756D01*
X155715203Y-117060825D01*
X155634274Y-117047589D01*
X155619706Y-117042107D01*
X155570958Y-117030185D01*
X155558009Y-117056398D01*
X155569966Y-117135663D01*
X155570058Y-117136158D01*
X155577082Y-117226013D01*
X155554353Y-117256830D01*
X155553581Y-117256807D01*
X155510603Y-117228346D01*
X155448286Y-117159042D01*
X155380858Y-117068053D01*
X155322547Y-116974533D01*
X155287579Y-116897640D01*
X155271304Y-116863695D01*
X155212048Y-116783216D01*
X155130211Y-116696973D01*
X155053882Y-116615732D01*
X155003849Y-116534694D01*
X155001001Y-116479275D01*
X155048514Y-116458743D01*
X155061351Y-116459500D01*
G37*
G36*
X156020823Y-116698071D02*
G01*
X156112655Y-116736608D01*
X156153640Y-116753899D01*
X156264185Y-116790171D01*
X156350096Y-116804975D01*
X156382140Y-116806627D01*
X156466405Y-116833232D01*
X156494826Y-116885446D01*
X156460852Y-116954432D01*
X156438099Y-116976341D01*
X156369709Y-117006033D01*
X156265045Y-117002588D01*
X156200829Y-116986803D01*
X156096579Y-116935388D01*
X156007803Y-116864722D01*
X155951064Y-116789177D01*
X155942929Y-116723124D01*
X155948215Y-116710967D01*
X155972158Y-116690013D01*
X156020823Y-116698071D01*
G37*
G36*
X155990100Y-115786083D02*
G01*
X156064285Y-115818960D01*
X156172421Y-115878484D01*
X156300853Y-115957546D01*
X156376587Y-116005427D01*
X156529828Y-116097463D01*
X156671823Y-116177158D01*
X156779430Y-116231277D01*
X156847280Y-116264481D01*
X156951135Y-116326424D01*
X157018860Y-116381191D01*
X157055991Y-116426067D01*
X157061133Y-116459177D01*
X157018860Y-116490673D01*
X156948963Y-116511667D01*
X156853067Y-116510611D01*
X156738515Y-116479257D01*
X156575818Y-116412395D01*
X156409109Y-116325686D01*
X156262085Y-116231675D01*
X156158444Y-116142907D01*
X156145526Y-116128429D01*
X156052521Y-116011556D01*
X155986917Y-115906495D01*
X155955570Y-115826025D01*
X155965335Y-115782927D01*
X155990100Y-115786083D01*
G37*
G36*
X164886582Y-115892946D02*
G01*
X164905079Y-115948280D01*
X164889345Y-116033581D01*
X164846009Y-116119941D01*
X164784453Y-116180914D01*
X164713279Y-116211582D01*
X164658399Y-116204681D01*
X164643759Y-116156049D01*
X164671253Y-116075197D01*
X164742775Y-115971640D01*
X164799575Y-115909803D01*
X164849229Y-115878530D01*
X164886582Y-115892946D01*
G37*
G36*
X164912764Y-115054543D02*
G01*
X164918996Y-115096789D01*
X164917352Y-115115049D01*
X164878473Y-115214098D01*
X164791859Y-115346008D01*
X164662777Y-115502441D01*
X164580556Y-115614517D01*
X164503001Y-115813319D01*
X164488017Y-115872543D01*
X164449597Y-115979722D01*
X164409416Y-116049607D01*
X164363865Y-116090842D01*
X164292810Y-116107103D01*
X164206250Y-116062866D01*
X164178034Y-116040952D01*
X164158549Y-116009177D01*
X164171103Y-115961573D01*
X164216968Y-115875969D01*
X164236151Y-115839498D01*
X164277893Y-115738826D01*
X164294536Y-115662883D01*
X164299081Y-115612904D01*
X164349286Y-115488784D01*
X164458200Y-115356408D01*
X164629831Y-115210365D01*
X164745891Y-115124240D01*
X164835205Y-115064736D01*
X164887832Y-115042681D01*
X164912764Y-115054543D01*
G37*
G36*
X165179308Y-115610600D02*
G01*
X165200665Y-115666381D01*
X165196752Y-115744985D01*
X165168952Y-115825002D01*
X165118648Y-115885024D01*
X165050664Y-115920162D01*
X164974033Y-115925434D01*
X164929886Y-115883831D01*
X164930401Y-115857353D01*
X164961716Y-115785279D01*
X165017910Y-115702388D01*
X165082053Y-115632048D01*
X165137218Y-115597627D01*
X165179308Y-115610600D01*
G37*
G36*
X165417440Y-115378987D02*
G01*
X165449792Y-115453182D01*
X165458118Y-115543214D01*
X165436863Y-115611925D01*
X165410246Y-115642839D01*
X165377681Y-115657867D01*
X165321008Y-115639593D01*
X165284728Y-115603440D01*
X165266121Y-115522394D01*
X165268555Y-115491232D01*
X165297531Y-115412038D01*
X165346550Y-115362674D01*
X165399554Y-115362395D01*
X165417440Y-115378987D01*
G37*
G36*
X155554274Y-114760095D02*
G01*
X155597068Y-114797342D01*
X155671961Y-114876346D01*
X155769853Y-114987197D01*
X155881645Y-115119985D01*
X155907611Y-115151357D01*
X156018978Y-115282556D01*
X156115737Y-115391403D01*
X156188267Y-115467318D01*
X156226946Y-115499719D01*
X156262863Y-115524774D01*
X156312613Y-115589296D01*
X156323282Y-115611239D01*
X156329712Y-115658319D01*
X156294471Y-115663012D01*
X156225061Y-115628660D01*
X156128985Y-115558605D01*
X156013748Y-115456188D01*
X155908763Y-115351125D01*
X155774903Y-115203466D01*
X155663534Y-115064663D01*
X155579993Y-114942738D01*
X155529615Y-114845716D01*
X155517738Y-114781618D01*
X155549697Y-114758470D01*
X155554274Y-114760095D01*
G37*
G36*
X164936744Y-114287012D02*
G01*
X164990360Y-114326438D01*
X165017216Y-114371767D01*
X165003210Y-114433664D01*
X164949400Y-114532632D01*
X164926913Y-114568328D01*
X164861135Y-114639943D01*
X164808530Y-114644142D01*
X164771507Y-114581887D01*
X164752477Y-114454136D01*
X164754787Y-114335118D01*
X164784217Y-114259224D01*
X164844160Y-114243832D01*
X164936744Y-114287012D01*
G37*
G36*
X164577278Y-114392798D02*
G01*
X164621768Y-114454174D01*
X164660607Y-114562147D01*
X164671736Y-114616962D01*
X164659150Y-114649698D01*
X164602672Y-114648701D01*
X164560956Y-114637638D01*
X164524912Y-114596338D01*
X164509313Y-114506898D01*
X164511836Y-114424621D01*
X164537260Y-114381714D01*
X164577278Y-114392798D01*
G37*
G36*
X164273880Y-114195759D02*
G01*
X164313929Y-114264989D01*
X164323224Y-114347649D01*
X164319152Y-114363421D01*
X164272319Y-114436339D01*
X164193981Y-114505706D01*
X164125730Y-114549370D01*
X164058003Y-114579540D01*
X164025384Y-114565164D01*
X164016940Y-114506279D01*
X164030606Y-114447078D01*
X164071186Y-114358287D01*
X164125561Y-114267584D01*
X164180342Y-114197003D01*
X164222139Y-114168579D01*
X164273880Y-114195759D01*
G37*
G36*
X164294536Y-113665437D02*
G01*
X164277186Y-113682786D01*
X164259836Y-113665437D01*
X164277186Y-113648087D01*
X164294536Y-113665437D01*
G37*
G36*
X160943703Y-112688341D02*
G01*
X160970812Y-112738912D01*
X160975856Y-112837569D01*
X160961768Y-112969427D01*
X160931480Y-113119603D01*
X160887926Y-113273212D01*
X160834037Y-113415370D01*
X160772748Y-113531193D01*
X160740527Y-113572440D01*
X160693228Y-113594187D01*
X160662331Y-113551358D01*
X160651505Y-113446517D01*
X160663075Y-113319300D01*
X160693490Y-113174446D01*
X160737350Y-113026312D01*
X160789254Y-112889167D01*
X160843802Y-112777279D01*
X160895593Y-112704916D01*
X160939227Y-112686346D01*
X160943703Y-112688341D01*
G37*
G36*
X160416157Y-112619429D02*
G01*
X160501384Y-112682551D01*
X160533293Y-112716420D01*
X160579202Y-112817193D01*
X160560292Y-112934796D01*
X160535441Y-112969891D01*
X160490893Y-112950735D01*
X160467340Y-112924995D01*
X160442897Y-112863101D01*
X160438633Y-112842874D01*
X160397787Y-112815300D01*
X160342374Y-112801665D01*
X160297612Y-112746544D01*
X160306944Y-112671186D01*
X160353769Y-112617194D01*
X160416157Y-112619429D01*
G37*
G36*
X159759289Y-111955648D02*
G01*
X159762843Y-112034805D01*
X159744867Y-112135867D01*
X159708100Y-112234084D01*
X159683495Y-112271380D01*
X159632970Y-112297141D01*
X159592181Y-112263708D01*
X159575410Y-112177204D01*
X159575945Y-112160859D01*
X159597090Y-112065679D01*
X159640070Y-111982471D01*
X159692540Y-111929813D01*
X159742151Y-111926288D01*
X159759289Y-111955648D01*
G37*
D11*
X140222500Y-87047936D02*
X140222500Y-87502064D01*
X138752500Y-87047936D02*
X138752500Y-87502064D01*
X109765000Y-45798752D02*
X109765000Y-45276248D01*
X111235000Y-45798752D02*
X111235000Y-45276248D01*
X136026248Y-109515000D02*
X136548752Y-109515000D01*
X136026248Y-110985000D02*
X136548752Y-110985000D01*
X136110000Y-74360000D02*
X136110000Y-74160000D01*
X136110000Y-61840000D02*
X137400000Y-61840000D01*
X136110000Y-61640000D02*
X136110000Y-61840000D01*
X132000000Y-74360000D02*
X136110000Y-74360000D01*
X132000000Y-74360000D02*
X127890000Y-74360000D01*
X132000000Y-61640000D02*
X136110000Y-61640000D01*
X132000000Y-61640000D02*
X127890000Y-61640000D01*
X127890000Y-74360000D02*
X127890000Y-74160000D01*
X127890000Y-61640000D02*
X127890000Y-61840000D01*
X142222500Y-91047936D02*
X142222500Y-91502064D01*
X140752500Y-91047936D02*
X140752500Y-91502064D01*
X135938748Y-99065000D02*
X136461252Y-99065000D01*
X135938748Y-100535000D02*
X136461252Y-100535000D01*
X132348752Y-87310000D02*
X131826248Y-87310000D01*
X132348752Y-85840000D02*
X131826248Y-85840000D01*
X125622500Y-91047936D02*
X125622500Y-91502064D01*
X124152500Y-91047936D02*
X124152500Y-91502064D01*
X140752500Y-87502064D02*
X140752500Y-87047936D01*
X142222500Y-87502064D02*
X142222500Y-87047936D01*
X127622500Y-87047936D02*
X127622500Y-87502064D01*
X126152500Y-87047936D02*
X126152500Y-87502064D01*
X117935000Y-45272936D02*
X117935000Y-45727064D01*
X116465000Y-45272936D02*
X116465000Y-45727064D01*
X132387500Y-91385000D02*
X133887500Y-91385000D01*
X132387500Y-91385000D02*
X130887500Y-91385000D01*
X132387500Y-88165000D02*
X135312500Y-88165000D01*
X132387500Y-88165000D02*
X130887500Y-88165000D01*
X124152500Y-87502064D02*
X124152500Y-87047936D01*
X125622500Y-87502064D02*
X125622500Y-87047936D01*
X138752500Y-91502064D02*
X138752500Y-91047936D01*
X140222500Y-91502064D02*
X140222500Y-91047936D01*
X126152500Y-91502064D02*
X126152500Y-91047936D01*
X127622500Y-91502064D02*
X127622500Y-91047936D01*
X113765000Y-45798752D02*
X113765000Y-45276248D01*
X115235000Y-45798752D02*
X115235000Y-45276248D01*
X120738748Y-44765000D02*
X121261252Y-44765000D01*
X120738748Y-46235000D02*
X121261252Y-46235000D01*
%LPC*%
D12*
X148500000Y-102000000D03*
D13*
X148500000Y-107000000D03*
X148500000Y-104500000D03*
D14*
X156000000Y-98900000D03*
X156000000Y-110100000D03*
D13*
X163000000Y-107000000D03*
X163000000Y-102000000D03*
D15*
X132000000Y-124400000D03*
X130302944Y-123697056D03*
X133697056Y-123697056D03*
X129600000Y-122000000D03*
D16*
X132000000Y-122000000D03*
D15*
X134400000Y-122000000D03*
X130302944Y-120302944D03*
X133697056Y-120302944D03*
X132000000Y-119600000D03*
X162100000Y-130500000D03*
X162802944Y-128802944D03*
X162802944Y-132197056D03*
X164500000Y-128100000D03*
D16*
X164500000Y-130500000D03*
D15*
X164500000Y-132900000D03*
X166197056Y-128802944D03*
X166197056Y-132197056D03*
X166900000Y-130500000D03*
D17*
X114420000Y-134360000D03*
X124580000Y-134360000D03*
X114420000Y-124200000D03*
X124580000Y-124200000D03*
D18*
X119500000Y-128000000D03*
D19*
X168000000Y-65500000D03*
X163000000Y-68000000D03*
X168000000Y-70500000D03*
D15*
X97100000Y-45500000D03*
X97802944Y-43802944D03*
X97802944Y-47197056D03*
X99500000Y-43100000D03*
D16*
X99500000Y-45500000D03*
D15*
X99500000Y-47900000D03*
X101197056Y-43802944D03*
X101197056Y-47197056D03*
X101900000Y-45500000D03*
X132000000Y-134350000D03*
X130302944Y-133647056D03*
X133697056Y-133647056D03*
X129600000Y-131950000D03*
D16*
X132000000Y-131950000D03*
D15*
X134400000Y-131950000D03*
X130302944Y-130252944D03*
X133697056Y-130252944D03*
X132000000Y-129550000D03*
D20*
X157000000Y-44350000D03*
D21*
X157000000Y-41810000D03*
D22*
X110410000Y-80600000D03*
X112950000Y-80600000D03*
X115490000Y-80600000D03*
X118030000Y-80600000D03*
X120570000Y-80600000D03*
X123110000Y-80600000D03*
X125650000Y-80600000D03*
X128190000Y-80600000D03*
X130730000Y-80600000D03*
X133270000Y-80600000D03*
X135810000Y-80600000D03*
X138350000Y-80600000D03*
X140890000Y-80600000D03*
X143430000Y-80600000D03*
X145970000Y-80600000D03*
X148510000Y-80600000D03*
X151050000Y-80600000D03*
X153590000Y-80600000D03*
X153590000Y-55600000D03*
X151050000Y-55600000D03*
X148510000Y-55600000D03*
X145970000Y-55600000D03*
X143430000Y-55600000D03*
X140890000Y-55600000D03*
X138350000Y-55600000D03*
X135810000Y-55600000D03*
X133270000Y-55600000D03*
X130730000Y-55600000D03*
X128190000Y-55600000D03*
X125650000Y-55600000D03*
X123110000Y-55600000D03*
X120570000Y-55600000D03*
X118030000Y-55600000D03*
X115490000Y-55600000D03*
X112950000Y-55600000D03*
X110410000Y-55600000D03*
D15*
X162100000Y-45500000D03*
X162802944Y-43802944D03*
X162802944Y-47197056D03*
X164500000Y-43100000D03*
D16*
X164500000Y-45500000D03*
D15*
X164500000Y-47900000D03*
X166197056Y-43802944D03*
X166197056Y-47197056D03*
X166900000Y-45500000D03*
X97100000Y-130500000D03*
X97802944Y-128802944D03*
X97802944Y-132197056D03*
X99500000Y-128100000D03*
D16*
X99500000Y-130500000D03*
D15*
X99500000Y-132900000D03*
X101197056Y-128802944D03*
X101197056Y-132197056D03*
X101900000Y-130500000D03*
D23*
X151090000Y-46610000D03*
D24*
X143890000Y-46610000D03*
D25*
X151980000Y-39410000D03*
X151620000Y-45360000D03*
X143360000Y-45360000D03*
X143000000Y-39410000D03*
D20*
X110000000Y-131000000D03*
D21*
X110000000Y-133540000D03*
D17*
X139420000Y-134360000D03*
X149580000Y-134360000D03*
X139420000Y-124200000D03*
X149580000Y-124200000D03*
D18*
X144500000Y-128000000D03*
D26*
X139487500Y-86275000D03*
X139487500Y-88275000D03*
D27*
X110500000Y-46575000D03*
X110500000Y-44500000D03*
D28*
X135250000Y-110250000D03*
X137325000Y-110250000D03*
D29*
X96500000Y-100100000D03*
D18*
X96500000Y-100100000D03*
D30*
X136662500Y-62250000D03*
X136662500Y-62750000D03*
X136662500Y-63250000D03*
X136662500Y-63750000D03*
X136662500Y-64250000D03*
X136662500Y-64750000D03*
X136662500Y-65250000D03*
X136662500Y-65750000D03*
X136662500Y-66250000D03*
X136662500Y-66750000D03*
X136662500Y-67250000D03*
X136662500Y-67750000D03*
X136662500Y-68250000D03*
X136662500Y-68750000D03*
X136662500Y-69250000D03*
X136662500Y-69750000D03*
X136662500Y-70250000D03*
X136662500Y-70750000D03*
X136662500Y-71250000D03*
X136662500Y-71750000D03*
X136662500Y-72250000D03*
X136662500Y-72750000D03*
X136662500Y-73250000D03*
X136662500Y-73750000D03*
X127337500Y-73750000D03*
X127337500Y-73250000D03*
X127337500Y-72750000D03*
X127337500Y-72250000D03*
X127337500Y-71750000D03*
X127337500Y-71250000D03*
X127337500Y-70750000D03*
X127337500Y-70250000D03*
X127337500Y-69750000D03*
X127337500Y-69250000D03*
X127337500Y-68750000D03*
X127337500Y-68250000D03*
X127337500Y-67750000D03*
X127337500Y-67250000D03*
X127337500Y-66750000D03*
X127337500Y-66250000D03*
X127337500Y-65750000D03*
X127337500Y-65250000D03*
X127337500Y-64750000D03*
X127337500Y-64250000D03*
X127337500Y-63750000D03*
X127337500Y-63250000D03*
X127337500Y-62750000D03*
X127337500Y-62250000D03*
D26*
X141487500Y-90275000D03*
X141487500Y-92275000D03*
D28*
X135162500Y-99800000D03*
X137237500Y-99800000D03*
D31*
X133125000Y-86575000D03*
X131050000Y-86575000D03*
D26*
X124887500Y-90275000D03*
X124887500Y-92275000D03*
D29*
X96500000Y-123100000D03*
D18*
X96500000Y-123100000D03*
D32*
X141487500Y-88275000D03*
X141487500Y-86275000D03*
D26*
X126887500Y-86275000D03*
X126887500Y-88275000D03*
X117200000Y-44500000D03*
X117200000Y-46500000D03*
D29*
X108500000Y-123100000D03*
D18*
X108500000Y-123100000D03*
D33*
X134500000Y-88800000D03*
X134500000Y-89450000D03*
X134500000Y-90100000D03*
X134500000Y-90750000D03*
X130275000Y-90750000D03*
X130275000Y-90100000D03*
X130275000Y-89450000D03*
X130275000Y-88800000D03*
D32*
X124887500Y-88275000D03*
X124887500Y-86275000D03*
X139487500Y-92275000D03*
X139487500Y-90275000D03*
X126887500Y-92275000D03*
X126887500Y-90275000D03*
D27*
X114500000Y-46575000D03*
X114500000Y-44500000D03*
D28*
X119962500Y-45500000D03*
X122037500Y-45500000D03*
D29*
X108500000Y-100100000D03*
D18*
X108500000Y-100100000D03*
M02*
