G04 #@! TF.GenerationSoftware,KiCad,Pcbnew,7.0.1*
G04 #@! TF.CreationDate,2024-06-01T20:06:03-04:00*
G04 #@! TF.ProjectId,current_sink_dev,63757272-656e-4745-9f73-696e6b5f6465,rev?*
G04 #@! TF.SameCoordinates,Original*
G04 #@! TF.FileFunction,Paste,Bot*
G04 #@! TF.FilePolarity,Positive*
%FSLAX46Y46*%
G04 Gerber Fmt 4.6, Leading zero omitted, Abs format (unit mm)*
G04 Created by KiCad (PCBNEW 7.0.1) date 2024-06-01 20:06:03*
%MOMM*%
%LPD*%
G01*
G04 APERTURE LIST*
G04 Aperture macros list*
%AMRoundRect*
0 Rectangle with rounded corners*
0 $1 Rounding radius*
0 $2 $3 $4 $5 $6 $7 $8 $9 X,Y pos of 4 corners*
0 Add a 4 corners polygon primitive as box body*
4,1,4,$2,$3,$4,$5,$6,$7,$8,$9,$2,$3,0*
0 Add four circle primitives for the rounded corners*
1,1,$1+$1,$2,$3*
1,1,$1+$1,$4,$5*
1,1,$1+$1,$6,$7*
1,1,$1+$1,$8,$9*
0 Add four rect primitives between the rounded corners*
20,1,$1+$1,$2,$3,$4,$5,0*
20,1,$1+$1,$4,$5,$6,$7,0*
20,1,$1+$1,$6,$7,$8,$9,0*
20,1,$1+$1,$8,$9,$2,$3,0*%
G04 Aperture macros list end*
%ADD10RoundRect,0.250000X-0.450000X0.350000X-0.450000X-0.350000X0.450000X-0.350000X0.450000X0.350000X0*%
%ADD11RoundRect,0.250000X0.475000X-0.337500X0.475000X0.337500X-0.475000X0.337500X-0.475000X-0.337500X0*%
%ADD12RoundRect,0.250000X-0.337500X-0.475000X0.337500X-0.475000X0.337500X0.475000X-0.337500X0.475000X0*%
%ADD13RoundRect,0.075000X0.662500X0.075000X-0.662500X0.075000X-0.662500X-0.075000X0.662500X-0.075000X0*%
%ADD14RoundRect,0.250000X0.337500X0.475000X-0.337500X0.475000X-0.337500X-0.475000X0.337500X-0.475000X0*%
%ADD15RoundRect,0.250000X0.450000X-0.350000X0.450000X0.350000X-0.450000X0.350000X-0.450000X-0.350000X0*%
%ADD16RoundRect,0.100000X0.712500X0.100000X-0.712500X0.100000X-0.712500X-0.100000X0.712500X-0.100000X0*%
G04 APERTURE END LIST*
D10*
X139487500Y-86275000D03*
X139487500Y-88275000D03*
D11*
X110500000Y-46575000D03*
X110500000Y-44500000D03*
D12*
X135250000Y-110250000D03*
X137325000Y-110250000D03*
D13*
X136662500Y-62250000D03*
X136662500Y-62750000D03*
X136662500Y-63250000D03*
X136662500Y-63750000D03*
X136662500Y-64250000D03*
X136662500Y-64750000D03*
X136662500Y-65250000D03*
X136662500Y-65750000D03*
X136662500Y-66250000D03*
X136662500Y-66750000D03*
X136662500Y-67250000D03*
X136662500Y-67750000D03*
X136662500Y-68250000D03*
X136662500Y-68750000D03*
X136662500Y-69250000D03*
X136662500Y-69750000D03*
X136662500Y-70250000D03*
X136662500Y-70750000D03*
X136662500Y-71250000D03*
X136662500Y-71750000D03*
X136662500Y-72250000D03*
X136662500Y-72750000D03*
X136662500Y-73250000D03*
X136662500Y-73750000D03*
X127337500Y-73750000D03*
X127337500Y-73250000D03*
X127337500Y-72750000D03*
X127337500Y-72250000D03*
X127337500Y-71750000D03*
X127337500Y-71250000D03*
X127337500Y-70750000D03*
X127337500Y-70250000D03*
X127337500Y-69750000D03*
X127337500Y-69250000D03*
X127337500Y-68750000D03*
X127337500Y-68250000D03*
X127337500Y-67750000D03*
X127337500Y-67250000D03*
X127337500Y-66750000D03*
X127337500Y-66250000D03*
X127337500Y-65750000D03*
X127337500Y-65250000D03*
X127337500Y-64750000D03*
X127337500Y-64250000D03*
X127337500Y-63750000D03*
X127337500Y-63250000D03*
X127337500Y-62750000D03*
X127337500Y-62250000D03*
D10*
X141487500Y-90275000D03*
X141487500Y-92275000D03*
D12*
X135162500Y-99800000D03*
X137237500Y-99800000D03*
D14*
X133125000Y-86575000D03*
X131050000Y-86575000D03*
D10*
X124887500Y-90275000D03*
X124887500Y-92275000D03*
D15*
X141487500Y-88275000D03*
X141487500Y-86275000D03*
D10*
X126887500Y-86275000D03*
X126887500Y-88275000D03*
X117200000Y-44500000D03*
X117200000Y-46500000D03*
D16*
X134500000Y-88800000D03*
X134500000Y-89450000D03*
X134500000Y-90100000D03*
X134500000Y-90750000D03*
X130275000Y-90750000D03*
X130275000Y-90100000D03*
X130275000Y-89450000D03*
X130275000Y-88800000D03*
D15*
X124887500Y-88275000D03*
X124887500Y-86275000D03*
X139487500Y-92275000D03*
X139487500Y-90275000D03*
X126887500Y-92275000D03*
X126887500Y-90275000D03*
D11*
X114500000Y-46575000D03*
X114500000Y-44500000D03*
D12*
X119962500Y-45500000D03*
X122037500Y-45500000D03*
M02*
