%TF.GenerationSoftware,KiCad,Pcbnew,7.0.1*%
%TF.CreationDate,2024-06-01T20:06:12-04:00*%
%TF.ProjectId,current_sink_dev,63757272-656e-4745-9f73-696e6b5f6465,rev?*%
%TF.SameCoordinates,Original*%
%TF.FileFunction,Drillmap*%
%TF.FilePolarity,Positive*%
%FSLAX45Y45*%
G04 Gerber Fmt 4.5, Leading zero omitted, Abs format (unit mm)*
G04 Created by KiCad (PCBNEW 7.0.1) date 2024-06-01 20:06:12*
%MOMM*%
%LPD*%
G01*
G04 APERTURE LIST*
%ADD10C,0.100000*%
%ADD11C,0.200000*%
%ADD12C,0.065000*%
%ADD13C,0.120000*%
G04 APERTURE END LIST*
D10*
X16775736Y-13800000D02*
G75*
G03*
X17200000Y-13375736I4J424260D01*
G01*
X15000000Y-6160000D02*
G75*
G03*
X15000000Y-6160000I-100000J0D01*
G01*
X15000000Y-7210000D02*
G75*
G03*
X15000000Y-7210000I-100000J0D01*
G01*
X11150000Y-7210000D02*
G75*
G03*
X11150000Y-7210000I-100000J0D01*
G01*
X17200000Y-4224264D02*
G75*
G03*
X16775736Y-3800000I-424260J4D01*
G01*
X16775736Y-13800000D02*
X9624264Y-13800000D01*
X9200000Y-13375736D02*
X9200000Y-4224264D01*
X9624264Y-3800000D02*
G75*
G03*
X9200000Y-4224264I0J-424264D01*
G01*
X9624264Y-3800000D02*
X16775736Y-3800000D01*
X17200000Y-4224264D02*
X17200000Y-13375736D01*
X9200000Y-13375736D02*
G75*
G03*
X9624264Y-13800000I424260J-4D01*
G01*
X11150000Y-6160000D02*
G75*
G03*
X11150000Y-6160000I-100000J0D01*
G01*
D11*
D12*
X14356500Y-4628500D02*
X14421500Y-4693500D01*
X14421500Y-4628500D02*
X14356500Y-4693500D01*
D11*
X14404000Y-4628500D02*
X14374000Y-4628500D01*
X14374000Y-4628500D02*
G75*
G03*
X14374000Y-4693500I0J-32500D01*
G01*
X14374000Y-4693500D02*
X14404000Y-4693500D01*
X14404000Y-4693500D02*
G75*
G03*
X14404000Y-4628500I0J32500D01*
G01*
D12*
X15076500Y-4628500D02*
X15141500Y-4693500D01*
X15141500Y-4628500D02*
X15076500Y-4693500D01*
D13*
X11502000Y-12420000D02*
G75*
G03*
X11502000Y-12420000I-60000J0D01*
G01*
X11502000Y-13436000D02*
G75*
G03*
X11502000Y-13436000I-60000J0D01*
G01*
X12518000Y-12420000D02*
G75*
G03*
X12518000Y-12420000I-60000J0D01*
G01*
X12518000Y-13436000D02*
G75*
G03*
X12518000Y-13436000I-60000J0D01*
G01*
X14002000Y-12420000D02*
G75*
G03*
X14002000Y-12420000I-60000J0D01*
G01*
X14002000Y-13436000D02*
G75*
G03*
X14002000Y-13436000I-60000J0D01*
G01*
X15018000Y-12420000D02*
G75*
G03*
X15018000Y-12420000I-60000J0D01*
G01*
X15018000Y-13436000D02*
G75*
G03*
X15018000Y-13436000I-60000J0D01*
G01*
D11*
X9442619Y-14117524D02*
X9442619Y-13917524D01*
X9442619Y-13917524D02*
X9490238Y-13917524D01*
X9490238Y-13917524D02*
X9518810Y-13927048D01*
X9518810Y-13927048D02*
X9537857Y-13946095D01*
X9537857Y-13946095D02*
X9547381Y-13965143D01*
X9547381Y-13965143D02*
X9556905Y-14003238D01*
X9556905Y-14003238D02*
X9556905Y-14031809D01*
X9556905Y-14031809D02*
X9547381Y-14069905D01*
X9547381Y-14069905D02*
X9537857Y-14088952D01*
X9537857Y-14088952D02*
X9518810Y-14108000D01*
X9518810Y-14108000D02*
X9490238Y-14117524D01*
X9490238Y-14117524D02*
X9442619Y-14117524D01*
X9642619Y-14117524D02*
X9642619Y-13984190D01*
X9642619Y-14022286D02*
X9652143Y-14003238D01*
X9652143Y-14003238D02*
X9661667Y-13993714D01*
X9661667Y-13993714D02*
X9680714Y-13984190D01*
X9680714Y-13984190D02*
X9699762Y-13984190D01*
X9766429Y-14117524D02*
X9766429Y-13984190D01*
X9766429Y-13917524D02*
X9756905Y-13927048D01*
X9756905Y-13927048D02*
X9766429Y-13936571D01*
X9766429Y-13936571D02*
X9775952Y-13927048D01*
X9775952Y-13927048D02*
X9766429Y-13917524D01*
X9766429Y-13917524D02*
X9766429Y-13936571D01*
X9890238Y-14117524D02*
X9871190Y-14108000D01*
X9871190Y-14108000D02*
X9861667Y-14088952D01*
X9861667Y-14088952D02*
X9861667Y-13917524D01*
X9995000Y-14117524D02*
X9975952Y-14108000D01*
X9975952Y-14108000D02*
X9966429Y-14088952D01*
X9966429Y-14088952D02*
X9966429Y-13917524D01*
X10223571Y-14117524D02*
X10223571Y-13917524D01*
X10223571Y-13917524D02*
X10290238Y-14060381D01*
X10290238Y-14060381D02*
X10356905Y-13917524D01*
X10356905Y-13917524D02*
X10356905Y-14117524D01*
X10537857Y-14117524D02*
X10537857Y-14012762D01*
X10537857Y-14012762D02*
X10528333Y-13993714D01*
X10528333Y-13993714D02*
X10509286Y-13984190D01*
X10509286Y-13984190D02*
X10471190Y-13984190D01*
X10471190Y-13984190D02*
X10452143Y-13993714D01*
X10537857Y-14108000D02*
X10518810Y-14117524D01*
X10518810Y-14117524D02*
X10471190Y-14117524D01*
X10471190Y-14117524D02*
X10452143Y-14108000D01*
X10452143Y-14108000D02*
X10442619Y-14088952D01*
X10442619Y-14088952D02*
X10442619Y-14069905D01*
X10442619Y-14069905D02*
X10452143Y-14050857D01*
X10452143Y-14050857D02*
X10471190Y-14041333D01*
X10471190Y-14041333D02*
X10518810Y-14041333D01*
X10518810Y-14041333D02*
X10537857Y-14031809D01*
X10633095Y-13984190D02*
X10633095Y-14184190D01*
X10633095Y-13993714D02*
X10652143Y-13984190D01*
X10652143Y-13984190D02*
X10690238Y-13984190D01*
X10690238Y-13984190D02*
X10709286Y-13993714D01*
X10709286Y-13993714D02*
X10718810Y-14003238D01*
X10718810Y-14003238D02*
X10728333Y-14022286D01*
X10728333Y-14022286D02*
X10728333Y-14079428D01*
X10728333Y-14079428D02*
X10718810Y-14098476D01*
X10718810Y-14098476D02*
X10709286Y-14108000D01*
X10709286Y-14108000D02*
X10690238Y-14117524D01*
X10690238Y-14117524D02*
X10652143Y-14117524D01*
X10652143Y-14117524D02*
X10633095Y-14108000D01*
X10814048Y-14098476D02*
X10823571Y-14108000D01*
X10823571Y-14108000D02*
X10814048Y-14117524D01*
X10814048Y-14117524D02*
X10804524Y-14108000D01*
X10804524Y-14108000D02*
X10814048Y-14098476D01*
X10814048Y-14098476D02*
X10814048Y-14117524D01*
X10814048Y-13993714D02*
X10823571Y-14003238D01*
X10823571Y-14003238D02*
X10814048Y-14012762D01*
X10814048Y-14012762D02*
X10804524Y-14003238D01*
X10804524Y-14003238D02*
X10814048Y-13993714D01*
X10814048Y-13993714D02*
X10814048Y-14012762D01*
D12*
X9130000Y-14412500D02*
X9195000Y-14477500D01*
X9195000Y-14412500D02*
X9130000Y-14477500D01*
D11*
X9480714Y-14337524D02*
X9499762Y-14337524D01*
X9499762Y-14337524D02*
X9518810Y-14347048D01*
X9518810Y-14347048D02*
X9528333Y-14356571D01*
X9528333Y-14356571D02*
X9537857Y-14375619D01*
X9537857Y-14375619D02*
X9547381Y-14413714D01*
X9547381Y-14413714D02*
X9547381Y-14461333D01*
X9547381Y-14461333D02*
X9537857Y-14499428D01*
X9537857Y-14499428D02*
X9528333Y-14518476D01*
X9528333Y-14518476D02*
X9518810Y-14528000D01*
X9518810Y-14528000D02*
X9499762Y-14537524D01*
X9499762Y-14537524D02*
X9480714Y-14537524D01*
X9480714Y-14537524D02*
X9461667Y-14528000D01*
X9461667Y-14528000D02*
X9452143Y-14518476D01*
X9452143Y-14518476D02*
X9442619Y-14499428D01*
X9442619Y-14499428D02*
X9433095Y-14461333D01*
X9433095Y-14461333D02*
X9433095Y-14413714D01*
X9433095Y-14413714D02*
X9442619Y-14375619D01*
X9442619Y-14375619D02*
X9452143Y-14356571D01*
X9452143Y-14356571D02*
X9461667Y-14347048D01*
X9461667Y-14347048D02*
X9480714Y-14337524D01*
X9633095Y-14518476D02*
X9642619Y-14528000D01*
X9642619Y-14528000D02*
X9633095Y-14537524D01*
X9633095Y-14537524D02*
X9623571Y-14528000D01*
X9623571Y-14528000D02*
X9633095Y-14518476D01*
X9633095Y-14518476D02*
X9633095Y-14537524D01*
X9814048Y-14337524D02*
X9775952Y-14337524D01*
X9775952Y-14337524D02*
X9756905Y-14347048D01*
X9756905Y-14347048D02*
X9747381Y-14356571D01*
X9747381Y-14356571D02*
X9728333Y-14385143D01*
X9728333Y-14385143D02*
X9718810Y-14423238D01*
X9718810Y-14423238D02*
X9718810Y-14499428D01*
X9718810Y-14499428D02*
X9728333Y-14518476D01*
X9728333Y-14518476D02*
X9737857Y-14528000D01*
X9737857Y-14528000D02*
X9756905Y-14537524D01*
X9756905Y-14537524D02*
X9795000Y-14537524D01*
X9795000Y-14537524D02*
X9814048Y-14528000D01*
X9814048Y-14528000D02*
X9823571Y-14518476D01*
X9823571Y-14518476D02*
X9833095Y-14499428D01*
X9833095Y-14499428D02*
X9833095Y-14451809D01*
X9833095Y-14451809D02*
X9823571Y-14432762D01*
X9823571Y-14432762D02*
X9814048Y-14423238D01*
X9814048Y-14423238D02*
X9795000Y-14413714D01*
X9795000Y-14413714D02*
X9756905Y-14413714D01*
X9756905Y-14413714D02*
X9737857Y-14423238D01*
X9737857Y-14423238D02*
X9728333Y-14432762D01*
X9728333Y-14432762D02*
X9718810Y-14451809D01*
X10014048Y-14337524D02*
X9918810Y-14337524D01*
X9918810Y-14337524D02*
X9909286Y-14432762D01*
X9909286Y-14432762D02*
X9918810Y-14423238D01*
X9918810Y-14423238D02*
X9937857Y-14413714D01*
X9937857Y-14413714D02*
X9985476Y-14413714D01*
X9985476Y-14413714D02*
X10004524Y-14423238D01*
X10004524Y-14423238D02*
X10014048Y-14432762D01*
X10014048Y-14432762D02*
X10023571Y-14451809D01*
X10023571Y-14451809D02*
X10023571Y-14499428D01*
X10023571Y-14499428D02*
X10014048Y-14518476D01*
X10014048Y-14518476D02*
X10004524Y-14528000D01*
X10004524Y-14528000D02*
X9985476Y-14537524D01*
X9985476Y-14537524D02*
X9937857Y-14537524D01*
X9937857Y-14537524D02*
X9918810Y-14528000D01*
X9918810Y-14528000D02*
X9909286Y-14518476D01*
X10147381Y-14337524D02*
X10166429Y-14337524D01*
X10166429Y-14337524D02*
X10185476Y-14347048D01*
X10185476Y-14347048D02*
X10195000Y-14356571D01*
X10195000Y-14356571D02*
X10204524Y-14375619D01*
X10204524Y-14375619D02*
X10214048Y-14413714D01*
X10214048Y-14413714D02*
X10214048Y-14461333D01*
X10214048Y-14461333D02*
X10204524Y-14499428D01*
X10204524Y-14499428D02*
X10195000Y-14518476D01*
X10195000Y-14518476D02*
X10185476Y-14528000D01*
X10185476Y-14528000D02*
X10166429Y-14537524D01*
X10166429Y-14537524D02*
X10147381Y-14537524D01*
X10147381Y-14537524D02*
X10128333Y-14528000D01*
X10128333Y-14528000D02*
X10118810Y-14518476D01*
X10118810Y-14518476D02*
X10109286Y-14499428D01*
X10109286Y-14499428D02*
X10099762Y-14461333D01*
X10099762Y-14461333D02*
X10099762Y-14413714D01*
X10099762Y-14413714D02*
X10109286Y-14375619D01*
X10109286Y-14375619D02*
X10118810Y-14356571D01*
X10118810Y-14356571D02*
X10128333Y-14347048D01*
X10128333Y-14347048D02*
X10147381Y-14337524D01*
X10299762Y-14537524D02*
X10299762Y-14404190D01*
X10299762Y-14423238D02*
X10309286Y-14413714D01*
X10309286Y-14413714D02*
X10328333Y-14404190D01*
X10328333Y-14404190D02*
X10356905Y-14404190D01*
X10356905Y-14404190D02*
X10375952Y-14413714D01*
X10375952Y-14413714D02*
X10385476Y-14432762D01*
X10385476Y-14432762D02*
X10385476Y-14537524D01*
X10385476Y-14432762D02*
X10395000Y-14413714D01*
X10395000Y-14413714D02*
X10414048Y-14404190D01*
X10414048Y-14404190D02*
X10442619Y-14404190D01*
X10442619Y-14404190D02*
X10461667Y-14413714D01*
X10461667Y-14413714D02*
X10471191Y-14432762D01*
X10471191Y-14432762D02*
X10471191Y-14537524D01*
X10566429Y-14537524D02*
X10566429Y-14404190D01*
X10566429Y-14423238D02*
X10575952Y-14413714D01*
X10575952Y-14413714D02*
X10595000Y-14404190D01*
X10595000Y-14404190D02*
X10623572Y-14404190D01*
X10623572Y-14404190D02*
X10642619Y-14413714D01*
X10642619Y-14413714D02*
X10652143Y-14432762D01*
X10652143Y-14432762D02*
X10652143Y-14537524D01*
X10652143Y-14432762D02*
X10661667Y-14413714D01*
X10661667Y-14413714D02*
X10680714Y-14404190D01*
X10680714Y-14404190D02*
X10709286Y-14404190D01*
X10709286Y-14404190D02*
X10728333Y-14413714D01*
X10728333Y-14413714D02*
X10737857Y-14432762D01*
X10737857Y-14432762D02*
X10737857Y-14537524D01*
X11128333Y-14328000D02*
X10956905Y-14585143D01*
X11385476Y-14337524D02*
X11404524Y-14337524D01*
X11404524Y-14337524D02*
X11423572Y-14347048D01*
X11423572Y-14347048D02*
X11433095Y-14356571D01*
X11433095Y-14356571D02*
X11442619Y-14375619D01*
X11442619Y-14375619D02*
X11452143Y-14413714D01*
X11452143Y-14413714D02*
X11452143Y-14461333D01*
X11452143Y-14461333D02*
X11442619Y-14499428D01*
X11442619Y-14499428D02*
X11433095Y-14518476D01*
X11433095Y-14518476D02*
X11423572Y-14528000D01*
X11423572Y-14528000D02*
X11404524Y-14537524D01*
X11404524Y-14537524D02*
X11385476Y-14537524D01*
X11385476Y-14537524D02*
X11366429Y-14528000D01*
X11366429Y-14528000D02*
X11356905Y-14518476D01*
X11356905Y-14518476D02*
X11347381Y-14499428D01*
X11347381Y-14499428D02*
X11337857Y-14461333D01*
X11337857Y-14461333D02*
X11337857Y-14413714D01*
X11337857Y-14413714D02*
X11347381Y-14375619D01*
X11347381Y-14375619D02*
X11356905Y-14356571D01*
X11356905Y-14356571D02*
X11366429Y-14347048D01*
X11366429Y-14347048D02*
X11385476Y-14337524D01*
X11537857Y-14518476D02*
X11547381Y-14528000D01*
X11547381Y-14528000D02*
X11537857Y-14537524D01*
X11537857Y-14537524D02*
X11528333Y-14528000D01*
X11528333Y-14528000D02*
X11537857Y-14518476D01*
X11537857Y-14518476D02*
X11537857Y-14537524D01*
X11671191Y-14337524D02*
X11690238Y-14337524D01*
X11690238Y-14337524D02*
X11709286Y-14347048D01*
X11709286Y-14347048D02*
X11718810Y-14356571D01*
X11718810Y-14356571D02*
X11728333Y-14375619D01*
X11728333Y-14375619D02*
X11737857Y-14413714D01*
X11737857Y-14413714D02*
X11737857Y-14461333D01*
X11737857Y-14461333D02*
X11728333Y-14499428D01*
X11728333Y-14499428D02*
X11718810Y-14518476D01*
X11718810Y-14518476D02*
X11709286Y-14528000D01*
X11709286Y-14528000D02*
X11690238Y-14537524D01*
X11690238Y-14537524D02*
X11671191Y-14537524D01*
X11671191Y-14537524D02*
X11652143Y-14528000D01*
X11652143Y-14528000D02*
X11642619Y-14518476D01*
X11642619Y-14518476D02*
X11633095Y-14499428D01*
X11633095Y-14499428D02*
X11623572Y-14461333D01*
X11623572Y-14461333D02*
X11623572Y-14413714D01*
X11623572Y-14413714D02*
X11633095Y-14375619D01*
X11633095Y-14375619D02*
X11642619Y-14356571D01*
X11642619Y-14356571D02*
X11652143Y-14347048D01*
X11652143Y-14347048D02*
X11671191Y-14337524D01*
X11814048Y-14356571D02*
X11823572Y-14347048D01*
X11823572Y-14347048D02*
X11842619Y-14337524D01*
X11842619Y-14337524D02*
X11890238Y-14337524D01*
X11890238Y-14337524D02*
X11909286Y-14347048D01*
X11909286Y-14347048D02*
X11918810Y-14356571D01*
X11918810Y-14356571D02*
X11928333Y-14375619D01*
X11928333Y-14375619D02*
X11928333Y-14394667D01*
X11928333Y-14394667D02*
X11918810Y-14423238D01*
X11918810Y-14423238D02*
X11804524Y-14537524D01*
X11804524Y-14537524D02*
X11928333Y-14537524D01*
X12109286Y-14337524D02*
X12014048Y-14337524D01*
X12014048Y-14337524D02*
X12004524Y-14432762D01*
X12004524Y-14432762D02*
X12014048Y-14423238D01*
X12014048Y-14423238D02*
X12033095Y-14413714D01*
X12033095Y-14413714D02*
X12080714Y-14413714D01*
X12080714Y-14413714D02*
X12099762Y-14423238D01*
X12099762Y-14423238D02*
X12109286Y-14432762D01*
X12109286Y-14432762D02*
X12118810Y-14451809D01*
X12118810Y-14451809D02*
X12118810Y-14499428D01*
X12118810Y-14499428D02*
X12109286Y-14518476D01*
X12109286Y-14518476D02*
X12099762Y-14528000D01*
X12099762Y-14528000D02*
X12080714Y-14537524D01*
X12080714Y-14537524D02*
X12033095Y-14537524D01*
X12033095Y-14537524D02*
X12014048Y-14528000D01*
X12014048Y-14528000D02*
X12004524Y-14518476D01*
X12290238Y-14337524D02*
X12252143Y-14337524D01*
X12252143Y-14337524D02*
X12233095Y-14347048D01*
X12233095Y-14347048D02*
X12223572Y-14356571D01*
X12223572Y-14356571D02*
X12204524Y-14385143D01*
X12204524Y-14385143D02*
X12195000Y-14423238D01*
X12195000Y-14423238D02*
X12195000Y-14499428D01*
X12195000Y-14499428D02*
X12204524Y-14518476D01*
X12204524Y-14518476D02*
X12214048Y-14528000D01*
X12214048Y-14528000D02*
X12233095Y-14537524D01*
X12233095Y-14537524D02*
X12271191Y-14537524D01*
X12271191Y-14537524D02*
X12290238Y-14528000D01*
X12290238Y-14528000D02*
X12299762Y-14518476D01*
X12299762Y-14518476D02*
X12309286Y-14499428D01*
X12309286Y-14499428D02*
X12309286Y-14451809D01*
X12309286Y-14451809D02*
X12299762Y-14432762D01*
X12299762Y-14432762D02*
X12290238Y-14423238D01*
X12290238Y-14423238D02*
X12271191Y-14413714D01*
X12271191Y-14413714D02*
X12233095Y-14413714D01*
X12233095Y-14413714D02*
X12214048Y-14423238D01*
X12214048Y-14423238D02*
X12204524Y-14432762D01*
X12204524Y-14432762D02*
X12195000Y-14451809D01*
X12385476Y-14337524D02*
X12385476Y-14375619D01*
X12461667Y-14337524D02*
X12461667Y-14375619D01*
X12756905Y-14613714D02*
X12747381Y-14604190D01*
X12747381Y-14604190D02*
X12728334Y-14575619D01*
X12728334Y-14575619D02*
X12718810Y-14556571D01*
X12718810Y-14556571D02*
X12709286Y-14528000D01*
X12709286Y-14528000D02*
X12699762Y-14480381D01*
X12699762Y-14480381D02*
X12699762Y-14442286D01*
X12699762Y-14442286D02*
X12709286Y-14394667D01*
X12709286Y-14394667D02*
X12718810Y-14366095D01*
X12718810Y-14366095D02*
X12728334Y-14347048D01*
X12728334Y-14347048D02*
X12747381Y-14318476D01*
X12747381Y-14318476D02*
X12756905Y-14308952D01*
X12937857Y-14537524D02*
X12823572Y-14537524D01*
X12880714Y-14537524D02*
X12880714Y-14337524D01*
X12880714Y-14337524D02*
X12861667Y-14366095D01*
X12861667Y-14366095D02*
X12842619Y-14385143D01*
X12842619Y-14385143D02*
X12823572Y-14394667D01*
X13175953Y-14537524D02*
X13175953Y-14337524D01*
X13261667Y-14537524D02*
X13261667Y-14432762D01*
X13261667Y-14432762D02*
X13252143Y-14413714D01*
X13252143Y-14413714D02*
X13233096Y-14404190D01*
X13233096Y-14404190D02*
X13204524Y-14404190D01*
X13204524Y-14404190D02*
X13185476Y-14413714D01*
X13185476Y-14413714D02*
X13175953Y-14423238D01*
X13385476Y-14537524D02*
X13366429Y-14528000D01*
X13366429Y-14528000D02*
X13356905Y-14518476D01*
X13356905Y-14518476D02*
X13347381Y-14499428D01*
X13347381Y-14499428D02*
X13347381Y-14442286D01*
X13347381Y-14442286D02*
X13356905Y-14423238D01*
X13356905Y-14423238D02*
X13366429Y-14413714D01*
X13366429Y-14413714D02*
X13385476Y-14404190D01*
X13385476Y-14404190D02*
X13414048Y-14404190D01*
X13414048Y-14404190D02*
X13433096Y-14413714D01*
X13433096Y-14413714D02*
X13442619Y-14423238D01*
X13442619Y-14423238D02*
X13452143Y-14442286D01*
X13452143Y-14442286D02*
X13452143Y-14499428D01*
X13452143Y-14499428D02*
X13442619Y-14518476D01*
X13442619Y-14518476D02*
X13433096Y-14528000D01*
X13433096Y-14528000D02*
X13414048Y-14537524D01*
X13414048Y-14537524D02*
X13385476Y-14537524D01*
X13566429Y-14537524D02*
X13547381Y-14528000D01*
X13547381Y-14528000D02*
X13537857Y-14508952D01*
X13537857Y-14508952D02*
X13537857Y-14337524D01*
X13718810Y-14528000D02*
X13699762Y-14537524D01*
X13699762Y-14537524D02*
X13661667Y-14537524D01*
X13661667Y-14537524D02*
X13642619Y-14528000D01*
X13642619Y-14528000D02*
X13633096Y-14508952D01*
X13633096Y-14508952D02*
X13633096Y-14432762D01*
X13633096Y-14432762D02*
X13642619Y-14413714D01*
X13642619Y-14413714D02*
X13661667Y-14404190D01*
X13661667Y-14404190D02*
X13699762Y-14404190D01*
X13699762Y-14404190D02*
X13718810Y-14413714D01*
X13718810Y-14413714D02*
X13728334Y-14432762D01*
X13728334Y-14432762D02*
X13728334Y-14451809D01*
X13728334Y-14451809D02*
X13633096Y-14470857D01*
X13804524Y-14528000D02*
X13823572Y-14537524D01*
X13823572Y-14537524D02*
X13861667Y-14537524D01*
X13861667Y-14537524D02*
X13880715Y-14528000D01*
X13880715Y-14528000D02*
X13890238Y-14508952D01*
X13890238Y-14508952D02*
X13890238Y-14499428D01*
X13890238Y-14499428D02*
X13880715Y-14480381D01*
X13880715Y-14480381D02*
X13861667Y-14470857D01*
X13861667Y-14470857D02*
X13833096Y-14470857D01*
X13833096Y-14470857D02*
X13814048Y-14461333D01*
X13814048Y-14461333D02*
X13804524Y-14442286D01*
X13804524Y-14442286D02*
X13804524Y-14432762D01*
X13804524Y-14432762D02*
X13814048Y-14413714D01*
X13814048Y-14413714D02*
X13833096Y-14404190D01*
X13833096Y-14404190D02*
X13861667Y-14404190D01*
X13861667Y-14404190D02*
X13880715Y-14413714D01*
X14128334Y-14461333D02*
X14280715Y-14461333D01*
X14204524Y-14537524D02*
X14204524Y-14385143D01*
X14633096Y-14537524D02*
X14518810Y-14537524D01*
X14575953Y-14537524D02*
X14575953Y-14337524D01*
X14575953Y-14337524D02*
X14556905Y-14366095D01*
X14556905Y-14366095D02*
X14537858Y-14385143D01*
X14537858Y-14385143D02*
X14518810Y-14394667D01*
X14861667Y-14528000D02*
X14880715Y-14537524D01*
X14880715Y-14537524D02*
X14918810Y-14537524D01*
X14918810Y-14537524D02*
X14937858Y-14528000D01*
X14937858Y-14528000D02*
X14947381Y-14508952D01*
X14947381Y-14508952D02*
X14947381Y-14499428D01*
X14947381Y-14499428D02*
X14937858Y-14480381D01*
X14937858Y-14480381D02*
X14918810Y-14470857D01*
X14918810Y-14470857D02*
X14890239Y-14470857D01*
X14890239Y-14470857D02*
X14871191Y-14461333D01*
X14871191Y-14461333D02*
X14861667Y-14442286D01*
X14861667Y-14442286D02*
X14861667Y-14432762D01*
X14861667Y-14432762D02*
X14871191Y-14413714D01*
X14871191Y-14413714D02*
X14890239Y-14404190D01*
X14890239Y-14404190D02*
X14918810Y-14404190D01*
X14918810Y-14404190D02*
X14937858Y-14413714D01*
X15061667Y-14537524D02*
X15042620Y-14528000D01*
X15042620Y-14528000D02*
X15033096Y-14508952D01*
X15033096Y-14508952D02*
X15033096Y-14337524D01*
X15166429Y-14537524D02*
X15147381Y-14528000D01*
X15147381Y-14528000D02*
X15137858Y-14518476D01*
X15137858Y-14518476D02*
X15128334Y-14499428D01*
X15128334Y-14499428D02*
X15128334Y-14442286D01*
X15128334Y-14442286D02*
X15137858Y-14423238D01*
X15137858Y-14423238D02*
X15147381Y-14413714D01*
X15147381Y-14413714D02*
X15166429Y-14404190D01*
X15166429Y-14404190D02*
X15195001Y-14404190D01*
X15195001Y-14404190D02*
X15214048Y-14413714D01*
X15214048Y-14413714D02*
X15223572Y-14423238D01*
X15223572Y-14423238D02*
X15233096Y-14442286D01*
X15233096Y-14442286D02*
X15233096Y-14499428D01*
X15233096Y-14499428D02*
X15223572Y-14518476D01*
X15223572Y-14518476D02*
X15214048Y-14528000D01*
X15214048Y-14528000D02*
X15195001Y-14537524D01*
X15195001Y-14537524D02*
X15166429Y-14537524D01*
X15290239Y-14404190D02*
X15366429Y-14404190D01*
X15318810Y-14337524D02*
X15318810Y-14508952D01*
X15318810Y-14508952D02*
X15328334Y-14528000D01*
X15328334Y-14528000D02*
X15347381Y-14537524D01*
X15347381Y-14537524D02*
X15366429Y-14537524D01*
X15414048Y-14613714D02*
X15423572Y-14604190D01*
X15423572Y-14604190D02*
X15442620Y-14575619D01*
X15442620Y-14575619D02*
X15452143Y-14556571D01*
X15452143Y-14556571D02*
X15461667Y-14528000D01*
X15461667Y-14528000D02*
X15471191Y-14480381D01*
X15471191Y-14480381D02*
X15471191Y-14442286D01*
X15471191Y-14442286D02*
X15461667Y-14394667D01*
X15461667Y-14394667D02*
X15452143Y-14366095D01*
X15452143Y-14366095D02*
X15442620Y-14347048D01*
X15442620Y-14347048D02*
X15423572Y-14318476D01*
X15423572Y-14318476D02*
X15414048Y-14308952D01*
X15775953Y-14613714D02*
X15766429Y-14604190D01*
X15766429Y-14604190D02*
X15747381Y-14575619D01*
X15747381Y-14575619D02*
X15737858Y-14556571D01*
X15737858Y-14556571D02*
X15728334Y-14528000D01*
X15728334Y-14528000D02*
X15718810Y-14480381D01*
X15718810Y-14480381D02*
X15718810Y-14442286D01*
X15718810Y-14442286D02*
X15728334Y-14394667D01*
X15728334Y-14394667D02*
X15737858Y-14366095D01*
X15737858Y-14366095D02*
X15747381Y-14347048D01*
X15747381Y-14347048D02*
X15766429Y-14318476D01*
X15766429Y-14318476D02*
X15775953Y-14308952D01*
X15852143Y-14404190D02*
X15852143Y-14537524D01*
X15852143Y-14423238D02*
X15861667Y-14413714D01*
X15861667Y-14413714D02*
X15880715Y-14404190D01*
X15880715Y-14404190D02*
X15909286Y-14404190D01*
X15909286Y-14404190D02*
X15928334Y-14413714D01*
X15928334Y-14413714D02*
X15937858Y-14432762D01*
X15937858Y-14432762D02*
X15937858Y-14537524D01*
X16061667Y-14537524D02*
X16042620Y-14528000D01*
X16042620Y-14528000D02*
X16033096Y-14518476D01*
X16033096Y-14518476D02*
X16023572Y-14499428D01*
X16023572Y-14499428D02*
X16023572Y-14442286D01*
X16023572Y-14442286D02*
X16033096Y-14423238D01*
X16033096Y-14423238D02*
X16042620Y-14413714D01*
X16042620Y-14413714D02*
X16061667Y-14404190D01*
X16061667Y-14404190D02*
X16090239Y-14404190D01*
X16090239Y-14404190D02*
X16109286Y-14413714D01*
X16109286Y-14413714D02*
X16118810Y-14423238D01*
X16118810Y-14423238D02*
X16128334Y-14442286D01*
X16128334Y-14442286D02*
X16128334Y-14499428D01*
X16128334Y-14499428D02*
X16118810Y-14518476D01*
X16118810Y-14518476D02*
X16109286Y-14528000D01*
X16109286Y-14528000D02*
X16090239Y-14537524D01*
X16090239Y-14537524D02*
X16061667Y-14537524D01*
X16185477Y-14404190D02*
X16261667Y-14404190D01*
X16214048Y-14337524D02*
X16214048Y-14508952D01*
X16214048Y-14508952D02*
X16223572Y-14528000D01*
X16223572Y-14528000D02*
X16242620Y-14537524D01*
X16242620Y-14537524D02*
X16261667Y-14537524D01*
X16480715Y-14404190D02*
X16480715Y-14604190D01*
X16480715Y-14413714D02*
X16499762Y-14404190D01*
X16499762Y-14404190D02*
X16537858Y-14404190D01*
X16537858Y-14404190D02*
X16556905Y-14413714D01*
X16556905Y-14413714D02*
X16566429Y-14423238D01*
X16566429Y-14423238D02*
X16575953Y-14442286D01*
X16575953Y-14442286D02*
X16575953Y-14499428D01*
X16575953Y-14499428D02*
X16566429Y-14518476D01*
X16566429Y-14518476D02*
X16556905Y-14528000D01*
X16556905Y-14528000D02*
X16537858Y-14537524D01*
X16537858Y-14537524D02*
X16499762Y-14537524D01*
X16499762Y-14537524D02*
X16480715Y-14528000D01*
X16690239Y-14537524D02*
X16671191Y-14528000D01*
X16671191Y-14528000D02*
X16661667Y-14508952D01*
X16661667Y-14508952D02*
X16661667Y-14337524D01*
X16852144Y-14537524D02*
X16852144Y-14432762D01*
X16852144Y-14432762D02*
X16842620Y-14413714D01*
X16842620Y-14413714D02*
X16823572Y-14404190D01*
X16823572Y-14404190D02*
X16785477Y-14404190D01*
X16785477Y-14404190D02*
X16766429Y-14413714D01*
X16852144Y-14528000D02*
X16833096Y-14537524D01*
X16833096Y-14537524D02*
X16785477Y-14537524D01*
X16785477Y-14537524D02*
X16766429Y-14528000D01*
X16766429Y-14528000D02*
X16756905Y-14508952D01*
X16756905Y-14508952D02*
X16756905Y-14489905D01*
X16756905Y-14489905D02*
X16766429Y-14470857D01*
X16766429Y-14470857D02*
X16785477Y-14461333D01*
X16785477Y-14461333D02*
X16833096Y-14461333D01*
X16833096Y-14461333D02*
X16852144Y-14451809D01*
X16918810Y-14404190D02*
X16995001Y-14404190D01*
X16947382Y-14337524D02*
X16947382Y-14508952D01*
X16947382Y-14508952D02*
X16956905Y-14528000D01*
X16956905Y-14528000D02*
X16975953Y-14537524D01*
X16975953Y-14537524D02*
X16995001Y-14537524D01*
X17137858Y-14528000D02*
X17118810Y-14537524D01*
X17118810Y-14537524D02*
X17080715Y-14537524D01*
X17080715Y-14537524D02*
X17061667Y-14528000D01*
X17061667Y-14528000D02*
X17052144Y-14508952D01*
X17052144Y-14508952D02*
X17052144Y-14432762D01*
X17052144Y-14432762D02*
X17061667Y-14413714D01*
X17061667Y-14413714D02*
X17080715Y-14404190D01*
X17080715Y-14404190D02*
X17118810Y-14404190D01*
X17118810Y-14404190D02*
X17137858Y-14413714D01*
X17137858Y-14413714D02*
X17147382Y-14432762D01*
X17147382Y-14432762D02*
X17147382Y-14451809D01*
X17147382Y-14451809D02*
X17052144Y-14470857D01*
X17318810Y-14537524D02*
X17318810Y-14337524D01*
X17318810Y-14528000D02*
X17299763Y-14537524D01*
X17299763Y-14537524D02*
X17261667Y-14537524D01*
X17261667Y-14537524D02*
X17242620Y-14528000D01*
X17242620Y-14528000D02*
X17233096Y-14518476D01*
X17233096Y-14518476D02*
X17223572Y-14499428D01*
X17223572Y-14499428D02*
X17223572Y-14442286D01*
X17223572Y-14442286D02*
X17233096Y-14423238D01*
X17233096Y-14423238D02*
X17242620Y-14413714D01*
X17242620Y-14413714D02*
X17261667Y-14404190D01*
X17261667Y-14404190D02*
X17299763Y-14404190D01*
X17299763Y-14404190D02*
X17318810Y-14413714D01*
X17395001Y-14613714D02*
X17404525Y-14604190D01*
X17404525Y-14604190D02*
X17423572Y-14575619D01*
X17423572Y-14575619D02*
X17433096Y-14556571D01*
X17433096Y-14556571D02*
X17442620Y-14528000D01*
X17442620Y-14528000D02*
X17452144Y-14480381D01*
X17452144Y-14480381D02*
X17452144Y-14442286D01*
X17452144Y-14442286D02*
X17442620Y-14394667D01*
X17442620Y-14394667D02*
X17433096Y-14366095D01*
X17433096Y-14366095D02*
X17423572Y-14347048D01*
X17423572Y-14347048D02*
X17404525Y-14318476D01*
X17404525Y-14318476D02*
X17395001Y-14308952D01*
D13*
X9195000Y-14709000D02*
G75*
G03*
X9195000Y-14709000I-60000J0D01*
G01*
D11*
X9547381Y-14801524D02*
X9433095Y-14801524D01*
X9490238Y-14801524D02*
X9490238Y-14601524D01*
X9490238Y-14601524D02*
X9471190Y-14630095D01*
X9471190Y-14630095D02*
X9452143Y-14649143D01*
X9452143Y-14649143D02*
X9433095Y-14658667D01*
X9633095Y-14782476D02*
X9642619Y-14792000D01*
X9642619Y-14792000D02*
X9633095Y-14801524D01*
X9633095Y-14801524D02*
X9623571Y-14792000D01*
X9623571Y-14792000D02*
X9633095Y-14782476D01*
X9633095Y-14782476D02*
X9633095Y-14801524D01*
X9718810Y-14620571D02*
X9728333Y-14611048D01*
X9728333Y-14611048D02*
X9747381Y-14601524D01*
X9747381Y-14601524D02*
X9795000Y-14601524D01*
X9795000Y-14601524D02*
X9814048Y-14611048D01*
X9814048Y-14611048D02*
X9823571Y-14620571D01*
X9823571Y-14620571D02*
X9833095Y-14639619D01*
X9833095Y-14639619D02*
X9833095Y-14658667D01*
X9833095Y-14658667D02*
X9823571Y-14687238D01*
X9823571Y-14687238D02*
X9709286Y-14801524D01*
X9709286Y-14801524D02*
X9833095Y-14801524D01*
X9956905Y-14601524D02*
X9975952Y-14601524D01*
X9975952Y-14601524D02*
X9995000Y-14611048D01*
X9995000Y-14611048D02*
X10004524Y-14620571D01*
X10004524Y-14620571D02*
X10014048Y-14639619D01*
X10014048Y-14639619D02*
X10023571Y-14677714D01*
X10023571Y-14677714D02*
X10023571Y-14725333D01*
X10023571Y-14725333D02*
X10014048Y-14763428D01*
X10014048Y-14763428D02*
X10004524Y-14782476D01*
X10004524Y-14782476D02*
X9995000Y-14792000D01*
X9995000Y-14792000D02*
X9975952Y-14801524D01*
X9975952Y-14801524D02*
X9956905Y-14801524D01*
X9956905Y-14801524D02*
X9937857Y-14792000D01*
X9937857Y-14792000D02*
X9928333Y-14782476D01*
X9928333Y-14782476D02*
X9918810Y-14763428D01*
X9918810Y-14763428D02*
X9909286Y-14725333D01*
X9909286Y-14725333D02*
X9909286Y-14677714D01*
X9909286Y-14677714D02*
X9918810Y-14639619D01*
X9918810Y-14639619D02*
X9928333Y-14620571D01*
X9928333Y-14620571D02*
X9937857Y-14611048D01*
X9937857Y-14611048D02*
X9956905Y-14601524D01*
X10147381Y-14601524D02*
X10166429Y-14601524D01*
X10166429Y-14601524D02*
X10185476Y-14611048D01*
X10185476Y-14611048D02*
X10195000Y-14620571D01*
X10195000Y-14620571D02*
X10204524Y-14639619D01*
X10204524Y-14639619D02*
X10214048Y-14677714D01*
X10214048Y-14677714D02*
X10214048Y-14725333D01*
X10214048Y-14725333D02*
X10204524Y-14763428D01*
X10204524Y-14763428D02*
X10195000Y-14782476D01*
X10195000Y-14782476D02*
X10185476Y-14792000D01*
X10185476Y-14792000D02*
X10166429Y-14801524D01*
X10166429Y-14801524D02*
X10147381Y-14801524D01*
X10147381Y-14801524D02*
X10128333Y-14792000D01*
X10128333Y-14792000D02*
X10118810Y-14782476D01*
X10118810Y-14782476D02*
X10109286Y-14763428D01*
X10109286Y-14763428D02*
X10099762Y-14725333D01*
X10099762Y-14725333D02*
X10099762Y-14677714D01*
X10099762Y-14677714D02*
X10109286Y-14639619D01*
X10109286Y-14639619D02*
X10118810Y-14620571D01*
X10118810Y-14620571D02*
X10128333Y-14611048D01*
X10128333Y-14611048D02*
X10147381Y-14601524D01*
X10299762Y-14801524D02*
X10299762Y-14668190D01*
X10299762Y-14687238D02*
X10309286Y-14677714D01*
X10309286Y-14677714D02*
X10328333Y-14668190D01*
X10328333Y-14668190D02*
X10356905Y-14668190D01*
X10356905Y-14668190D02*
X10375952Y-14677714D01*
X10375952Y-14677714D02*
X10385476Y-14696762D01*
X10385476Y-14696762D02*
X10385476Y-14801524D01*
X10385476Y-14696762D02*
X10395000Y-14677714D01*
X10395000Y-14677714D02*
X10414048Y-14668190D01*
X10414048Y-14668190D02*
X10442619Y-14668190D01*
X10442619Y-14668190D02*
X10461667Y-14677714D01*
X10461667Y-14677714D02*
X10471191Y-14696762D01*
X10471191Y-14696762D02*
X10471191Y-14801524D01*
X10566429Y-14801524D02*
X10566429Y-14668190D01*
X10566429Y-14687238D02*
X10575952Y-14677714D01*
X10575952Y-14677714D02*
X10595000Y-14668190D01*
X10595000Y-14668190D02*
X10623572Y-14668190D01*
X10623572Y-14668190D02*
X10642619Y-14677714D01*
X10642619Y-14677714D02*
X10652143Y-14696762D01*
X10652143Y-14696762D02*
X10652143Y-14801524D01*
X10652143Y-14696762D02*
X10661667Y-14677714D01*
X10661667Y-14677714D02*
X10680714Y-14668190D01*
X10680714Y-14668190D02*
X10709286Y-14668190D01*
X10709286Y-14668190D02*
X10728333Y-14677714D01*
X10728333Y-14677714D02*
X10737857Y-14696762D01*
X10737857Y-14696762D02*
X10737857Y-14801524D01*
X11128333Y-14592000D02*
X10956905Y-14849143D01*
X11385476Y-14601524D02*
X11404524Y-14601524D01*
X11404524Y-14601524D02*
X11423572Y-14611048D01*
X11423572Y-14611048D02*
X11433095Y-14620571D01*
X11433095Y-14620571D02*
X11442619Y-14639619D01*
X11442619Y-14639619D02*
X11452143Y-14677714D01*
X11452143Y-14677714D02*
X11452143Y-14725333D01*
X11452143Y-14725333D02*
X11442619Y-14763428D01*
X11442619Y-14763428D02*
X11433095Y-14782476D01*
X11433095Y-14782476D02*
X11423572Y-14792000D01*
X11423572Y-14792000D02*
X11404524Y-14801524D01*
X11404524Y-14801524D02*
X11385476Y-14801524D01*
X11385476Y-14801524D02*
X11366429Y-14792000D01*
X11366429Y-14792000D02*
X11356905Y-14782476D01*
X11356905Y-14782476D02*
X11347381Y-14763428D01*
X11347381Y-14763428D02*
X11337857Y-14725333D01*
X11337857Y-14725333D02*
X11337857Y-14677714D01*
X11337857Y-14677714D02*
X11347381Y-14639619D01*
X11347381Y-14639619D02*
X11356905Y-14620571D01*
X11356905Y-14620571D02*
X11366429Y-14611048D01*
X11366429Y-14611048D02*
X11385476Y-14601524D01*
X11537857Y-14782476D02*
X11547381Y-14792000D01*
X11547381Y-14792000D02*
X11537857Y-14801524D01*
X11537857Y-14801524D02*
X11528333Y-14792000D01*
X11528333Y-14792000D02*
X11537857Y-14782476D01*
X11537857Y-14782476D02*
X11537857Y-14801524D01*
X11671191Y-14601524D02*
X11690238Y-14601524D01*
X11690238Y-14601524D02*
X11709286Y-14611048D01*
X11709286Y-14611048D02*
X11718810Y-14620571D01*
X11718810Y-14620571D02*
X11728333Y-14639619D01*
X11728333Y-14639619D02*
X11737857Y-14677714D01*
X11737857Y-14677714D02*
X11737857Y-14725333D01*
X11737857Y-14725333D02*
X11728333Y-14763428D01*
X11728333Y-14763428D02*
X11718810Y-14782476D01*
X11718810Y-14782476D02*
X11709286Y-14792000D01*
X11709286Y-14792000D02*
X11690238Y-14801524D01*
X11690238Y-14801524D02*
X11671191Y-14801524D01*
X11671191Y-14801524D02*
X11652143Y-14792000D01*
X11652143Y-14792000D02*
X11642619Y-14782476D01*
X11642619Y-14782476D02*
X11633095Y-14763428D01*
X11633095Y-14763428D02*
X11623572Y-14725333D01*
X11623572Y-14725333D02*
X11623572Y-14677714D01*
X11623572Y-14677714D02*
X11633095Y-14639619D01*
X11633095Y-14639619D02*
X11642619Y-14620571D01*
X11642619Y-14620571D02*
X11652143Y-14611048D01*
X11652143Y-14611048D02*
X11671191Y-14601524D01*
X11909286Y-14668190D02*
X11909286Y-14801524D01*
X11861667Y-14592000D02*
X11814048Y-14734857D01*
X11814048Y-14734857D02*
X11937857Y-14734857D01*
X11995000Y-14601524D02*
X12128333Y-14601524D01*
X12128333Y-14601524D02*
X12042619Y-14801524D01*
X12195000Y-14620571D02*
X12204524Y-14611048D01*
X12204524Y-14611048D02*
X12223572Y-14601524D01*
X12223572Y-14601524D02*
X12271191Y-14601524D01*
X12271191Y-14601524D02*
X12290238Y-14611048D01*
X12290238Y-14611048D02*
X12299762Y-14620571D01*
X12299762Y-14620571D02*
X12309286Y-14639619D01*
X12309286Y-14639619D02*
X12309286Y-14658667D01*
X12309286Y-14658667D02*
X12299762Y-14687238D01*
X12299762Y-14687238D02*
X12185476Y-14801524D01*
X12185476Y-14801524D02*
X12309286Y-14801524D01*
X12385476Y-14601524D02*
X12385476Y-14639619D01*
X12461667Y-14601524D02*
X12461667Y-14639619D01*
X12756905Y-14877714D02*
X12747381Y-14868190D01*
X12747381Y-14868190D02*
X12728334Y-14839619D01*
X12728334Y-14839619D02*
X12718810Y-14820571D01*
X12718810Y-14820571D02*
X12709286Y-14792000D01*
X12709286Y-14792000D02*
X12699762Y-14744381D01*
X12699762Y-14744381D02*
X12699762Y-14706286D01*
X12699762Y-14706286D02*
X12709286Y-14658667D01*
X12709286Y-14658667D02*
X12718810Y-14630095D01*
X12718810Y-14630095D02*
X12728334Y-14611048D01*
X12728334Y-14611048D02*
X12747381Y-14582476D01*
X12747381Y-14582476D02*
X12756905Y-14572952D01*
X12861667Y-14687238D02*
X12842619Y-14677714D01*
X12842619Y-14677714D02*
X12833095Y-14668190D01*
X12833095Y-14668190D02*
X12823572Y-14649143D01*
X12823572Y-14649143D02*
X12823572Y-14639619D01*
X12823572Y-14639619D02*
X12833095Y-14620571D01*
X12833095Y-14620571D02*
X12842619Y-14611048D01*
X12842619Y-14611048D02*
X12861667Y-14601524D01*
X12861667Y-14601524D02*
X12899762Y-14601524D01*
X12899762Y-14601524D02*
X12918810Y-14611048D01*
X12918810Y-14611048D02*
X12928334Y-14620571D01*
X12928334Y-14620571D02*
X12937857Y-14639619D01*
X12937857Y-14639619D02*
X12937857Y-14649143D01*
X12937857Y-14649143D02*
X12928334Y-14668190D01*
X12928334Y-14668190D02*
X12918810Y-14677714D01*
X12918810Y-14677714D02*
X12899762Y-14687238D01*
X12899762Y-14687238D02*
X12861667Y-14687238D01*
X12861667Y-14687238D02*
X12842619Y-14696762D01*
X12842619Y-14696762D02*
X12833095Y-14706286D01*
X12833095Y-14706286D02*
X12823572Y-14725333D01*
X12823572Y-14725333D02*
X12823572Y-14763428D01*
X12823572Y-14763428D02*
X12833095Y-14782476D01*
X12833095Y-14782476D02*
X12842619Y-14792000D01*
X12842619Y-14792000D02*
X12861667Y-14801524D01*
X12861667Y-14801524D02*
X12899762Y-14801524D01*
X12899762Y-14801524D02*
X12918810Y-14792000D01*
X12918810Y-14792000D02*
X12928334Y-14782476D01*
X12928334Y-14782476D02*
X12937857Y-14763428D01*
X12937857Y-14763428D02*
X12937857Y-14725333D01*
X12937857Y-14725333D02*
X12928334Y-14706286D01*
X12928334Y-14706286D02*
X12918810Y-14696762D01*
X12918810Y-14696762D02*
X12899762Y-14687238D01*
X13175953Y-14801524D02*
X13175953Y-14601524D01*
X13261667Y-14801524D02*
X13261667Y-14696762D01*
X13261667Y-14696762D02*
X13252143Y-14677714D01*
X13252143Y-14677714D02*
X13233096Y-14668190D01*
X13233096Y-14668190D02*
X13204524Y-14668190D01*
X13204524Y-14668190D02*
X13185476Y-14677714D01*
X13185476Y-14677714D02*
X13175953Y-14687238D01*
X13385476Y-14801524D02*
X13366429Y-14792000D01*
X13366429Y-14792000D02*
X13356905Y-14782476D01*
X13356905Y-14782476D02*
X13347381Y-14763428D01*
X13347381Y-14763428D02*
X13347381Y-14706286D01*
X13347381Y-14706286D02*
X13356905Y-14687238D01*
X13356905Y-14687238D02*
X13366429Y-14677714D01*
X13366429Y-14677714D02*
X13385476Y-14668190D01*
X13385476Y-14668190D02*
X13414048Y-14668190D01*
X13414048Y-14668190D02*
X13433096Y-14677714D01*
X13433096Y-14677714D02*
X13442619Y-14687238D01*
X13442619Y-14687238D02*
X13452143Y-14706286D01*
X13452143Y-14706286D02*
X13452143Y-14763428D01*
X13452143Y-14763428D02*
X13442619Y-14782476D01*
X13442619Y-14782476D02*
X13433096Y-14792000D01*
X13433096Y-14792000D02*
X13414048Y-14801524D01*
X13414048Y-14801524D02*
X13385476Y-14801524D01*
X13566429Y-14801524D02*
X13547381Y-14792000D01*
X13547381Y-14792000D02*
X13537857Y-14772952D01*
X13537857Y-14772952D02*
X13537857Y-14601524D01*
X13718810Y-14792000D02*
X13699762Y-14801524D01*
X13699762Y-14801524D02*
X13661667Y-14801524D01*
X13661667Y-14801524D02*
X13642619Y-14792000D01*
X13642619Y-14792000D02*
X13633096Y-14772952D01*
X13633096Y-14772952D02*
X13633096Y-14696762D01*
X13633096Y-14696762D02*
X13642619Y-14677714D01*
X13642619Y-14677714D02*
X13661667Y-14668190D01*
X13661667Y-14668190D02*
X13699762Y-14668190D01*
X13699762Y-14668190D02*
X13718810Y-14677714D01*
X13718810Y-14677714D02*
X13728334Y-14696762D01*
X13728334Y-14696762D02*
X13728334Y-14715809D01*
X13728334Y-14715809D02*
X13633096Y-14734857D01*
X13804524Y-14792000D02*
X13823572Y-14801524D01*
X13823572Y-14801524D02*
X13861667Y-14801524D01*
X13861667Y-14801524D02*
X13880715Y-14792000D01*
X13880715Y-14792000D02*
X13890238Y-14772952D01*
X13890238Y-14772952D02*
X13890238Y-14763428D01*
X13890238Y-14763428D02*
X13880715Y-14744381D01*
X13880715Y-14744381D02*
X13861667Y-14734857D01*
X13861667Y-14734857D02*
X13833096Y-14734857D01*
X13833096Y-14734857D02*
X13814048Y-14725333D01*
X13814048Y-14725333D02*
X13804524Y-14706286D01*
X13804524Y-14706286D02*
X13804524Y-14696762D01*
X13804524Y-14696762D02*
X13814048Y-14677714D01*
X13814048Y-14677714D02*
X13833096Y-14668190D01*
X13833096Y-14668190D02*
X13861667Y-14668190D01*
X13861667Y-14668190D02*
X13880715Y-14677714D01*
X13956905Y-14877714D02*
X13966429Y-14868190D01*
X13966429Y-14868190D02*
X13985477Y-14839619D01*
X13985477Y-14839619D02*
X13995000Y-14820571D01*
X13995000Y-14820571D02*
X14004524Y-14792000D01*
X14004524Y-14792000D02*
X14014048Y-14744381D01*
X14014048Y-14744381D02*
X14014048Y-14706286D01*
X14014048Y-14706286D02*
X14004524Y-14658667D01*
X14004524Y-14658667D02*
X13995000Y-14630095D01*
X13995000Y-14630095D02*
X13985477Y-14611048D01*
X13985477Y-14611048D02*
X13966429Y-14582476D01*
X13966429Y-14582476D02*
X13956905Y-14572952D01*
X14318810Y-14877714D02*
X14309286Y-14868190D01*
X14309286Y-14868190D02*
X14290238Y-14839619D01*
X14290238Y-14839619D02*
X14280715Y-14820571D01*
X14280715Y-14820571D02*
X14271191Y-14792000D01*
X14271191Y-14792000D02*
X14261667Y-14744381D01*
X14261667Y-14744381D02*
X14261667Y-14706286D01*
X14261667Y-14706286D02*
X14271191Y-14658667D01*
X14271191Y-14658667D02*
X14280715Y-14630095D01*
X14280715Y-14630095D02*
X14290238Y-14611048D01*
X14290238Y-14611048D02*
X14309286Y-14582476D01*
X14309286Y-14582476D02*
X14318810Y-14572952D01*
X14395000Y-14668190D02*
X14395000Y-14801524D01*
X14395000Y-14687238D02*
X14404524Y-14677714D01*
X14404524Y-14677714D02*
X14423572Y-14668190D01*
X14423572Y-14668190D02*
X14452143Y-14668190D01*
X14452143Y-14668190D02*
X14471191Y-14677714D01*
X14471191Y-14677714D02*
X14480715Y-14696762D01*
X14480715Y-14696762D02*
X14480715Y-14801524D01*
X14604524Y-14801524D02*
X14585477Y-14792000D01*
X14585477Y-14792000D02*
X14575953Y-14782476D01*
X14575953Y-14782476D02*
X14566429Y-14763428D01*
X14566429Y-14763428D02*
X14566429Y-14706286D01*
X14566429Y-14706286D02*
X14575953Y-14687238D01*
X14575953Y-14687238D02*
X14585477Y-14677714D01*
X14585477Y-14677714D02*
X14604524Y-14668190D01*
X14604524Y-14668190D02*
X14633096Y-14668190D01*
X14633096Y-14668190D02*
X14652143Y-14677714D01*
X14652143Y-14677714D02*
X14661667Y-14687238D01*
X14661667Y-14687238D02*
X14671191Y-14706286D01*
X14671191Y-14706286D02*
X14671191Y-14763428D01*
X14671191Y-14763428D02*
X14661667Y-14782476D01*
X14661667Y-14782476D02*
X14652143Y-14792000D01*
X14652143Y-14792000D02*
X14633096Y-14801524D01*
X14633096Y-14801524D02*
X14604524Y-14801524D01*
X14728334Y-14668190D02*
X14804524Y-14668190D01*
X14756905Y-14601524D02*
X14756905Y-14772952D01*
X14756905Y-14772952D02*
X14766429Y-14792000D01*
X14766429Y-14792000D02*
X14785477Y-14801524D01*
X14785477Y-14801524D02*
X14804524Y-14801524D01*
X15023572Y-14668190D02*
X15023572Y-14868190D01*
X15023572Y-14677714D02*
X15042619Y-14668190D01*
X15042619Y-14668190D02*
X15080715Y-14668190D01*
X15080715Y-14668190D02*
X15099762Y-14677714D01*
X15099762Y-14677714D02*
X15109286Y-14687238D01*
X15109286Y-14687238D02*
X15118810Y-14706286D01*
X15118810Y-14706286D02*
X15118810Y-14763428D01*
X15118810Y-14763428D02*
X15109286Y-14782476D01*
X15109286Y-14782476D02*
X15099762Y-14792000D01*
X15099762Y-14792000D02*
X15080715Y-14801524D01*
X15080715Y-14801524D02*
X15042619Y-14801524D01*
X15042619Y-14801524D02*
X15023572Y-14792000D01*
X15233096Y-14801524D02*
X15214048Y-14792000D01*
X15214048Y-14792000D02*
X15204524Y-14772952D01*
X15204524Y-14772952D02*
X15204524Y-14601524D01*
X15395000Y-14801524D02*
X15395000Y-14696762D01*
X15395000Y-14696762D02*
X15385477Y-14677714D01*
X15385477Y-14677714D02*
X15366429Y-14668190D01*
X15366429Y-14668190D02*
X15328334Y-14668190D01*
X15328334Y-14668190D02*
X15309286Y-14677714D01*
X15395000Y-14792000D02*
X15375953Y-14801524D01*
X15375953Y-14801524D02*
X15328334Y-14801524D01*
X15328334Y-14801524D02*
X15309286Y-14792000D01*
X15309286Y-14792000D02*
X15299762Y-14772952D01*
X15299762Y-14772952D02*
X15299762Y-14753905D01*
X15299762Y-14753905D02*
X15309286Y-14734857D01*
X15309286Y-14734857D02*
X15328334Y-14725333D01*
X15328334Y-14725333D02*
X15375953Y-14725333D01*
X15375953Y-14725333D02*
X15395000Y-14715809D01*
X15461667Y-14668190D02*
X15537858Y-14668190D01*
X15490239Y-14601524D02*
X15490239Y-14772952D01*
X15490239Y-14772952D02*
X15499762Y-14792000D01*
X15499762Y-14792000D02*
X15518810Y-14801524D01*
X15518810Y-14801524D02*
X15537858Y-14801524D01*
X15680715Y-14792000D02*
X15661667Y-14801524D01*
X15661667Y-14801524D02*
X15623572Y-14801524D01*
X15623572Y-14801524D02*
X15604524Y-14792000D01*
X15604524Y-14792000D02*
X15595000Y-14772952D01*
X15595000Y-14772952D02*
X15595000Y-14696762D01*
X15595000Y-14696762D02*
X15604524Y-14677714D01*
X15604524Y-14677714D02*
X15623572Y-14668190D01*
X15623572Y-14668190D02*
X15661667Y-14668190D01*
X15661667Y-14668190D02*
X15680715Y-14677714D01*
X15680715Y-14677714D02*
X15690239Y-14696762D01*
X15690239Y-14696762D02*
X15690239Y-14715809D01*
X15690239Y-14715809D02*
X15595000Y-14734857D01*
X15861667Y-14801524D02*
X15861667Y-14601524D01*
X15861667Y-14792000D02*
X15842620Y-14801524D01*
X15842620Y-14801524D02*
X15804524Y-14801524D01*
X15804524Y-14801524D02*
X15785477Y-14792000D01*
X15785477Y-14792000D02*
X15775953Y-14782476D01*
X15775953Y-14782476D02*
X15766429Y-14763428D01*
X15766429Y-14763428D02*
X15766429Y-14706286D01*
X15766429Y-14706286D02*
X15775953Y-14687238D01*
X15775953Y-14687238D02*
X15785477Y-14677714D01*
X15785477Y-14677714D02*
X15804524Y-14668190D01*
X15804524Y-14668190D02*
X15842620Y-14668190D01*
X15842620Y-14668190D02*
X15861667Y-14677714D01*
X15937858Y-14877714D02*
X15947381Y-14868190D01*
X15947381Y-14868190D02*
X15966429Y-14839619D01*
X15966429Y-14839619D02*
X15975953Y-14820571D01*
X15975953Y-14820571D02*
X15985477Y-14792000D01*
X15985477Y-14792000D02*
X15995000Y-14744381D01*
X15995000Y-14744381D02*
X15995000Y-14706286D01*
X15995000Y-14706286D02*
X15985477Y-14658667D01*
X15985477Y-14658667D02*
X15975953Y-14630095D01*
X15975953Y-14630095D02*
X15966429Y-14611048D01*
X15966429Y-14611048D02*
X15947381Y-14582476D01*
X15947381Y-14582476D02*
X15937858Y-14572952D01*
M02*
